<svg id="SvgjsSvg1134" width="540" height="376.5" xmlns="http://www.w3.org/2000/svg" version="1.1" xmlns:xlink="http://www.w3.org/1999/xlink" xmlns:svgjs="http://svgjs.com/svgjs"><defs id="SvgjsDefs1135"><marker id="SvgjsMarker1216" markerWidth="14" markerHeight="10" refX="10" refY="5" viewBox="0 0 14 10" orient="auto" markerUnits="userSpaceOnUse" stroke-dasharray="0,0"><path id="SvgjsPath1217" d="M0,0 L14,5 L0,10 L0,0" fill="#323232" stroke="#323232" stroke-width="1"></path></marker><marker id="SvgjsMarker1220" markerWidth="14" markerHeight="10" refX="10" refY="5" viewBox="0 0 14 10" orient="auto" markerUnits="userSpaceOnUse" stroke-dasharray="0,0"><path id="SvgjsPath1221" d="M0,0 L14,5 L0,10 L0,0" fill="#323232" stroke="#323232" stroke-width="1"></path></marker><marker id="SvgjsMarker1224" markerWidth="14" markerHeight="10" refX="10" refY="5" viewBox="0 0 14 10" orient="auto" markerUnits="userSpaceOnUse" stroke-dasharray="0,0"><path id="SvgjsPath1225" d="M0,0 L14,5 L0,10 L0,0" fill="#323232" stroke="#323232" stroke-width="1"></path></marker><marker id="SvgjsMarker1228" markerWidth="14" markerHeight="10" refX="10" refY="5" viewBox="0 0 14 10" orient="auto" markerUnits="userSpaceOnUse" stroke-dasharray="0,0"><path id="SvgjsPath1229" d="M0,0 L14,5 L0,10 L0,0" fill="#323232" stroke="#323232" stroke-width="1"></path></marker><marker id="SvgjsMarker1232" markerWidth="14" markerHeight="10" refX="10" refY="5" viewBox="0 0 14 10" orient="auto" markerUnits="userSpaceOnUse" stroke-dasharray="0,0"><path id="SvgjsPath1233" d="M0,0 L14,5 L0,10 L0,0" fill="#323232" stroke="#323232" stroke-width="1"></path></marker><marker id="SvgjsMarker1236" markerWidth="14" markerHeight="10" refX="10" refY="5" viewBox="0 0 14 10" orient="auto" markerUnits="userSpaceOnUse" stroke-dasharray="0,0"><path id="SvgjsPath1237" d="M0,0 L14,5 L0,10 L0,0" fill="#1976d2" stroke="#1976d2" stroke-width="1"></path></marker><marker id="SvgjsMarker1240" markerWidth="14" markerHeight="10" refX="10" refY="5" viewBox="0 0 14 10" orient="auto" markerUnits="userSpaceOnUse" stroke-dasharray="0,0"><path id="SvgjsPath1241" d="M0,0 L14,5 L0,10 L0,0" fill="#1976d2" stroke="#1976d2" stroke-width="1"></path></marker><marker id="SvgjsMarker1250" markerWidth="14" markerHeight="10" refX="10" refY="5" viewBox="0 0 14 10" orient="auto" markerUnits="userSpaceOnUse" stroke-dasharray="0,0"><path id="SvgjsPath1251" d="M0,0 L14,5 L0,10 L0,0" fill="#f44336" stroke="#f44336" stroke-width="1"></path></marker><marker id="SvgjsMarker1254" markerWidth="14" markerHeight="10" refX="10" refY="5" viewBox="0 0 14 10" orient="auto" markerUnits="userSpaceOnUse" stroke-dasharray="0,0"><path id="SvgjsPath1255" d="M0,0 L14,5 L0,10 L0,0" fill="#f44336" stroke="#f44336" stroke-width="1"></path></marker><marker id="SvgjsMarker1264" markerWidth="14" markerHeight="10" refX="10" refY="5" viewBox="0 0 14 10" orient="auto" markerUnits="userSpaceOnUse" stroke-dasharray="0,0"><path id="SvgjsPath1265" d="M0,0 L14,5 L0,10 L0,0" fill="#1976d2" stroke="#1976d2" stroke-width="1"></path></marker><marker id="SvgjsMarker1268" markerWidth="14" markerHeight="10" refX="10" refY="5" viewBox="0 0 14 10" orient="auto" markerUnits="userSpaceOnUse" stroke-dasharray="0,0"><path id="SvgjsPath1269" d="M0,0 L14,5 L0,10 L0,0" fill="#1976d2" stroke="#1976d2" stroke-width="1"></path></marker></defs><g id="SvgjsG1136" transform="translate(26,268.5)"><path id="SvgjsPath1137" d="M 0 0L 334 0L 334 83L 0 83Z" stroke-dasharray="10,6" stroke="rgba(244,67,54,1)" stroke-width="2" fill-opacity="1" fill="#ffffff"></path><g id="SvgjsG1138"><text id="SvgjsText1139" font-family="微软雅黑" text-anchor="middle" font-size="13px" width="314px" fill="#323232" font-weight="400" align="middle" lineHeight="125%" anchor="middle" family="微软雅黑" size="13px" weight="400" font-style="" opacity="1" y="30.875" transform="rotate(0)"></text></g></g><g id="SvgjsG1140" transform="translate(26,125.5)"><path id="SvgjsPath1141" d="M 0 0L 334 0L 334 125L 0 125Z" stroke-dasharray="10,6" stroke="rgba(244,67,54,1)" stroke-width="2" fill-opacity="1" fill="#ffffff"></path><g id="SvgjsG1142"><text id="SvgjsText1143" font-family="微软雅黑" text-anchor="middle" font-size="13px" width="314px" fill="#323232" font-weight="400" align="middle" lineHeight="125%" anchor="middle" family="微软雅黑" size="13px" weight="400" font-style="" opacity="1" y="51.875" transform="rotate(0)"></text></g></g><g id="SvgjsG1144" transform="translate(25,29.5)"><path id="SvgjsPath1145" d="M 0 0L 336 0L 336 85L 0 85Z" stroke-dasharray="10,6" stroke="rgba(244,67,54,1)" stroke-width="2" fill-opacity="1" fill="#ffffff"></path><g id="SvgjsG1146"><text id="SvgjsText1147" font-family="微软雅黑" text-anchor="middle" font-size="13px" width="316px" fill="#323232" font-weight="400" align="middle" lineHeight="125%" anchor="middle" family="微软雅黑" size="13px" weight="400" font-style="" opacity="1" y="31.875" transform="rotate(0)"></text></g></g><g id="SvgjsG1148" transform="translate(34,42.5)"><path id="SvgjsPath1149" d="M 0 0L 139 0L 139 52L 0 52Z" stroke="rgba(255,255,255,1)" stroke-width="2" fill-opacity="1" fill="#214c8c"></path><g id="SvgjsG1150"><text id="SvgjsText1151" font-family="微软雅黑" text-anchor="middle" font-size="13px" width="119px" fill="#ffffff" font-weight="700" align="middle" lineHeight="125%" anchor="middle" family="微软雅黑" size="13px" weight="700" font-style="" opacity="1" y="15.375" transform="rotate(0)"><tspan id="SvgjsTspan1152" dy="16" x="69.5"><tspan id="SvgjsTspan1153" style="text-decoration:;">分析整体设计目标</tspan></tspan></text></g></g><g id="SvgjsG1154" transform="translate(34,161.5)"><path id="SvgjsPath1155" d="M 0 0L 139 0L 139 53L 0 53Z" stroke="rgba(255,255,255,1)" stroke-width="2" fill-opacity="1" fill="#214c8c"></path><g id="SvgjsG1156"><text id="SvgjsText1157" font-family="微软雅黑" text-anchor="middle" font-size="13px" width="119px" fill="#ffffff" font-weight="700" align="middle" lineHeight="125%" anchor="middle" family="微软雅黑" size="13px" weight="700" font-style="" opacity="1" y="15.875" transform="rotate(0)"><tspan id="SvgjsTspan1158" dy="16" x="69.5"><tspan id="SvgjsTspan1159" style="text-decoration:;">描述体系结构</tspan></tspan></text></g></g><g id="SvgjsG1160" transform="translate(34,281.5)"><path id="SvgjsPath1161" d="M 0 0L 139 0L 139 51L 0 51Z" stroke="rgba(255,255,255,1)" stroke-width="2" fill-opacity="1" fill="#214c8c"></path><g id="SvgjsG1162"><text id="SvgjsText1163" font-family="微软雅黑" text-anchor="middle" font-size="13px" width="119px" fill="#ffffff" font-weight="700" align="middle" lineHeight="125%" anchor="middle" family="微软雅黑" size="13px" weight="700" font-style="" opacity="1" y="14.875" transform="rotate(0)"><tspan id="SvgjsTspan1164" dy="16" x="69.5"><tspan id="SvgjsTspan1165" style="text-decoration:;">构建质量属性效用树</tspan></tspan></text></g></g><g id="SvgjsG1166" transform="translate(221,34.5)"><path id="SvgjsPath1167" d="M 0 0L 134 0L 134 39L 0 39Z" stroke="rgba(255,255,255,1)" stroke-width="2" fill-opacity="1" fill="#73abff"></path><g id="SvgjsG1168"><text id="SvgjsText1169" font-family="微软雅黑" text-anchor="middle" font-size="13px" width="114px" fill="#ffffff" font-weight="700" align="middle" lineHeight="125%" anchor="middle" family="微软雅黑" size="13px" weight="700" font-style="" opacity="1" y="8.875" transform="rotate(0)"><tspan id="SvgjsTspan1170" dy="16" x="67"><tspan id="SvgjsTspan1171" style="text-decoration:;">映射质量属性</tspan></tspan></text></g></g><g id="SvgjsG1172" transform="translate(221,306.5)"><path id="SvgjsPath1173" d="M 0 0L 134 0L 134 39L 0 39Z" stroke="rgba(33,150,243,1)" stroke-width="2" fill-opacity="1" fill="#73abff"></path><g id="SvgjsG1174"><text id="SvgjsText1175" font-family="微软雅黑" text-anchor="middle" font-size="13px" width="114px" fill="#ffffff" font-weight="700" align="middle" lineHeight="125%" anchor="middle" family="微软雅黑" size="13px" weight="700" font-style="" opacity="1" y="8.875" transform="rotate(0)"><tspan id="SvgjsTspan1176" dy="16" x="67"><tspan id="SvgjsTspan1177" style="text-decoration:;">确认场景优先级别</tspan></tspan></text></g></g><g id="SvgjsG1178" transform="translate(221,71.5)"><path id="SvgjsPath1179" d="M 0 0L 134 0L 134 39L 0 39Z" stroke="rgba(255,255,255,1)" stroke-width="2" fill-opacity="1" fill="#73abff"></path><g id="SvgjsG1180"><text id="SvgjsText1181" font-family="微软雅黑" text-anchor="middle" font-size="13px" width="114px" fill="#ffffff" font-weight="700" align="middle" lineHeight="125%" anchor="middle" family="微软雅黑" size="13px" weight="700" font-style="" opacity="1" y="8.875" transform="rotate(0)"><tspan id="SvgjsTspan1182" dy="16" x="67"><tspan id="SvgjsTspan1183" style="text-decoration:;">粗测属性优先级</tspan></tspan></text></g></g><g id="SvgjsG1184" transform="translate(221,129.5)"><path id="SvgjsPath1185" d="M 0 0L 134 0L 134 39L 0 39Z" stroke="rgba(255,255,255,1)" stroke-width="2" fill-opacity="1" fill="#73abff"></path><g id="SvgjsG1186"><text id="SvgjsText1187" font-family="微软雅黑" text-anchor="middle" font-size="13px" width="114px" fill="#ffffff" font-weight="700" align="middle" lineHeight="125%" anchor="middle" family="微软雅黑" size="13px" weight="700" font-style="" opacity="1" y="8.875" transform="rotate(0)"><tspan id="SvgjsTspan1188" dy="16" x="67"><tspan id="SvgjsTspan1189" style="text-decoration:;">系统的整体结构</tspan></tspan></text></g></g><g id="SvgjsG1190" transform="translate(221,168.5)"><path id="SvgjsPath1191" d="M 0 0L 134 0L 134 39L 0 39Z" stroke="rgba(255,255,255,1)" stroke-width="2" fill-opacity="1" fill="#73abff"></path><g id="SvgjsG1192"><text id="SvgjsText1193" font-family="微软雅黑" text-anchor="middle" font-size="13px" width="114px" fill="#ffffff" font-weight="700" align="middle" lineHeight="125%" anchor="middle" family="微软雅黑" size="13px" weight="700" font-style="" opacity="1" y="8.875" transform="rotate(0)"><tspan id="SvgjsTspan1194" dy="16" x="67"><tspan id="SvgjsTspan1195" style="text-decoration:;">细化质量属性</tspan></tspan></text></g></g><g id="SvgjsG1196" transform="translate(221,207.5)"><path id="SvgjsPath1197" d="M 0 0L 134 0L 134 39L 0 39Z" stroke="rgba(255,255,255,1)" stroke-width="2" fill-opacity="1" fill="#73abff"></path><g id="SvgjsG1198"><text id="SvgjsText1199" font-family="微软雅黑" text-anchor="middle" font-size="13px" width="114px" fill="#ffffff" font-weight="700" align="middle" lineHeight="125%" anchor="middle" family="微软雅黑" size="13px" weight="700" font-style="" opacity="1" y="8.875" transform="rotate(0)"><tspan id="SvgjsTspan1200" dy="16" x="67"><tspan id="SvgjsTspan1201" style="text-decoration:;">拟定质量属性战术</tspan></tspan></text></g></g><g id="SvgjsG1202" transform="translate(221,271.5)"><path id="SvgjsPath1203" d="M 0 0L 134 0L 134 39L 0 39Z" stroke="rgba(255,255,255,1)" stroke-width="2" fill-opacity="1" fill="#73abff"></path><g id="SvgjsG1204"><text id="SvgjsText1205" font-family="微软雅黑" text-anchor="middle" font-size="13px" width="114px" fill="#ffffff" font-weight="700" align="middle" lineHeight="125%" anchor="middle" family="微软雅黑" size="13px" weight="700" font-style="" opacity="1" y="8.875" transform="rotate(0)"><tspan id="SvgjsTspan1206" dy="16" x="67"><tspan id="SvgjsTspan1207" style="text-decoration:;">质量场景映射</tspan></tspan></text></g></g><g id="SvgjsG1208" transform="translate(355,25)"><path id="SvgjsPath1209" d="M 0 0L 98 0L 98 31.5L 0 31.5Z" stroke="none" fill="none"></path><g id="SvgjsG1210"><text id="SvgjsText1211" font-family="微软雅黑" text-anchor="middle" font-size="13px" width="98px" fill="#000000" font-weight="700" align="middle" lineHeight="125%" anchor="middle" family="微软雅黑" size="13px" weight="700" font-style="" opacity="1" y="5.125" transform="rotate(0)"><tspan id="SvgjsTspan1212" dy="16" x="49"><tspan id="SvgjsTspan1213" style="text-decoration:;">质量场景评估</tspan></tspan></text></g></g><g id="SvgjsG1214"><path id="SvgjsPath1215" d="M356 54L385 54L385 291L358.6 291" stroke="#323232" stroke-width="2" fill="none" marker-end="url(#SvgjsMarker1216)"></path></g><g id="SvgjsG1218"><path id="SvgjsPath1219" d="M356 291L385 291L385 54L358.6 54" stroke="#323232" stroke-width="2" fill="none" marker-end="url(#SvgjsMarker1220)"></path></g><g id="SvgjsG1222"><path id="SvgjsPath1223" d="M356 188L385 188L385 54L358.6 54" stroke="#323232" stroke-width="2" fill="none" marker-end="url(#SvgjsMarker1224)"></path></g><g id="SvgjsG1226"><path id="SvgjsPath1227" d="M356 54L385 54L385 188L363.6 188" stroke="#323232" stroke-width="2" fill="none" marker-end="url(#SvgjsMarker1228)"></path></g><g id="SvgjsG1230"><path id="SvgjsPath1231" d="M356 188L385 188L385 291L358.6 291" stroke="#323232" stroke-width="2" fill="none" marker-end="url(#SvgjsMarker1232)"></path></g><g id="SvgjsG1234"><path id="SvgjsPath1235" d="M356 91L453 91L453 326L358.6 326" stroke="#1976d2" stroke-width="2" fill="none" marker-end="url(#SvgjsMarker1236)"></path></g><g id="SvgjsG1238"><path id="SvgjsPath1239" d="M356 326L453 326L453 91L358.6 91" stroke="#1976d2" stroke-width="2" fill="none" marker-end="url(#SvgjsMarker1240)"></path></g><g id="SvgjsG1242" transform="translate(395,58.5)"><path id="SvgjsPath1243" d="M 0 0L 120 0L 120 40L 0 40Z" stroke="none" fill="none"></path><g id="SvgjsG1244"><text id="SvgjsText1245" font-family="微软雅黑" text-anchor="middle" font-size="13px" width="120px" fill="#1976d2" font-weight="700" align="middle" lineHeight="125%" anchor="middle" family="微软雅黑" size="13px" weight="700" font-style="" opacity="1" y="9.375" transform="rotate(0)"><tspan id="SvgjsTspan1246" dy="16" x="60"><tspan id="SvgjsTspan1247" style="text-decoration:;">质量属性优先级确认</tspan></tspan></text></g></g><g id="SvgjsG1248"><path id="SvgjsPath1249" d="M356 149L418 149L418 227L358.6 227" stroke="#f44336" stroke-width="2" fill="none" marker-end="url(#SvgjsMarker1250)"></path></g><g id="SvgjsG1252"><path id="SvgjsPath1253" d="M356 227L418 227L418 149L358.6 149" stroke="#f44336" stroke-width="2" fill="none" marker-end="url(#SvgjsMarker1254)"></path></g><g id="SvgjsG1256" transform="translate(355,113.5)"><path id="SvgjsPath1257" d="M 0 0L 120 0L 120 40L 0 40Z" stroke="none" fill="none"></path><g id="SvgjsG1258"><text id="SvgjsText1259" font-family="微软雅黑" text-anchor="middle" font-size="13px" width="120px" fill="#f44336" font-weight="700" align="middle" lineHeight="125%" anchor="middle" family="微软雅黑" size="13px" weight="700" font-style="" opacity="1" y="9.375" transform="rotate(0)"><tspan id="SvgjsTspan1260" dy="16" x="60"><tspan id="SvgjsTspan1261" style="text-decoration:;">战术设计</tspan></tspan></text></g></g><g id="SvgjsG1262"><path id="SvgjsPath1263" d="M103.5 95.5L103.5 128L103.5 128L103.5 157.89999999999998" stroke="#1976d2" stroke-width="2" fill="none" marker-end="url(#SvgjsMarker1264)"></path></g><g id="SvgjsG1266"><path id="SvgjsPath1267" d="M103.5 215.5L103.5 248L103.5 248L103.5 277.9" stroke="#1976d2" stroke-width="2" fill="none" marker-end="url(#SvgjsMarker1268)"></path></g></svg>