<svg version="1.1" xmlns="http://www.w3.org/2000/svg" xmlns:xlink="http://www.w3.org/1999/xlink" width="561" height="419"><defs/><g><g transform="translate(-174,-166) scale(1,1)"><path fill="#C0C0C0" stroke="none" d="M 511 296 C 511 286.6111584 533.6096176 279 561.5 279 C 589.3903824 279 612 286.6111584 612 296 C 612 305.3888416 589.3903824 313 561.5 313 C 533.6096176 313 511 305.3888416 511 296 Z" opacity="0.2"/></g><g transform="translate(-174,-166) scale(1,1)"><path fill="#ffffff" stroke="none" d="M 504 289 C 504 279.6111584 526.6096176 272 554.5 272 C 582.3903824 272 605 279.6111584 605 289 C 605 298.3888416 582.3903824 306 554.5 306 C 526.6096176 306 504 298.3888416 504 289 Z"/></g><g transform="translate(-174,-166) scale(1,1)"><path fill="none" stroke="#000000" d="M 504 289 C 504 279.6111584 526.6096176 272 554.5 272 C 582.3903824 272 605 279.6111584 605 289 C 605 298.3888416 582.3903824 306 554.5 306 C 526.6096176 306 504 298.3888416 504 289 Z" stroke-miterlimit="10"/></g><g transform="translate(-174,-166) scale(1,1)"><g><path fill="none" stroke="none"/><text fill="#000000" stroke="none" font-family="Arial" font-size="13px" font-style="normal" font-weight="bold" text-decoration="none" x="541.5" y="296">登录</text></g></g><g transform="translate(-174,-166) scale(1,1)"><path fill="#C0C0C0" stroke="none" d="M 511 200 C 511 190.6111584 533.6096176 183 561.5 183 C 589.3903824 183 612 190.6111584 612 200 C 612 209.3888416 589.3903824 217 561.5 217 C 533.6096176 217 511 209.3888416 511 200 Z" opacity="0.2"/></g><g transform="translate(-174,-166) scale(1,1)"><path fill="#ffffff" stroke="none" d="M 504 193 C 504 183.6111584 526.6096176 176 554.5 176 C 582.3903824 176 605 183.6111584 605 193 C 605 202.3888416 582.3903824 210 554.5 210 C 526.6096176 210 504 202.3888416 504 193 Z"/></g><g transform="translate(-174,-166) scale(1,1)"><path fill="none" stroke="#000000" d="M 504 193 C 504 183.6111584 526.6096176 176 554.5 176 C 582.3903824 176 605 183.6111584 605 193 C 605 202.3888416 582.3903824 210 554.5 210 C 526.6096176 210 504 202.3888416 504 193 Z" stroke-miterlimit="10"/></g><g transform="translate(-174,-166) scale(1,1)"><g><path fill="none" stroke="none"/><text fill="#000000" stroke="none" font-family="Arial" font-size="13px" font-style="normal" font-weight="bold" text-decoration="none" x="541.5" y="200">注册</text></g></g><g transform="translate(-174,-166) scale(1,1)"><path fill="none" stroke="#000000" d="M 554 211 L 554 271" stroke-miterlimit="10" stroke-dasharray="3"/></g><g transform="translate(-174,-166) scale(1,1)"><path fill="none" stroke="#000000" d="M 549.790482243984 260.83732514237585 L 554 271 L 558.209517756016 260.83732514237585" stroke-miterlimit="10"/></g><g transform="translate(-174,-166) scale(1,1)"><g><path fill="none" stroke="none"/><text fill="#000000" stroke="none" font-family="Arial" font-size="13px" font-style="normal" font-weight="normal" text-decoration="none" x="546.5" y="240.5">«extend»</text></g></g><g transform="translate(-174,-166) scale(1,1)"><path fill="#ffffff" stroke="none" d="M 205.82072727272728 345.68 C 205.82072727272728 340.886167936 209.70656959767274 337 214.5 337 C 219.29343040232726 337 223.17927272727272 340.886167936 223.17927272727272 345.68 C 223.17927272727272 350.473832064 219.29343040232726 354.36 214.5 354.36 C 209.70656959767274 354.36 205.82072727272728 350.473832064 205.82072727272728 345.68 Z"/></g><g transform="translate(-174,-166) scale(1,1)"><path fill="none" stroke="#000000" d="M 205.82072727272728 345.68 C 205.82072727272728 340.886167936 209.70656959767274 337 214.5 337 C 219.29343040232726 337 223.17927272727272 340.886167936 223.17927272727272 345.68 C 223.17927272727272 350.473832064 219.29343040232726 354.36 214.5 354.36 C 209.70656959767274 354.36 205.82072727272728 350.473832064 205.82072727272728 345.68 Z" stroke-miterlimit="10"/></g><g transform="translate(-174,-166) scale(1,1)"><path fill="none" stroke="#000000" d="M 214.5 354.36 L 214.5 371.64" stroke-miterlimit="10"/></g><g transform="translate(-174,-166) scale(1,1)"><path fill="none" stroke="#000000" d="M 205.31018181818183 360.84 L 223.68981818181817 360.84" stroke-miterlimit="10"/></g><g transform="translate(-174,-166) scale(1,1)"><path fill="none" stroke="#000000" d="M 214.5 371.64 L 201.73636363636365 389" stroke-miterlimit="10"/></g><g transform="translate(-174,-166) scale(1,1)"><path fill="none" stroke="#000000" d="M 214.5 371.64 L 227.26363636363635 389" stroke-miterlimit="10"/></g><g transform="translate(-174,-166) scale(1,1)"><g><path fill="none" stroke="none"/><text fill="#000000" stroke="none" font-family="Arial" font-size="13px" font-style="normal" font-weight="bold" text-decoration="none" x="188.5" y="409.5">普通用户</text></g></g><g transform="translate(-174,-166) scale(1,1)"><path fill="#ffffff" stroke="none" d="M 205.82072727272728 505.68 C 205.82072727272728 500.886167936 209.70656959767274 497 214.5 497 C 219.29343040232726 497 223.17927272727272 500.886167936 223.17927272727272 505.68 C 223.17927272727272 510.473832064 219.29343040232726 514.36 214.5 514.36 C 209.70656959767274 514.36 205.82072727272728 510.473832064 205.82072727272728 505.68 Z"/></g><g transform="translate(-174,-166) scale(1,1)"><path fill="none" stroke="#000000" d="M 205.82072727272728 505.68 C 205.82072727272728 500.886167936 209.70656959767274 497 214.5 497 C 219.29343040232726 497 223.17927272727272 500.886167936 223.17927272727272 505.68 C 223.17927272727272 510.473832064 219.29343040232726 514.36 214.5 514.36 C 209.70656959767274 514.36 205.82072727272728 510.473832064 205.82072727272728 505.68 Z" stroke-miterlimit="10"/></g><g transform="translate(-174,-166) scale(1,1)"><path fill="none" stroke="#000000" d="M 214.5 514.36 L 214.5 531.64" stroke-miterlimit="10"/></g><g transform="translate(-174,-166) scale(1,1)"><path fill="none" stroke="#000000" d="M 205.31018181818183 520.84 L 223.68981818181817 520.84" stroke-miterlimit="10"/></g><g transform="translate(-174,-166) scale(1,1)"><path fill="none" stroke="#000000" d="M 214.5 531.64 L 201.73636363636365 549" stroke-miterlimit="10"/></g><g transform="translate(-174,-166) scale(1,1)"><path fill="none" stroke="#000000" d="M 214.5 531.64 L 227.26363636363635 549" stroke-miterlimit="10"/></g><g transform="translate(-174,-166) scale(1,1)"><g><path fill="none" stroke="none"/><text fill="#000000" stroke="none" font-family="Arial" font-size="13px" font-style="normal" font-weight="bold" text-decoration="none" x="188.5" y="569.5">会员用户</text></g></g><g transform="translate(-174,-166) scale(1,1)"><path fill="#C0C0C0" stroke="none" d="M 495 408 C 495 398.6111584 522.5344848 391 556.5 391 C 590.4655152 391 618 398.6111584 618 408 C 618 417.3888416 590.4655152 425 556.5 425 C 522.5344848 425 495 417.3888416 495 408 Z" opacity="0.2"/></g><g transform="translate(-174,-166) scale(1,1)"><path fill="#ffffff" stroke="none" d="M 488 401 C 488 391.6111584 515.5344848 384 549.5 384 C 583.4655152 384 611 391.6111584 611 401 C 611 410.3888416 583.4655152 418 549.5 418 C 515.5344848 418 488 410.3888416 488 401 Z"/></g><g transform="translate(-174,-166) scale(1,1)"><path fill="none" stroke="#000000" d="M 488 401 C 488 391.6111584 515.5344848 384 549.5 384 C 583.4655152 384 611 391.6111584 611 401 C 611 410.3888416 583.4655152 418 549.5 418 C 515.5344848 418 488 410.3888416 488 401 Z" stroke-miterlimit="10"/></g><g transform="translate(-174,-166) scale(1,1)"><g><path fill="none" stroke="none"/><text fill="#000000" stroke="none" font-family="Arial" font-size="13px" font-style="normal" font-weight="bold" text-decoration="none" x="510.5" y="408">查看个人中心</text></g></g><g transform="translate(-174,-166) scale(1,1)"><path fill="none" stroke="#000000" d="M 246 367 L 503 302" stroke-miterlimit="10"/></g><g transform="translate(-174,-166) scale(1,1)"><path fill="none" stroke="#000000" d="M 494.17972276651443 308.57287680733907 L 503 302 L 492.11539639388377 300.4108479186303" stroke-miterlimit="10"/></g><g transform="translate(-174,-166) scale(1,1)"><path fill="none" stroke="#000000" d="M 246 377 L 487 396" stroke-miterlimit="10"/></g><g transform="translate(-174,-166) scale(1,1)"><path fill="none" stroke="#000000" d="M 476.53791739908144 399.3977680396926 L 487 396 L 477.1996056257911 391.00477526932224" stroke-miterlimit="10"/></g><g transform="translate(-174,-166) scale(1,1)"><path fill="#C0C0C0" stroke="none" d="M 399 488 C 399 478.6111584 426.5344848 471 460.5 471 C 494.4655152 471 522 478.6111584 522 488 C 522 497.3888416 494.4655152 505 460.5 505 C 426.5344848 505 399 497.3888416 399 488 Z" opacity="0.2"/></g><g transform="translate(-174,-166) scale(1,1)"><path fill="#ffffff" stroke="none" d="M 392 481 C 392 471.6111584 419.5344848 464 453.5 464 C 487.4655152 464 515 471.6111584 515 481 C 515 490.3888416 487.4655152 498 453.5 498 C 419.5344848 498 392 490.3888416 392 481 Z"/></g><g transform="translate(-174,-166) scale(1,1)"><path fill="none" stroke="#000000" d="M 392 481 C 392 471.6111584 419.5344848 464 453.5 464 C 487.4655152 464 515 471.6111584 515 481 C 515 490.3888416 487.4655152 498 453.5 498 C 419.5344848 498 392 490.3888416 392 481 Z" stroke-miterlimit="10"/></g><g transform="translate(-174,-166) scale(1,1)"><g><path fill="none" stroke="none"/><text fill="#000000" stroke="none" font-family="Arial" font-size="13px" font-style="normal" font-weight="bold" text-decoration="none" x="414.5" y="488">查看我的收藏</text></g></g><g transform="translate(-174,-166) scale(1,1)"><path fill="none" stroke="#000000" d="M 527 419 L 475 463" stroke-miterlimit="10" stroke-dasharray="3"/></g><g transform="translate(-174,-166) scale(1,1)"><path fill="none" stroke="#000000" d="M 480.03894127416316 453.22201090021395 L 475 463 L 485.47715194378844 459.6489871461347" stroke-miterlimit="10"/></g><g transform="translate(-174,-166) scale(1,1)"><g><path fill="none" stroke="none"/><text fill="#000000" stroke="none" font-family="Arial" font-size="13px" font-style="normal" font-weight="normal" text-decoration="none" x="491.5" y="452.5">«include»</text></g></g><g transform="translate(-174,-166) scale(1,1)"><path fill="#C0C0C0" stroke="none" d="M 631 496 C 631 486.6111584 653.6096176 479 681.5 479 C 709.3903824 479 732 486.6111584 732 496 C 732 505.3888416 709.3903824 513 681.5 513 C 653.6096176 513 631 505.3888416 631 496 Z" opacity="0.2"/></g><g transform="translate(-174,-166) scale(1,1)"><path fill="#ffffff" stroke="none" d="M 624 489 C 624 479.6111584 646.6096176 472 674.5 472 C 702.3903824 472 725 479.6111584 725 489 C 725 498.3888416 702.3903824 506 674.5 506 C 646.6096176 506 624 498.3888416 624 489 Z"/></g><g transform="translate(-174,-166) scale(1,1)"><path fill="none" stroke="#000000" d="M 624 489 C 624 479.6111584 646.6096176 472 674.5 472 C 702.3903824 472 725 479.6111584 725 489 C 725 498.3888416 702.3903824 506 674.5 506 C 646.6096176 506 624 498.3888416 624 489 Z" stroke-miterlimit="10"/></g><g transform="translate(-174,-166) scale(1,1)"><g><path fill="none" stroke="none"/><text fill="#000000" stroke="none" font-family="Arial" font-size="13px" font-style="normal" font-weight="bold" text-decoration="none" x="648.5" y="496">会员服务</text></g></g><g transform="translate(-174,-166) scale(1,1)"><path fill="none" stroke="#000000" d="M 575 419 L 648 471" stroke-miterlimit="10" stroke-dasharray="3"/></g><g transform="translate(-174,-166) scale(1,1)"><path fill="none" stroke="#000000" d="M 637.2803492716221 468.5323921985884 L 648 471 L 642.1649244876996 461.6752000683257" stroke-miterlimit="10"/></g><g transform="translate(-174,-166) scale(1,1)"><g><path fill="none" stroke="none"/><text fill="#000000" stroke="none" font-family="Arial" font-size="13px" font-style="normal" font-weight="normal" text-decoration="none" x="607.5" y="442.5">«include»</text></g></g><g transform="translate(-174,-166) scale(1,1)"><path fill="none" stroke="#000000" d="M 214 495 L 214 416" stroke-miterlimit="10"/></g><g transform="translate(-174,-166) scale(1,1)"><path fill="#FFFFFF" stroke="none" d="M 222.41903551203197 436.3253497152483 L 214 416 L 205.58096448796803 436.3253497152483"/></g><g transform="translate(-174,-166) scale(1,1)"><path fill="none" stroke="#000000" d="M 222.41903551203197 436.3253497152483 L 214 416 L 205.58096448796803 436.3253497152483 L 222.41903551203197 436.3253497152483" stroke-miterlimit="10"/></g></g></svg>