<svg id="SvgjsSvg1514" width="1269.012466430664" height="578.3000030517578" xmlns="http://www.w3.org/2000/svg" version="1.1" xmlns:xlink="http://www.w3.org/1999/xlink" xmlns:svgjs="http://svgjs.com/svgjs"><defs id="SvgjsDefs1515"><marker id="SvgjsMarker1614" markerWidth="14" markerHeight="10" refX="10" refY="5" viewBox="0 0 14 10" orient="auto" markerUnits="userSpaceOnUse" stroke-dasharray="0,0"><path id="SvgjsPath1615" d="M0,0 L14,5 L0,10 L0,0" fill="#323232" stroke="#323232" stroke-width="1"></path></marker><marker id="SvgjsMarker1618" markerWidth="14" markerHeight="10" refX="10" refY="5" viewBox="0 0 14 10" orient="auto" markerUnits="userSpaceOnUse" stroke-dasharray="0,0"><path id="SvgjsPath1619" d="M0,0 L14,5 L0,10 L0,0" fill="#323232" stroke="#323232" stroke-width="1"></path></marker><marker id="SvgjsMarker1622" markerWidth="14" markerHeight="10" refX="10" refY="5" viewBox="0 0 14 10" orient="auto" markerUnits="userSpaceOnUse" stroke-dasharray="0,0"><path id="SvgjsPath1623" d="M0,0 L14,5 L0,10 L0,0" fill="#323232" stroke="#323232" stroke-width="1"></path></marker><marker id="SvgjsMarker1636" markerWidth="14" markerHeight="12" refX="16" refY="6" viewBox="0 0 14 12" orient="auto" markerUnits="userSpaceOnUse" stroke-dasharray="0,0"><path id="SvgjsPath1637" d="M1,1 L14,6 L1,11L1,1" fill="#ffffff" stroke="#323232" stroke-width="2"></path></marker><marker id="SvgjsMarker1640" markerWidth="14" markerHeight="12" refX="16" refY="6" viewBox="0 0 14 12" orient="auto" markerUnits="userSpaceOnUse" stroke-dasharray="0,0"><path id="SvgjsPath1641" d="M1,1 L14,6 L1,11L1,1" fill="#ffffff" stroke="#323232" stroke-width="2"></path></marker><marker id="SvgjsMarker1644" markerWidth="14" markerHeight="12" refX="16" refY="6" viewBox="0 0 14 12" orient="auto" markerUnits="userSpaceOnUse" stroke-dasharray="0,0"><path id="SvgjsPath1645" d="M1,1 L14,6 L1,11L1,1" fill="#ffffff" stroke="#323232" stroke-width="2"></path></marker><marker id="SvgjsMarker1648" markerWidth="14" markerHeight="10" refX="10" refY="5" viewBox="0 0 14 10" orient="auto" markerUnits="userSpaceOnUse" stroke-dasharray="0,0"><path id="SvgjsPath1649" d="M0,0 L14,5 L0,10 L0,0" fill="#323232" stroke="#323232" stroke-width="1"></path></marker><marker id="SvgjsMarker1652" markerWidth="14" markerHeight="10" refX="10" refY="5" viewBox="0 0 14 10" orient="auto" markerUnits="userSpaceOnUse" stroke-dasharray="0,0"><path id="SvgjsPath1653" d="M0,0 L14,5 L0,10 L0,0" fill="#323232" stroke="#323232" stroke-width="1"></path></marker><marker id="SvgjsMarker1656" markerWidth="14" markerHeight="10" refX="10" refY="5" viewBox="0 0 14 10" orient="auto" markerUnits="userSpaceOnUse" stroke-dasharray="0,0"><path id="SvgjsPath1657" d="M0,0 L14,5 L0,10 L0,0" fill="#323232" stroke="#323232" stroke-width="1"></path></marker><marker id="SvgjsMarker1730" markerWidth="14" markerHeight="12" refX="16" refY="6" viewBox="0 0 14 12" orient="auto" markerUnits="userSpaceOnUse" stroke-dasharray="0,0"><path id="SvgjsPath1731" d="M1,1 L14,6 L1,11L1,1" fill="#ffffff" stroke="#323232" stroke-width="2"></path></marker><marker id="SvgjsMarker1734" markerWidth="14" markerHeight="12" refX="16" refY="6" viewBox="0 0 14 12" orient="auto" markerUnits="userSpaceOnUse" stroke-dasharray="0,0"><path id="SvgjsPath1735" d="M1,1 L14,6 L1,11L1,1" fill="#ffffff" stroke="#323232" stroke-width="2"></path></marker><marker id="SvgjsMarker1738" markerWidth="14" markerHeight="12" refX="16" refY="6" viewBox="0 0 14 12" orient="auto" markerUnits="userSpaceOnUse" stroke-dasharray="0,0"><path id="SvgjsPath1739" d="M1,1 L14,6 L1,11L1,1" fill="#ffffff" stroke="#323232" stroke-width="2"></path></marker><marker id="SvgjsMarker1742" markerWidth="14" markerHeight="12" refX="16" refY="6" viewBox="0 0 14 12" orient="auto" markerUnits="userSpaceOnUse" stroke-dasharray="0,0"><path id="SvgjsPath1743" d="M1,1 L14,6 L1,11L1,1" fill="#ffffff" stroke="#323232" stroke-width="2"></path></marker><marker id="SvgjsMarker1746" markerWidth="14" markerHeight="12" refX="16" refY="6" viewBox="0 0 14 12" orient="auto" markerUnits="userSpaceOnUse" stroke-dasharray="0,0"><path id="SvgjsPath1747" d="M1,1 L14,6 L1,11L1,1" fill="#ffffff" stroke="#323232" stroke-width="2"></path></marker><marker id="SvgjsMarker1774" markerWidth="14" markerHeight="10" refX="10" refY="5" viewBox="0 0 14 10" orient="auto" markerUnits="userSpaceOnUse" stroke-dasharray="0,0"><path id="SvgjsPath1775" d="M0,0 L14,5 L0,10 L0,0" fill="#323232" stroke="#323232" stroke-width="1"></path></marker><marker id="SvgjsMarker1778" markerWidth="14" markerHeight="10" refX="10" refY="5" viewBox="0 0 14 10" orient="auto" markerUnits="userSpaceOnUse" stroke-dasharray="0,0"><path id="SvgjsPath1779" d="M0,0 L14,5 L0,10 L0,0" fill="#323232" stroke="#323232" stroke-width="1"></path></marker><marker id="SvgjsMarker1782" markerWidth="14" markerHeight="10" refX="10" refY="5" viewBox="0 0 14 10" orient="auto" markerUnits="userSpaceOnUse" stroke-dasharray="0,0"><path id="SvgjsPath1783" d="M0,0 L14,5 L0,10 L0,0" fill="#323232" stroke="#323232" stroke-width="1"></path></marker></defs><g id="SvgjsG1516" transform="translate(246.01248168945312,161.5)"><path id="SvgjsPath1517" d="M 0 4Q 0 0 4 0L 106 0Q 110 0 110 4L 110 56Q 110 60 106 60L 4 60Q 0 60 0 56Z" stroke="rgba(50,50,50,1)" stroke-width="2" fill-opacity="1" fill="#ffffff"></path><path id="SvgjsPath1518" d="M 0 30L 110 30M 0 45L 110 45" stroke="rgba(50,50,50,1)" stroke-width="2" fill="none"></path><path id="SvgjsPath1519" d="M 0 0L 110 0L 110 60L 0 60Z" stroke="none" fill="none"></path><g id="SvgjsG1520"><text id="SvgjsText1521" font-family="微软雅黑" text-anchor="middle" font-size="13px" width="90px" fill="#323232" font-weight="700" align="middle" lineHeight="125%" anchor="middle" family="微软雅黑" size="13px" weight="700" font-style="" opacity="1" y="4.375" transform="rotate(0)"><tspan id="SvgjsTspan1522" dy="16" x="55"><tspan id="SvgjsTspan1523" style="text-decoration:;">Dataloader</tspan></tspan></text></g><g id="SvgjsG1524"><text id="SvgjsText1525" font-family="微软雅黑" text-anchor="start" font-size="13px" width="90px" fill="#323232" font-weight="400" align="middle" lineHeight="125%" anchor="start" family="微软雅黑" size="13px" weight="400" font-style="" opacity="1" y="26.875" transform="rotate(0)"></text></g><g id="SvgjsG1526"><text id="SvgjsText1527" font-family="微软雅黑" text-anchor="start" font-size="13px" width="90px" fill="#323232" font-weight="400" align="middle" lineHeight="125%" anchor="start" family="微软雅黑" size="13px" weight="400" font-style="" opacity="1" y="41.875" transform="rotate(0)"></text></g></g><g id="SvgjsG1528" transform="translate(762.0124816894531,166)"><path id="SvgjsPath1529" d="M 0 4Q 0 0 4 0L 121 0Q 125 0 125 4L 125 47Q 125 51 121 51L 4 51Q 0 51 0 47Z" stroke="rgba(50,50,50,1)" stroke-width="2" fill-opacity="1" fill="#ffffff"></path><path id="SvgjsPath1530" d="M 0 30L 125 30M 0 40.5L 125 40.5" stroke="rgba(50,50,50,1)" stroke-width="2" fill="none"></path><path id="SvgjsPath1531" d="M 0 0L 125 0L 125 51L 0 51Z" stroke="none" fill="none"></path><g id="SvgjsG1532"><text id="SvgjsText1533" font-family="微软雅黑" text-anchor="middle" font-size="13px" width="105px" fill="#323232" font-weight="700" align="middle" lineHeight="125%" anchor="middle" family="微软雅黑" size="13px" weight="700" font-style="" opacity="1" y="4.375" transform="rotate(0)"><tspan id="SvgjsTspan1534" dy="16" x="62.5"><tspan id="SvgjsTspan1535" style="text-decoration:;">Train</tspan></tspan></text></g><g id="SvgjsG1536"><text id="SvgjsText1537" font-family="微软雅黑" text-anchor="start" font-size="13px" width="105px" fill="#323232" font-weight="400" align="middle" lineHeight="125%" anchor="start" family="微软雅黑" size="13px" weight="400" font-style="" opacity="1" y="24.625" transform="rotate(0)"></text></g><g id="SvgjsG1538"><text id="SvgjsText1539" font-family="微软雅黑" text-anchor="start" font-size="13px" width="105px" fill="#323232" font-weight="400" align="middle" lineHeight="125%" anchor="start" family="微软雅黑" size="13px" weight="400" font-style="" opacity="1" y="35.125" transform="rotate(0)"></text></g></g><g id="SvgjsG1540" transform="translate(662.0124816894531,25)"><path id="SvgjsPath1541" d="M 0 4Q 0 0 4 0L 106 0Q 110 0 110 4L 110 47Q 110 51 106 51L 4 51Q 0 51 0 47Z" stroke="rgba(50,50,50,1)" stroke-width="2" fill-opacity="1" fill="#ffffff"></path><path id="SvgjsPath1542" d="M 0 30L 110 30M 0 40.5L 110 40.5" stroke="rgba(50,50,50,1)" stroke-width="2" fill="none"></path><path id="SvgjsPath1543" d="M 0 0L 110 0L 110 51L 0 51Z" stroke="none" fill="none"></path><g id="SvgjsG1544"><text id="SvgjsText1545" font-family="微软雅黑" text-anchor="middle" font-size="13px" width="90px" fill="#323232" font-weight="700" align="middle" lineHeight="125%" anchor="middle" family="微软雅黑" size="13px" weight="700" font-style="" opacity="1" y="4.375" transform="rotate(0)"><tspan id="SvgjsTspan1546" dy="16" x="55"><tspan id="SvgjsTspan1547" style="text-decoration:;">RNN</tspan></tspan></text></g><g id="SvgjsG1548"><text id="SvgjsText1549" font-family="微软雅黑" text-anchor="start" font-size="13px" width="90px" fill="#323232" font-weight="400" align="middle" lineHeight="125%" anchor="start" family="微软雅黑" size="13px" weight="400" font-style="" opacity="1" y="24.625" transform="rotate(0)"></text></g><g id="SvgjsG1550"><text id="SvgjsText1551" font-family="微软雅黑" text-anchor="start" font-size="13px" width="90px" fill="#323232" font-weight="400" align="middle" lineHeight="125%" anchor="start" family="微软雅黑" size="13px" weight="400" font-style="" opacity="1" y="35.125" transform="rotate(0)"></text></g></g><g id="SvgjsG1552" transform="translate(518.4124908447266,25)"><path id="SvgjsPath1553" d="M 0 4Q 0 0 4 0L 106 0Q 110 0 110 4L 110 47Q 110 51 106 51L 4 51Q 0 51 0 47Z" stroke="rgba(50,50,50,1)" stroke-width="2" fill-opacity="1" fill="#ffffff"></path><path id="SvgjsPath1554" d="M 0 30L 110 30M 0 40.5L 110 40.5" stroke="rgba(50,50,50,1)" stroke-width="2" fill="none"></path><path id="SvgjsPath1555" d="M 0 0L 110 0L 110 51L 0 51Z" stroke="none" fill="none"></path><g id="SvgjsG1556"><text id="SvgjsText1557" font-family="微软雅黑" text-anchor="middle" font-size="13px" width="90px" fill="#323232" font-weight="700" align="middle" lineHeight="125%" anchor="middle" family="微软雅黑" size="13px" weight="700" font-style="" opacity="1" y="4.375" transform="rotate(0)"><tspan id="SvgjsTspan1558" dy="16" x="55"><tspan id="SvgjsTspan1559" style="text-decoration:;">LSTM</tspan></tspan></text></g><g id="SvgjsG1560"><text id="SvgjsText1561" font-family="微软雅黑" text-anchor="start" font-size="13px" width="90px" fill="#323232" font-weight="400" align="middle" lineHeight="125%" anchor="start" family="微软雅黑" size="13px" weight="400" font-style="" opacity="1" y="24.625" transform="rotate(0)"></text></g><g id="SvgjsG1562"><text id="SvgjsText1563" font-family="微软雅黑" text-anchor="start" font-size="13px" width="90px" fill="#323232" font-weight="400" align="middle" lineHeight="125%" anchor="start" family="微软雅黑" size="13px" weight="400" font-style="" opacity="1" y="35.125" transform="rotate(0)"></text></g></g><g id="SvgjsG1564" transform="translate(363.0124816894531,25)"><path id="SvgjsPath1565" d="M 0 4Q 0 0 4 0L 106 0Q 110 0 110 4L 110 47Q 110 51 106 51L 4 51Q 0 51 0 47Z" stroke="rgba(50,50,50,1)" stroke-width="2" fill-opacity="1" fill="#ffffff"></path><path id="SvgjsPath1566" d="M 0 30L 110 30M 0 40.5L 110 40.5" stroke="rgba(50,50,50,1)" stroke-width="2" fill="none"></path><path id="SvgjsPath1567" d="M 0 0L 110 0L 110 51L 0 51Z" stroke="none" fill="none"></path><g id="SvgjsG1568"><text id="SvgjsText1569" font-family="微软雅黑" text-anchor="middle" font-size="13px" width="90px" fill="#323232" font-weight="700" align="middle" lineHeight="125%" anchor="middle" family="微软雅黑" size="13px" weight="700" font-style="" opacity="1" y="4.375" transform="rotate(0)"><tspan id="SvgjsTspan1570" dy="16" x="55"><tspan id="SvgjsTspan1571" style="text-decoration:;">GRU</tspan></tspan></text></g><g id="SvgjsG1572"><text id="SvgjsText1573" font-family="微软雅黑" text-anchor="start" font-size="13px" width="90px" fill="#323232" font-weight="400" align="middle" lineHeight="125%" anchor="start" family="微软雅黑" size="13px" weight="400" font-style="" opacity="1" y="24.625" transform="rotate(0)"></text></g><g id="SvgjsG1574"><text id="SvgjsText1575" font-family="微软雅黑" text-anchor="start" font-size="13px" width="90px" fill="#323232" font-weight="400" align="middle" lineHeight="125%" anchor="start" family="微软雅黑" size="13px" weight="400" font-style="" opacity="1" y="35.125" transform="rotate(0)"></text></g></g><g id="SvgjsG1576" transform="translate(25.012481689453125,278.3000030517578)"><path id="SvgjsPath1577" d="M 0 4Q 0 0 4 0L 106 0Q 110 0 110 4L 110 56Q 110 60 106 60L 4 60Q 0 60 0 56Z" stroke="rgba(50,50,50,1)" stroke-width="2" fill-opacity="1" fill="#ffffff"></path><path id="SvgjsPath1578" d="M 0 30L 110 30M 0 45L 110 45" stroke="rgba(50,50,50,1)" stroke-width="2" fill="none"></path><path id="SvgjsPath1579" d="M 0 0L 110 0L 110 60L 0 60Z" stroke="none" fill="none"></path><g id="SvgjsG1580"><text id="SvgjsText1581" font-family="微软雅黑" text-anchor="middle" font-size="13px" width="90px" fill="#323232" font-weight="700" align="middle" lineHeight="125%" anchor="middle" family="微软雅黑" size="13px" weight="700" font-style="" opacity="1" y="4.375" transform="rotate(0)"><tspan id="SvgjsTspan1582" dy="16" x="55"><tspan id="SvgjsTspan1583" style="text-decoration:;">DataReader</tspan></tspan></text></g><g id="SvgjsG1584"><text id="SvgjsText1585" font-family="微软雅黑" text-anchor="start" font-size="13px" width="90px" fill="#323232" font-weight="400" align="middle" lineHeight="125%" anchor="start" family="微软雅黑" size="13px" weight="400" font-style="" opacity="1" y="26.875" transform="rotate(0)"></text></g><g id="SvgjsG1586"><text id="SvgjsText1587" font-family="微软雅黑" text-anchor="start" font-size="13px" width="90px" fill="#323232" font-weight="400" align="middle" lineHeight="125%" anchor="start" family="微软雅黑" size="13px" weight="400" font-style="" opacity="1" y="41.875" transform="rotate(0)"></text></g></g><g id="SvgjsG1588" transform="translate(946.0124816894531,166)"><path id="SvgjsPath1589" d="M 0 4Q 0 0 4 0L 134 0Q 138 0 138 4L 138 47Q 138 51 134 51L 4 51Q 0 51 0 47Z" stroke="rgba(50,50,50,1)" stroke-width="2" fill-opacity="1" fill="#ffffff"></path><path id="SvgjsPath1590" d="M 0 30L 138 30M 0 40.5L 138 40.5" stroke="rgba(50,50,50,1)" stroke-width="2" fill="none"></path><path id="SvgjsPath1591" d="M 0 0L 138 0L 138 51L 0 51Z" stroke="none" fill="none"></path><g id="SvgjsG1592"><text id="SvgjsText1593" font-family="微软雅黑" text-anchor="middle" font-size="13px" width="118px" fill="#323232" font-weight="700" align="middle" lineHeight="125%" anchor="middle" family="微软雅黑" size="13px" weight="700" font-style="" opacity="1" y="4.375" transform="rotate(0)"><tspan id="SvgjsTspan1594" dy="16" x="69"><tspan id="SvgjsTspan1595" style="text-decoration:;">SaveModel</tspan></tspan></text></g><g id="SvgjsG1596"><text id="SvgjsText1597" font-family="微软雅黑" text-anchor="start" font-size="13px" width="118px" fill="#323232" font-weight="400" align="middle" lineHeight="125%" anchor="start" family="微软雅黑" size="13px" weight="400" font-style="" opacity="1" y="24.625" transform="rotate(0)"></text></g><g id="SvgjsG1598"><text id="SvgjsText1599" font-family="微软雅黑" text-anchor="start" font-size="13px" width="118px" fill="#323232" font-weight="400" align="middle" lineHeight="125%" anchor="start" family="微软雅黑" size="13px" weight="400" font-style="" opacity="1" y="35.125" transform="rotate(0)"></text></g></g><g id="SvgjsG1600" transform="translate(1141.0124816894531,282.8000030517578)"><path id="SvgjsPath1601" d="M 0 4Q 0 0 4 0L 99 0Q 103 0 103 4L 103 47Q 103 51 99 51L 4 51Q 0 51 0 47Z" stroke="rgba(50,50,50,1)" stroke-width="2" fill-opacity="1" fill="#ffffff"></path><path id="SvgjsPath1602" d="M 0 30L 103 30M 0 40.5L 103 40.5" stroke="rgba(50,50,50,1)" stroke-width="2" fill="none"></path><path id="SvgjsPath1603" d="M 0 0L 103 0L 103 51L 0 51Z" stroke="none" fill="none"></path><g id="SvgjsG1604"><text id="SvgjsText1605" font-family="微软雅黑" text-anchor="middle" font-size="13px" width="83px" fill="#323232" font-weight="700" align="middle" lineHeight="125%" anchor="middle" family="微软雅黑" size="13px" weight="700" font-style="" opacity="1" y="4.375" transform="rotate(0)"><tspan id="SvgjsTspan1606" dy="16" x="51.5"><tspan id="SvgjsTspan1607" style="text-decoration:;">BackTrade</tspan></tspan></text></g><g id="SvgjsG1608"><text id="SvgjsText1609" font-family="微软雅黑" text-anchor="start" font-size="13px" width="83px" fill="#323232" font-weight="400" align="middle" lineHeight="125%" anchor="start" family="微软雅黑" size="13px" weight="400" font-style="" opacity="1" y="24.625" transform="rotate(0)"></text></g><g id="SvgjsG1610"><text id="SvgjsText1611" font-family="微软雅黑" text-anchor="start" font-size="13px" width="83px" fill="#323232" font-weight="400" align="middle" lineHeight="125%" anchor="start" family="微软雅黑" size="13px" weight="400" font-style="" opacity="1" y="35.125" transform="rotate(0)"></text></g></g><g id="SvgjsG1612"><path id="SvgjsPath1613" d="M136.01248168945312 308.3000030517578L190.51248168945312 308.3000030517578L190.51248168945312 184.0999984741211L242.4124816894531 184.0999984741211" stroke="#323232" stroke-width="2" fill="none" marker-end="url(#SvgjsMarker1614)"></path></g><g id="SvgjsG1616"><path id="SvgjsPath1617" d="M136.01248168945312 308.3000030517578L323.66249084472656 308.3000030517578L323.66249084472656 308.3000030517578L508.7125 308.3000030517578" stroke="#323232" stroke-width="2" fill="none" marker-end="url(#SvgjsMarker1618)"></path></g><g id="SvgjsG1620"><path id="SvgjsPath1621" d="M629.4124908447266 308.3000030517578L884.7124862670898 308.3000030517578L884.7124862670898 308.3000030517578L1137.4124816894532 308.3000030517578" stroke="#323232" stroke-width="2" fill="none" marker-end="url(#SvgjsMarker1622)"></path></g><g id="SvgjsG1624" transform="translate(504.41249084472656,166)"><path id="SvgjsPath1625" d="M 0 4Q 0 0 4 0L 134 0Q 138 0 138 4L 138 47Q 138 51 134 51L 4 51Q 0 51 0 47Z" stroke="rgba(50,50,50,1)" stroke-width="2" fill-opacity="1" fill="#ffffff"></path><path id="SvgjsPath1626" d="M 0 30L 138 30" stroke="rgba(50,50,50,1)" stroke-width="2" fill="none"></path><path id="SvgjsPath1627" d="M 0 0L 138 0L 138 51L 0 51Z" stroke="none" fill="none"></path><g id="SvgjsG1628"><text id="SvgjsText1629" font-family="微软雅黑" text-anchor="middle" font-size="13px" width="118px" fill="#323232" font-weight="700" align="middle" lineHeight="125%" anchor="middle" family="微软雅黑" size="13px" weight="700" font-style="" opacity="1" y="4.375" transform="rotate(0)"><tspan id="SvgjsTspan1630" dy="16" x="69"><tspan id="SvgjsTspan1631" style="text-decoration:;">Model</tspan></tspan></text></g><g id="SvgjsG1632"><text id="SvgjsText1633" font-family="微软雅黑" text-anchor="start" font-size="13px" width="118px" fill="#323232" font-weight="400" align="middle" lineHeight="125%" anchor="start" family="微软雅黑" size="13px" weight="400" font-style="" opacity="1" y="29.875" transform="rotate(0)"></text></g></g><g id="SvgjsG1634"><path id="SvgjsPath1635" d="M418.0124816894531 77L418.0124816894531 120.45000457763672L573.4124908447266 120.45000457763672L573.4124908447266 162.39999999999998" stroke="#323232" stroke-width="2" fill="none" marker-end="url(#SvgjsMarker1636)"></path></g><g id="SvgjsG1638"><path id="SvgjsPath1639" d="M573.4124908447266 77L573.4124908447266 120.45000457763672L573.4124908447266 120.45000457763672L573.4124908447266 162.39999999999998" stroke="#323232" stroke-width="2" fill="none" marker-end="url(#SvgjsMarker1640)"></path></g><g id="SvgjsG1642"><path id="SvgjsPath1643" d="M717.0124816894531 77L717.0124816894531 121.00000381469727L573.4124908447266 121.00000381469727L573.4124908447266 162.39999999999998" stroke="#323232" stroke-width="2" fill="none" marker-end="url(#SvgjsMarker1644)"></path></g><g id="SvgjsG1646"><path id="SvgjsPath1647" d="M357.0124816894531 191.5L430.21248626708984 191.5L430.21248626708984 191.5L500.81249084472654 191.5" stroke="#323232" stroke-width="2" fill="none" marker-end="url(#SvgjsMarker1648)"></path></g><g id="SvgjsG1650"><path id="SvgjsPath1651" d="M643.4124908447266 191.5L701.0124816894531 191.5L701.0124816894531 191.5L758.4124816894531 191.5" stroke="#323232" stroke-width="2" fill="none" marker-end="url(#SvgjsMarker1652)"></path></g><g id="SvgjsG1654"><path id="SvgjsPath1655" d="M888.0124816894531 191.5L916.5124816894531 191.5L916.5124816894531 191.5L942.4124816894531 191.5" stroke="#323232" stroke-width="2" fill="none" marker-end="url(#SvgjsMarker1656)"></path></g><g id="SvgjsG1658" transform="translate(185.01248168945312,452.3000030517578)"><path id="SvgjsPath1659" d="M 0 4Q 0 0 4 0L 216 0Q 220 0 220 4L 220 67Q 220 71 216 71L 4 71Q 0 71 0 67Z" stroke="rgba(50,50,50,1)" stroke-width="2" fill-opacity="1" fill="#ffffff"></path><path id="SvgjsPath1660" d="M 0 30L 220 30M 0 50.5L 220 50.5" stroke="rgba(50,50,50,1)" stroke-width="2" fill="none"></path><path id="SvgjsPath1661" d="M 0 0L 220 0L 220 71L 0 71Z" stroke="none" fill="none"></path><g id="SvgjsG1662"><text id="SvgjsText1663" font-family="微软雅黑" text-anchor="middle" font-size="13px" width="200px" fill="#323232" font-weight="700" align="middle" lineHeight="125%" anchor="middle" family="微软雅黑" size="13px" weight="700" font-style="" opacity="1" y="4.375" transform="rotate(0)"><tspan id="SvgjsTspan1664" dy="16" x="110"><tspan id="SvgjsTspan1665" style="text-decoration:;">DoubleAveragingStrategy</tspan></tspan></text></g><g id="SvgjsG1666"><text id="SvgjsText1667" font-family="微软雅黑" text-anchor="start" font-size="13px" width="200px" fill="#323232" font-weight="400" align="middle" lineHeight="125%" anchor="start" family="微软雅黑" size="13px" weight="400" font-style="" opacity="1" y="29.625" transform="rotate(0)"></text></g><g id="SvgjsG1668"><text id="SvgjsText1669" font-family="微软雅黑" text-anchor="start" font-size="13px" width="200px" fill="#323232" font-weight="400" align="middle" lineHeight="125%" anchor="start" family="微软雅黑" size="13px" weight="400" font-style="" opacity="1" y="50.125" transform="rotate(0)"></text></g></g><g id="SvgjsG1670" transform="translate(512.3125,283.3000030517578)"><path id="SvgjsPath1671" d="M 0 4Q 0 0 4 0L 112.09999084472656 0Q 116.09999084472656 0 116.09999084472656 4L 116.09999084472656 46Q 116.09999084472656 50 112.09999084472656 50L 4 50Q 0 50 0 46Z" stroke="rgba(50,50,50,1)" stroke-width="2" fill-opacity="1" fill="#ffffff"></path><path id="SvgjsPath1672" d="M 0 30L 116.09999084472656 30" stroke="rgba(50,50,50,1)" stroke-width="2" fill="none"></path><path id="SvgjsPath1673" d="M 0 0L 116.09999084472656 0L 116.09999084472656 50L 0 50Z" stroke="none" fill="none"></path><g id="SvgjsG1674"><text id="SvgjsText1675" font-family="微软雅黑" text-anchor="middle" font-size="13px" width="97px" fill="#323232" font-weight="700" align="middle" lineHeight="125%" anchor="middle" family="微软雅黑" size="13px" weight="700" font-style="" opacity="1" y="4.375" transform="rotate(0)"><tspan id="SvgjsTspan1676" dy="16" x="58.5"><tspan id="SvgjsTspan1677" style="text-decoration:;">Strategy</tspan></tspan></text></g><g id="SvgjsG1678"><text id="SvgjsText1679" font-family="微软雅黑" text-anchor="start" font-size="13px" width="97px" fill="#323232" font-weight="400" align="middle" lineHeight="125%" anchor="start" family="微软雅黑" size="13px" weight="400" font-style="" opacity="1" y="29.375" transform="rotate(0)"></text></g></g><g id="SvgjsG1680" transform="translate(422.41249084472656,451.8000030517578)"><path id="SvgjsPath1681" d="M 0 4Q 0 0 4 0L 181.59999084472656 0Q 185.59999084472656 0 185.59999084472656 4L 185.59999084472656 68Q 185.59999084472656 72 181.59999084472656 72L 4 72Q 0 72 0 68Z" stroke="rgba(50,50,50,1)" stroke-width="2" fill-opacity="1" fill="#ffffff"></path><path id="SvgjsPath1682" d="M 0 30L 185.59999084472656 30M 0 51L 185.59999084472656 51" stroke="rgba(50,50,50,1)" stroke-width="2" fill="none"></path><path id="SvgjsPath1683" d="M 0 0L 185.59999084472656 0L 185.59999084472656 72L 0 72Z" stroke="none" fill="none"></path><g id="SvgjsG1684"><text id="SvgjsText1685" font-family="微软雅黑" text-anchor="middle" font-size="13px" width="166px" fill="#323232" font-weight="700" align="middle" lineHeight="125%" anchor="middle" family="微软雅黑" size="13px" weight="700" font-style="" opacity="1" y="4.375" transform="rotate(0)"><tspan id="SvgjsTspan1686" dy="16" x="93"><tspan id="SvgjsTspan1687" style="text-decoration:;">KettlerTradingStrategy</tspan></tspan></text></g><g id="SvgjsG1688"><text id="SvgjsText1689" font-family="微软雅黑" text-anchor="start" font-size="13px" width="166px" fill="#323232" font-weight="400" align="middle" lineHeight="125%" anchor="start" family="微软雅黑" size="13px" weight="400" font-style="" opacity="1" y="29.875" transform="rotate(0)"></text></g><g id="SvgjsG1690"><text id="SvgjsText1691" font-family="微软雅黑" text-anchor="start" font-size="13px" width="166px" fill="#323232" font-weight="400" align="middle" lineHeight="125%" anchor="start" family="微软雅黑" size="13px" weight="400" font-style="" opacity="1" y="50.875" transform="rotate(0)"></text></g></g><g id="SvgjsG1692" transform="translate(618.0124816894531,454.3000030517578)"><path id="SvgjsPath1693" d="M 0 4Q 0 0 4 0L 194 0Q 198 0 198 4L 198 63Q 198 67 194 67L 4 67Q 0 67 0 63Z" stroke="rgba(50,50,50,1)" stroke-width="2" fill-opacity="1" fill="#ffffff"></path><path id="SvgjsPath1694" d="M 0 30L 198 30M 0 48.5L 198 48.5" stroke="rgba(50,50,50,1)" stroke-width="2" fill="none"></path><path id="SvgjsPath1695" d="M 0 0L 198 0L 198 67L 0 67Z" stroke="none" fill="none"></path><g id="SvgjsG1696"><text id="SvgjsText1697" font-family="微软雅黑" text-anchor="middle" font-size="13px" width="178px" fill="#323232" font-weight="700" align="middle" lineHeight="125%" anchor="middle" family="微软雅黑" size="13px" weight="700" font-style="" opacity="1" y="4.375" transform="rotate(0)"><tspan id="SvgjsTspan1698" dy="16" x="99"><tspan id="SvgjsTspan1699" style="text-decoration:;">SeaborneTradingStrategy</tspan></tspan></text></g><g id="SvgjsG1700"><text id="SvgjsText1701" font-family="微软雅黑" text-anchor="start" font-size="13px" width="178px" fill="#323232" font-weight="400" align="middle" lineHeight="125%" anchor="start" family="微软雅黑" size="13px" weight="400" font-style="" opacity="1" y="28.625" transform="rotate(0)"></text></g><g id="SvgjsG1702"><text id="SvgjsText1703" font-family="微软雅黑" text-anchor="start" font-size="13px" width="178px" fill="#323232" font-weight="400" align="middle" lineHeight="125%" anchor="start" family="微软雅黑" size="13px" weight="400" font-style="" opacity="1" y="47.125" transform="rotate(0)"></text></g></g><g id="SvgjsG1704" transform="translate(28.612472534179688,454.3000030517578)"><path id="SvgjsPath1705" d="M 0 4Q 0 0 4 0L 135 0Q 139 0 139 4L 139 63Q 139 67 135 67L 4 67Q 0 67 0 63Z" stroke="rgba(50,50,50,1)" stroke-width="2" fill-opacity="1" fill="#ffffff"></path><path id="SvgjsPath1706" d="M 0 30L 139 30M 0 48.5L 139 48.5" stroke="rgba(50,50,50,1)" stroke-width="2" fill="none"></path><path id="SvgjsPath1707" d="M 0 0L 139 0L 139 67L 0 67Z" stroke="none" fill="none"></path><g id="SvgjsG1708"><text id="SvgjsText1709" font-family="微软雅黑" text-anchor="middle" font-size="13px" width="119px" fill="#323232" font-weight="700" align="middle" lineHeight="125%" anchor="middle" family="微软雅黑" size="13px" weight="700" font-style="" opacity="1" y="4.375" transform="rotate(0)"><tspan id="SvgjsTspan1710" dy="16" x="69.5"><tspan id="SvgjsTspan1711" style="text-decoration:;">MFI Strategy</tspan></tspan></text></g><g id="SvgjsG1712"><text id="SvgjsText1713" font-family="微软雅黑" text-anchor="start" font-size="13px" width="119px" fill="#323232" font-weight="400" align="middle" lineHeight="125%" anchor="start" family="微软雅黑" size="13px" weight="400" font-style="" opacity="1" y="28.625" transform="rotate(0)"></text></g><g id="SvgjsG1714"><text id="SvgjsText1715" font-family="微软雅黑" text-anchor="start" font-size="13px" width="119px" fill="#323232" font-weight="400" align="middle" lineHeight="125%" anchor="start" family="微软雅黑" size="13px" weight="400" font-style="" opacity="1" y="47.125" transform="rotate(0)"></text></g></g><g id="SvgjsG1716" transform="translate(831.0124816894531,454.3000030517578)"><path id="SvgjsPath1717" d="M 0 4Q 0 0 4 0L 176 0Q 180 0 180 4L 180 63Q 180 67 176 67L 4 67Q 0 67 0 63Z" stroke="rgba(50,50,50,1)" stroke-width="2" fill-opacity="1" fill="#ffffff"></path><path id="SvgjsPath1718" d="M 0 30L 180 30M 0 48.5L 180 48.5" stroke="rgba(50,50,50,1)" stroke-width="2" fill="none"></path><path id="SvgjsPath1719" d="M 0 0L 180 0L 180 67L 0 67Z" stroke="none" fill="none"></path><g id="SvgjsG1720"><text id="SvgjsText1721" font-family="微软雅黑" text-anchor="middle" font-size="13px" width="160px" fill="#323232" font-weight="700" align="middle" lineHeight="125%" anchor="middle" family="微软雅黑" size="13px" weight="700" font-style="" opacity="1" y="4.375" transform="rotate(0)"><tspan id="SvgjsTspan1722" dy="16" x="90"><tspan id="SvgjsTspan1723" style="text-decoration:;">BollingerBandStrategy</tspan></tspan></text></g><g id="SvgjsG1724"><text id="SvgjsText1725" font-family="微软雅黑" text-anchor="start" font-size="13px" width="160px" fill="#323232" font-weight="400" align="middle" lineHeight="125%" anchor="start" family="微软雅黑" size="13px" weight="400" font-style="" opacity="1" y="28.625" transform="rotate(0)"></text></g><g id="SvgjsG1726"><text id="SvgjsText1727" font-family="微软雅黑" text-anchor="start" font-size="13px" width="160px" fill="#323232" font-weight="400" align="middle" lineHeight="125%" anchor="start" family="微软雅黑" size="13px" weight="400" font-style="" opacity="1" y="47.125" transform="rotate(0)"></text></g></g><g id="SvgjsG1728"><path id="SvgjsPath1729" d="M98.11247253417969 453.3000030517578L98.11247253417969 393.8000030517578L570.3624954223633 393.8000030517578L570.3624954223633 336.90000305175784" stroke="#323232" stroke-width="2" fill="none" marker-end="url(#SvgjsMarker1730)"></path></g><g id="SvgjsG1732"><path id="SvgjsPath1733" d="M295.0124816894531 451.3000030517578L295.0124816894531 392.8000030517578L570.3624954223633 392.8000030517578L570.3624954223633 336.90000305175784" stroke="#323232" stroke-width="2" fill="none" marker-end="url(#SvgjsMarker1734)"></path></g><g id="SvgjsG1736"><path id="SvgjsPath1737" d="M515.2124862670898 450.8000030517578L515.2124862670898 392.5500030517578L570.3624954223633 392.5500030517578L570.3624954223633 336.90000305175784" stroke="#323232" stroke-width="2" fill="none" marker-end="url(#SvgjsMarker1738)"></path></g><g id="SvgjsG1740"><path id="SvgjsPath1741" d="M717.0124816894531 453.3000030517578L717.0124816894531 393.8000030517578L570.3624954223633 393.8000030517578L570.3624954223633 336.90000305175784" stroke="#323232" stroke-width="2" fill="none" marker-end="url(#SvgjsMarker1742)"></path></g><g id="SvgjsG1744"><path id="SvgjsPath1745" d="M921.0124816894531 453.3000030517578L921.0124816894531 393.8000030517578L570.3624954223633 393.8000030517578L570.3624954223633 336.90000305175784" stroke="#323232" stroke-width="2" fill="none" marker-end="url(#SvgjsMarker1746)"></path></g><g id="SvgjsG1748" transform="translate(1048.0124816894531,486.3000030517578)"><path id="SvgjsPath1749" d="M 0 4Q 0 0 4 0L 163 0Q 167 0 167 4L 167 63Q 167 67 163 67L 4 67Q 0 67 0 63Z" stroke="rgba(50,50,50,1)" stroke-width="2" fill-opacity="1" fill="#ffffff"></path><path id="SvgjsPath1750" d="M 0 30L 167 30M 0 48.5L 167 48.5" stroke="rgba(50,50,50,1)" stroke-width="2" fill="none"></path><path id="SvgjsPath1751" d="M 0 0L 167 0L 167 67L 0 67Z" stroke="none" fill="none"></path><g id="SvgjsG1752"><text id="SvgjsText1753" font-family="微软雅黑" text-anchor="middle" font-size="13px" width="147px" fill="#323232" font-weight="700" align="middle" lineHeight="125%" anchor="middle" family="微软雅黑" size="13px" weight="700" font-style="" opacity="1" y="4.375" transform="rotate(0)"><tspan id="SvgjsTspan1754" dy="16" x="83.5"><tspan id="SvgjsTspan1755" style="text-decoration:;">CustomisedStrategy</tspan></tspan></text></g><g id="SvgjsG1756"><text id="SvgjsText1757" font-family="微软雅黑" text-anchor="start" font-size="13px" width="147px" fill="#323232" font-weight="400" align="middle" lineHeight="125%" anchor="start" family="微软雅黑" size="13px" weight="400" font-style="" opacity="1" y="28.625" transform="rotate(0)"></text></g><g id="SvgjsG1758"><text id="SvgjsText1759" font-family="微软雅黑" text-anchor="start" font-size="13px" width="147px" fill="#323232" font-weight="400" align="middle" lineHeight="125%" anchor="start" family="微软雅黑" size="13px" weight="400" font-style="" opacity="1" y="47.125" transform="rotate(0)"></text></g></g><g id="SvgjsG1760" transform="translate(1050.0124816894531,377.3000030517578)"><path id="SvgjsPath1761" d="M 0 4Q 0 0 4 0L 159 0Q 163 0 163 4L 163 73Q 163 77 159 77L 4 77Q 0 77 0 73Z" stroke="rgba(50,50,50,1)" stroke-width="2" fill-opacity="1" fill="#ffffff"></path><path id="SvgjsPath1762" d="M 0 30L 163 30M 0 53.5L 163 53.5" stroke="rgba(50,50,50,1)" stroke-width="2" fill="none"></path><path id="SvgjsPath1763" d="M 0 0L 163 0L 163 77L 0 77Z" stroke="none" fill="none"></path><g id="SvgjsG1764"><text id="SvgjsText1765" font-family="微软雅黑" text-anchor="middle" font-size="13px" width="143px" fill="#323232" font-weight="700" align="middle" lineHeight="125%" anchor="middle" family="微软雅黑" size="13px" weight="700" font-style="" opacity="1" y="4.375" transform="rotate(0)"><tspan id="SvgjsTspan1766" dy="16" x="81.5"><tspan id="SvgjsTspan1767" style="text-decoration:;">StrategyJudgement</tspan></tspan></text></g><g id="SvgjsG1768"><text id="SvgjsText1769" font-family="微软雅黑" text-anchor="start" font-size="13px" width="143px" fill="#323232" font-weight="400" align="middle" lineHeight="125%" anchor="start" family="微软雅黑" size="13px" weight="400" font-style="" opacity="1" y="31.125" transform="rotate(0)"></text></g><g id="SvgjsG1770"><text id="SvgjsText1771" font-family="微软雅黑" text-anchor="start" font-size="13px" width="143px" fill="#323232" font-weight="400" align="middle" lineHeight="125%" anchor="start" family="微软雅黑" size="13px" weight="400" font-style="" opacity="1" y="54.625" transform="rotate(0)"></text></g></g><g id="SvgjsG1772"><path id="SvgjsPath1773" d="M1131.5124816894531 485.3000030517578L1131.5124816894531 470.3000030517578L1131.5124816894531 470.3000030517578L1131.5124816894531 457.90000305175784" stroke="#323232" stroke-width="2" fill="none" marker-end="url(#SvgjsMarker1774)"></path></g><g id="SvgjsG1776"><path id="SvgjsPath1777" d="M1131.5124816894531 376.3000030517578L1131.5124816894531 355.3000030517578L618.0124816894531 355.3000030517578L618.0124816894531 336.90000305175784" stroke="#323232" stroke-width="2" fill="none" marker-end="url(#SvgjsMarker1778)"></path></g><g id="SvgjsG1780"><path id="SvgjsPath1781" d="M1015.0124816894531 218L1015.0124816894531 250.49923307784366L619.7023901280982 250.49923307784366L619.7023901280982 280.3984661556873" stroke="#323232" stroke-width="2" fill="none" marker-end="url(#SvgjsMarker1782)"></path></g></svg>