<svg id="SvgjsSvg1006" width="1269.0124969482422" height="579.3000030517578" xmlns="http://www.w3.org/2000/svg" version="1.1" xmlns:xlink="http://www.w3.org/1999/xlink" xmlns:svgjs="http://svgjs.com/svgjs"><defs id="SvgjsDefs1007"><marker id="SvgjsMarker1106" markerWidth="12" markerHeight="8" refX="9" refY="4" viewBox="0 0 12 8" orient="auto" markerUnits="userSpaceOnUse" stroke-dasharray="0,0"><path id="SvgjsPath1107" d="M0,0 L12,4 L0,8 L0,0" fill="#323232" stroke="#323232" stroke-width="1"></path></marker><marker id="SvgjsMarker1110" markerWidth="12" markerHeight="8" refX="9" refY="4" viewBox="0 0 12 8" orient="auto" markerUnits="userSpaceOnUse" stroke-dasharray="0,0"><path id="SvgjsPath1111" d="M0,0 L12,4 L0,8 L0,0" fill="#323232" stroke="#323232" stroke-width="1"></path></marker><marker id="SvgjsMarker1114" markerWidth="12" markerHeight="8" refX="9" refY="4" viewBox="0 0 12 8" orient="auto" markerUnits="userSpaceOnUse" stroke-dasharray="0,0"><path id="SvgjsPath1115" d="M0,0 L12,4 L0,8 L0,0" fill="#323232" stroke="#323232" stroke-width="1"></path></marker><marker id="SvgjsMarker1128" markerWidth="14" markerHeight="12" refX="16" refY="6" viewBox="0 0 14 12" orient="auto" markerUnits="userSpaceOnUse" stroke-dasharray="0,0"><path id="SvgjsPath1129" d="M1,1 L14,6 L1,11L1,1" fill="#ffffff" stroke="#323232" stroke-width="1"></path></marker><marker id="SvgjsMarker1132" markerWidth="14" markerHeight="12" refX="16" refY="6" viewBox="0 0 14 12" orient="auto" markerUnits="userSpaceOnUse" stroke-dasharray="0,0"><path id="SvgjsPath1133" d="M1,1 L14,6 L1,11L1,1" fill="#ffffff" stroke="#323232" stroke-width="1"></path></marker><marker id="SvgjsMarker1136" markerWidth="14" markerHeight="12" refX="16" refY="6" viewBox="0 0 14 12" orient="auto" markerUnits="userSpaceOnUse" stroke-dasharray="0,0"><path id="SvgjsPath1137" d="M1,1 L14,6 L1,11L1,1" fill="#ffffff" stroke="#323232" stroke-width="1"></path></marker><marker id="SvgjsMarker1140" markerWidth="12" markerHeight="8" refX="9" refY="4" viewBox="0 0 12 8" orient="auto" markerUnits="userSpaceOnUse" stroke-dasharray="0,0"><path id="SvgjsPath1141" d="M0,0 L12,4 L0,8 L0,0" fill="#323232" stroke="#323232" stroke-width="1"></path></marker><marker id="SvgjsMarker1144" markerWidth="12" markerHeight="8" refX="9" refY="4" viewBox="0 0 12 8" orient="auto" markerUnits="userSpaceOnUse" stroke-dasharray="0,0"><path id="SvgjsPath1145" d="M0,0 L12,4 L0,8 L0,0" fill="#323232" stroke="#323232" stroke-width="1"></path></marker><marker id="SvgjsMarker1148" markerWidth="12" markerHeight="8" refX="9" refY="4" viewBox="0 0 12 8" orient="auto" markerUnits="userSpaceOnUse" stroke-dasharray="0,0"><path id="SvgjsPath1149" d="M0,0 L12,4 L0,8 L0,0" fill="#323232" stroke="#323232" stroke-width="1"></path></marker><marker id="SvgjsMarker1222" markerWidth="14" markerHeight="12" refX="16" refY="6" viewBox="0 0 14 12" orient="auto" markerUnits="userSpaceOnUse" stroke-dasharray="0,0"><path id="SvgjsPath1223" d="M1,1 L14,6 L1,11L1,1" fill="#ffffff" stroke="#323232" stroke-width="1"></path></marker><marker id="SvgjsMarker1226" markerWidth="14" markerHeight="12" refX="16" refY="6" viewBox="0 0 14 12" orient="auto" markerUnits="userSpaceOnUse" stroke-dasharray="0,0"><path id="SvgjsPath1227" d="M1,1 L14,6 L1,11L1,1" fill="#ffffff" stroke="#323232" stroke-width="1"></path></marker><marker id="SvgjsMarker1230" markerWidth="14" markerHeight="12" refX="16" refY="6" viewBox="0 0 14 12" orient="auto" markerUnits="userSpaceOnUse" stroke-dasharray="0,0"><path id="SvgjsPath1231" d="M1,1 L14,6 L1,11L1,1" fill="#ffffff" stroke="#323232" stroke-width="1"></path></marker><marker id="SvgjsMarker1234" markerWidth="14" markerHeight="12" refX="16" refY="6" viewBox="0 0 14 12" orient="auto" markerUnits="userSpaceOnUse" stroke-dasharray="0,0"><path id="SvgjsPath1235" d="M1,1 L14,6 L1,11L1,1" fill="#ffffff" stroke="#323232" stroke-width="1"></path></marker><marker id="SvgjsMarker1238" markerWidth="14" markerHeight="12" refX="16" refY="6" viewBox="0 0 14 12" orient="auto" markerUnits="userSpaceOnUse" stroke-dasharray="0,0"><path id="SvgjsPath1239" d="M1,1 L14,6 L1,11L1,1" fill="#ffffff" stroke="#323232" stroke-width="1"></path></marker><marker id="SvgjsMarker1266" markerWidth="12" markerHeight="8" refX="9" refY="4" viewBox="0 0 12 8" orient="auto" markerUnits="userSpaceOnUse" stroke-dasharray="0,0"><path id="SvgjsPath1267" d="M0,0 L12,4 L0,8 L0,0" fill="#323232" stroke="#323232" stroke-width="1"></path></marker><marker id="SvgjsMarker1270" markerWidth="14" markerHeight="12" refX="16" refY="6" viewBox="0 0 14 12" orient="auto" markerUnits="userSpaceOnUse" stroke-dasharray="0,0"><path id="SvgjsPath1271" d="M1,1 L14,6 L1,11L1,1" fill="#ffffff" stroke="#323232" stroke-width="1"></path></marker><marker id="SvgjsMarker1274" markerWidth="12" markerHeight="8" refX="9" refY="4" viewBox="0 0 12 8" orient="auto" markerUnits="userSpaceOnUse" stroke-dasharray="0,0"><path id="SvgjsPath1275" d="M0,0 L12,4 L0,8 L0,0" fill="#323232" stroke="#323232" stroke-width="1"></path></marker></defs><g id="SvgjsG1008" transform="translate(246.0124969482422,161.5)"><path id="SvgjsPath1009" d="M 0 4Q 0 0 4 0L 106 0Q 110 0 110 4L 110 56Q 110 60 106 60L 4 60Q 0 60 0 56Z" stroke="rgba(50,50,50,1)" stroke-width="1" fill-opacity="1" fill="#ffffff"></path><path id="SvgjsPath1010" d="M 0 30L 110 30M 0 45L 110 45" stroke="rgba(50,50,50,1)" stroke-width="1" fill="none"></path><path id="SvgjsPath1011" d="M 0 0L 110 0L 110 60L 0 60Z" stroke="none" fill="none"></path><g id="SvgjsG1012"><text id="SvgjsText1013" font-family="微软雅黑" text-anchor="middle" font-size="13px" width="90px" fill="#323232" font-weight="700" align="middle" lineHeight="125%" anchor="middle" family="微软雅黑" size="13px" weight="700" font-style="" opacity="1" y="4.375" transform="rotate(0)"><tspan id="SvgjsTspan1014" dy="16" x="55"><tspan id="SvgjsTspan1015" style="text-decoration:;">Dataloader</tspan></tspan></text></g><g id="SvgjsG1016"><text id="SvgjsText1017" font-family="微软雅黑" text-anchor="start" font-size="13px" width="90px" fill="#323232" font-weight="400" align="middle" lineHeight="125%" anchor="start" family="微软雅黑" size="13px" weight="400" font-style="" opacity="1" y="26.875" transform="rotate(0)"></text></g><g id="SvgjsG1018"><text id="SvgjsText1019" font-family="微软雅黑" text-anchor="start" font-size="13px" width="90px" fill="#323232" font-weight="400" align="middle" lineHeight="125%" anchor="start" family="微软雅黑" size="13px" weight="400" font-style="" opacity="1" y="41.875" transform="rotate(0)"></text></g></g><g id="SvgjsG1020" transform="translate(762.0124969482422,166)"><path id="SvgjsPath1021" d="M 0 4Q 0 0 4 0L 121 0Q 125 0 125 4L 125 47Q 125 51 121 51L 4 51Q 0 51 0 47Z" stroke="rgba(50,50,50,1)" stroke-width="1" fill-opacity="1" fill="#ffffff"></path><path id="SvgjsPath1022" d="M 0 30L 125 30M 0 40.5L 125 40.5" stroke="rgba(50,50,50,1)" stroke-width="1" fill="none"></path><path id="SvgjsPath1023" d="M 0 0L 125 0L 125 51L 0 51Z" stroke="none" fill="none"></path><g id="SvgjsG1024"><text id="SvgjsText1025" font-family="微软雅黑" text-anchor="middle" font-size="13px" width="105px" fill="#323232" font-weight="700" align="middle" lineHeight="125%" anchor="middle" family="微软雅黑" size="13px" weight="700" font-style="" opacity="1" y="4.375" transform="rotate(0)"><tspan id="SvgjsTspan1026" dy="16" x="62.5"><tspan id="SvgjsTspan1027" style="text-decoration:;">Train</tspan></tspan></text></g><g id="SvgjsG1028"><text id="SvgjsText1029" font-family="微软雅黑" text-anchor="start" font-size="13px" width="105px" fill="#323232" font-weight="400" align="middle" lineHeight="125%" anchor="start" family="微软雅黑" size="13px" weight="400" font-style="" opacity="1" y="24.625" transform="rotate(0)"></text></g><g id="SvgjsG1030"><text id="SvgjsText1031" font-family="微软雅黑" text-anchor="start" font-size="13px" width="105px" fill="#323232" font-weight="400" align="middle" lineHeight="125%" anchor="start" family="微软雅黑" size="13px" weight="400" font-style="" opacity="1" y="35.125" transform="rotate(0)"></text></g></g><g id="SvgjsG1032" transform="translate(662.4125061035156,25)"><path id="SvgjsPath1033" d="M 0 4Q 0 0 4 0L 106 0Q 110 0 110 4L 110 47Q 110 51 106 51L 4 51Q 0 51 0 47Z" stroke="rgba(50,50,50,1)" stroke-width="1" fill-opacity="1" fill="#ffffff"></path><path id="SvgjsPath1034" d="M 0 30L 110 30M 0 40.5L 110 40.5" stroke="rgba(50,50,50,1)" stroke-width="1" fill="none"></path><path id="SvgjsPath1035" d="M 0 0L 110 0L 110 51L 0 51Z" stroke="none" fill="none"></path><g id="SvgjsG1036"><text id="SvgjsText1037" font-family="微软雅黑" text-anchor="middle" font-size="13px" width="90px" fill="#323232" font-weight="700" align="middle" lineHeight="125%" anchor="middle" family="微软雅黑" size="13px" weight="700" font-style="" opacity="1" y="4.375" transform="rotate(0)"><tspan id="SvgjsTspan1038" dy="16" x="55"><tspan id="SvgjsTspan1039" style="text-decoration:;">RNN</tspan></tspan></text></g><g id="SvgjsG1040"><text id="SvgjsText1041" font-family="微软雅黑" text-anchor="start" font-size="13px" width="90px" fill="#323232" font-weight="400" align="middle" lineHeight="125%" anchor="start" family="微软雅黑" size="13px" weight="400" font-style="" opacity="1" y="24.625" transform="rotate(0)"></text></g><g id="SvgjsG1042"><text id="SvgjsText1043" font-family="微软雅黑" text-anchor="start" font-size="13px" width="90px" fill="#323232" font-weight="400" align="middle" lineHeight="125%" anchor="start" family="微软雅黑" size="13px" weight="400" font-style="" opacity="1" y="35.125" transform="rotate(0)"></text></g></g><g id="SvgjsG1044" transform="translate(518.4125061035156,25)"><path id="SvgjsPath1045" d="M 0 4Q 0 0 4 0L 106 0Q 110 0 110 4L 110 47Q 110 51 106 51L 4 51Q 0 51 0 47Z" stroke="rgba(50,50,50,1)" stroke-width="1" fill-opacity="1" fill="#ffffff"></path><path id="SvgjsPath1046" d="M 0 30L 110 30M 0 40.5L 110 40.5" stroke="rgba(50,50,50,1)" stroke-width="1" fill="none"></path><path id="SvgjsPath1047" d="M 0 0L 110 0L 110 51L 0 51Z" stroke="none" fill="none"></path><g id="SvgjsG1048"><text id="SvgjsText1049" font-family="微软雅黑" text-anchor="middle" font-size="13px" width="90px" fill="#323232" font-weight="700" align="middle" lineHeight="125%" anchor="middle" family="微软雅黑" size="13px" weight="700" font-style="" opacity="1" y="4.375" transform="rotate(0)"><tspan id="SvgjsTspan1050" dy="16" x="55"><tspan id="SvgjsTspan1051" style="text-decoration:;">LSTM</tspan></tspan></text></g><g id="SvgjsG1052"><text id="SvgjsText1053" font-family="微软雅黑" text-anchor="start" font-size="13px" width="90px" fill="#323232" font-weight="400" align="middle" lineHeight="125%" anchor="start" family="微软雅黑" size="13px" weight="400" font-style="" opacity="1" y="24.625" transform="rotate(0)"></text></g><g id="SvgjsG1054"><text id="SvgjsText1055" font-family="微软雅黑" text-anchor="start" font-size="13px" width="90px" fill="#323232" font-weight="400" align="middle" lineHeight="125%" anchor="start" family="微软雅黑" size="13px" weight="400" font-style="" opacity="1" y="35.125" transform="rotate(0)"></text></g></g><g id="SvgjsG1056" transform="translate(363.0124969482422,25)"><path id="SvgjsPath1057" d="M 0 4Q 0 0 4 0L 106 0Q 110 0 110 4L 110 47Q 110 51 106 51L 4 51Q 0 51 0 47Z" stroke="rgba(50,50,50,1)" stroke-width="1" fill-opacity="1" fill="#ffffff"></path><path id="SvgjsPath1058" d="M 0 30L 110 30M 0 40.5L 110 40.5" stroke="rgba(50,50,50,1)" stroke-width="1" fill="none"></path><path id="SvgjsPath1059" d="M 0 0L 110 0L 110 51L 0 51Z" stroke="none" fill="none"></path><g id="SvgjsG1060"><text id="SvgjsText1061" font-family="微软雅黑" text-anchor="middle" font-size="13px" width="90px" fill="#323232" font-weight="700" align="middle" lineHeight="125%" anchor="middle" family="微软雅黑" size="13px" weight="700" font-style="" opacity="1" y="4.375" transform="rotate(0)"><tspan id="SvgjsTspan1062" dy="16" x="55"><tspan id="SvgjsTspan1063" style="text-decoration:;">GRU</tspan></tspan></text></g><g id="SvgjsG1064"><text id="SvgjsText1065" font-family="微软雅黑" text-anchor="start" font-size="13px" width="90px" fill="#323232" font-weight="400" align="middle" lineHeight="125%" anchor="start" family="微软雅黑" size="13px" weight="400" font-style="" opacity="1" y="24.625" transform="rotate(0)"></text></g><g id="SvgjsG1066"><text id="SvgjsText1067" font-family="微软雅黑" text-anchor="start" font-size="13px" width="90px" fill="#323232" font-weight="400" align="middle" lineHeight="125%" anchor="start" family="微软雅黑" size="13px" weight="400" font-style="" opacity="1" y="35.125" transform="rotate(0)"></text></g></g><g id="SvgjsG1068" transform="translate(25.012496948242188,278.5)"><path id="SvgjsPath1069" d="M 0 4Q 0 0 4 0L 106 0Q 110 0 110 4L 110 56Q 110 60 106 60L 4 60Q 0 60 0 56Z" stroke="rgba(50,50,50,1)" stroke-width="1" fill-opacity="1" fill="#ffffff"></path><path id="SvgjsPath1070" d="M 0 30L 110 30M 0 45L 110 45" stroke="rgba(50,50,50,1)" stroke-width="1" fill="none"></path><path id="SvgjsPath1071" d="M 0 0L 110 0L 110 60L 0 60Z" stroke="none" fill="none"></path><g id="SvgjsG1072"><text id="SvgjsText1073" font-family="微软雅黑" text-anchor="middle" font-size="13px" width="90px" fill="#323232" font-weight="700" align="middle" lineHeight="125%" anchor="middle" family="微软雅黑" size="13px" weight="700" font-style="" opacity="1" y="4.375" transform="rotate(0)"><tspan id="SvgjsTspan1074" dy="16" x="55"><tspan id="SvgjsTspan1075" style="text-decoration:;">DataReader</tspan></tspan></text></g><g id="SvgjsG1076"><text id="SvgjsText1077" font-family="微软雅黑" text-anchor="start" font-size="13px" width="90px" fill="#323232" font-weight="400" align="middle" lineHeight="125%" anchor="start" family="微软雅黑" size="13px" weight="400" font-style="" opacity="1" y="26.875" transform="rotate(0)"></text></g><g id="SvgjsG1078"><text id="SvgjsText1079" font-family="微软雅黑" text-anchor="start" font-size="13px" width="90px" fill="#323232" font-weight="400" align="middle" lineHeight="125%" anchor="start" family="微软雅黑" size="13px" weight="400" font-style="" opacity="1" y="41.875" transform="rotate(0)"></text></g></g><g id="SvgjsG1080" transform="translate(946.0124969482422,166)"><path id="SvgjsPath1081" d="M 0 4Q 0 0 4 0L 135 0Q 139 0 139 4L 139 47Q 139 51 135 51L 4 51Q 0 51 0 47Z" stroke="rgba(50,50,50,1)" stroke-width="1" fill-opacity="1" fill="#ffffff"></path><path id="SvgjsPath1082" d="M 0 30L 139 30M 0 40.5L 139 40.5" stroke="rgba(50,50,50,1)" stroke-width="1" fill="none"></path><path id="SvgjsPath1083" d="M 0 0L 139 0L 139 51L 0 51Z" stroke="none" fill="none"></path><g id="SvgjsG1084"><text id="SvgjsText1085" font-family="微软雅黑" text-anchor="middle" font-size="13px" width="119px" fill="#323232" font-weight="700" align="middle" lineHeight="125%" anchor="middle" family="微软雅黑" size="13px" weight="700" font-style="" opacity="1" y="4.375" transform="rotate(0)"><tspan id="SvgjsTspan1086" dy="16" x="69.5"><tspan id="SvgjsTspan1087" style="text-decoration:;">SaveModel</tspan></tspan></text></g><g id="SvgjsG1088"><text id="SvgjsText1089" font-family="微软雅黑" text-anchor="start" font-size="13px" width="119px" fill="#323232" font-weight="400" align="middle" lineHeight="125%" anchor="start" family="微软雅黑" size="13px" weight="400" font-style="" opacity="1" y="24.625" transform="rotate(0)"></text></g><g id="SvgjsG1090"><text id="SvgjsText1091" font-family="微软雅黑" text-anchor="start" font-size="13px" width="119px" fill="#323232" font-weight="400" align="middle" lineHeight="125%" anchor="start" family="微软雅黑" size="13px" weight="400" font-style="" opacity="1" y="35.125" transform="rotate(0)"></text></g></g><g id="SvgjsG1092" transform="translate(1141.0124969482422,283)"><path id="SvgjsPath1093" d="M 0 4Q 0 0 4 0L 99 0Q 103 0 103 4L 103 47Q 103 51 99 51L 4 51Q 0 51 0 47Z" stroke="rgba(50,50,50,1)" stroke-width="1" fill-opacity="1" fill="#ffffff"></path><path id="SvgjsPath1094" d="M 0 30L 103 30M 0 40.5L 103 40.5" stroke="rgba(50,50,50,1)" stroke-width="1" fill="none"></path><path id="SvgjsPath1095" d="M 0 0L 103 0L 103 51L 0 51Z" stroke="none" fill="none"></path><g id="SvgjsG1096"><text id="SvgjsText1097" font-family="微软雅黑" text-anchor="middle" font-size="13px" width="83px" fill="#323232" font-weight="700" align="middle" lineHeight="125%" anchor="middle" family="微软雅黑" size="13px" weight="700" font-style="" opacity="1" y="4.375" transform="rotate(0)"><tspan id="SvgjsTspan1098" dy="16" x="51.5"><tspan id="SvgjsTspan1099" style="text-decoration:;">BackTrade</tspan></tspan></text></g><g id="SvgjsG1100"><text id="SvgjsText1101" font-family="微软雅黑" text-anchor="start" font-size="13px" width="83px" fill="#323232" font-weight="400" align="middle" lineHeight="125%" anchor="start" family="微软雅黑" size="13px" weight="400" font-style="" opacity="1" y="24.625" transform="rotate(0)"></text></g><g id="SvgjsG1102"><text id="SvgjsText1103" font-family="微软雅黑" text-anchor="start" font-size="13px" width="83px" fill="#323232" font-weight="400" align="middle" lineHeight="125%" anchor="start" family="微软雅黑" size="13px" weight="400" font-style="" opacity="1" y="35.125" transform="rotate(0)"></text></g></g><g id="SvgjsG1104"><path id="SvgjsPath1105" d="M135.5124969482422 308.5L190.5124969482422 308.5L190.5124969482422 184.0999984741211L244.21249694824218 184.0999984741211" stroke="#323232" stroke-width="1" fill="none" marker-end="url(#SvgjsMarker1106)"></path></g><g id="SvgjsG1108"><path id="SvgjsPath1109" d="M135.5124969482422 308.5L323.6625061035156 308.5L323.6625061035156 308.5L513.5625106811524 308.5" stroke="#323232" stroke-width="1" fill="none" marker-end="url(#SvgjsMarker1110)"></path></g><g id="SvgjsG1112"><path id="SvgjsPath1113" d="M631.9625015258789 308.5L884.7125015258789 308.5L884.7125015258789 308.5L1139.2124969482422 308.5" stroke="#323232" stroke-width="1" fill="none" marker-end="url(#SvgjsMarker1114)"></path></g><g id="SvgjsG1116" transform="translate(503.9125061035156,166)"><path id="SvgjsPath1117" d="M 0 4Q 0 0 4 0L 135 0Q 139 0 139 4L 139 47Q 139 51 135 51L 4 51Q 0 51 0 47Z" stroke="rgba(50,50,50,1)" stroke-width="1" fill-opacity="1" fill="#ffffff"></path><path id="SvgjsPath1118" d="M 0 30L 139 30" stroke="rgba(50,50,50,1)" stroke-width="1" fill="none"></path><path id="SvgjsPath1119" d="M 0 0L 139 0L 139 51L 0 51Z" stroke="none" fill="none"></path><g id="SvgjsG1120"><text id="SvgjsText1121" font-family="微软雅黑" text-anchor="middle" font-size="13px" width="119px" fill="#323232" font-weight="700" align="middle" lineHeight="125%" anchor="middle" family="微软雅黑" size="13px" weight="700" font-style="" opacity="1" y="4.375" transform="rotate(0)"><tspan id="SvgjsTspan1122" dy="16" x="69.5"><tspan id="SvgjsTspan1123" style="text-decoration:;">Model</tspan></tspan></text></g><g id="SvgjsG1124"><text id="SvgjsText1125" font-family="微软雅黑" text-anchor="start" font-size="13px" width="119px" fill="#323232" font-weight="400" align="middle" lineHeight="125%" anchor="start" family="微软雅黑" size="13px" weight="400" font-style="" opacity="1" y="29.875" transform="rotate(0)"></text></g></g><g id="SvgjsG1126"><path id="SvgjsPath1127" d="M418.0124969482422 76.5L418.0124969482422 120.45000457763672L573.4125061035156 120.45000457763672L573.4125061035156 164.2" stroke="#323232" stroke-width="1" fill="none" marker-end="url(#SvgjsMarker1128)"></path></g><g id="SvgjsG1130"><path id="SvgjsPath1131" d="M573.4125061035156 76.5L573.4125061035156 120.45000457763672L573.4125061035156 120.45000457763672L573.4125061035156 164.2" stroke="#323232" stroke-width="1" fill="none" marker-end="url(#SvgjsMarker1132)"></path></g><g id="SvgjsG1134"><path id="SvgjsPath1135" d="M717.4125061035156 76.5L717.4125061035156 121.00000381469727L573.4125061035156 121.00000381469727L573.4125061035156 164.2" stroke="#323232" stroke-width="1" fill="none" marker-end="url(#SvgjsMarker1136)"></path></g><g id="SvgjsG1138"><path id="SvgjsPath1139" d="M356.5124969482422 191.5L430.2125015258789 191.5L430.2125015258789 191.5L502.11250610351567 191.5" stroke="#323232" stroke-width="1" fill="none" marker-end="url(#SvgjsMarker1140)"></path></g><g id="SvgjsG1142"><path id="SvgjsPath1143" d="M643.4125061035156 191.5L701.0124969482422 191.5L701.0124969482422 191.5L760.2124969482422 191.5" stroke="#323232" stroke-width="1" fill="none" marker-end="url(#SvgjsMarker1144)"></path></g><g id="SvgjsG1146"><path id="SvgjsPath1147" d="M887.5124969482422 191.5L916.5124969482422 191.5L916.5124969482422 191.5L944.2124969482422 191.5" stroke="#323232" stroke-width="1" fill="none" marker-end="url(#SvgjsMarker1148)"></path></g><g id="SvgjsG1150" transform="translate(185.0124969482422,454.5)"><path id="SvgjsPath1151" d="M 0 4Q 0 0 4 0L 216 0Q 220 0 220 4L 220 64Q 220 68 216 68L 4 68Q 0 68 0 64Z" stroke="rgba(50,50,50,1)" stroke-width="1" fill-opacity="1" fill="#ffffff"></path><path id="SvgjsPath1152" d="M 0 30L 220 30M 0 49L 220 49" stroke="rgba(50,50,50,1)" stroke-width="1" fill="none"></path><path id="SvgjsPath1153" d="M 0 0L 220 0L 220 68L 0 68Z" stroke="none" fill="none"></path><g id="SvgjsG1154"><text id="SvgjsText1155" font-family="微软雅黑" text-anchor="middle" font-size="13px" width="200px" fill="#323232" font-weight="700" align="middle" lineHeight="125%" anchor="middle" family="微软雅黑" size="13px" weight="700" font-style="" opacity="1" y="4.375" transform="rotate(0)"><tspan id="SvgjsTspan1156" dy="16" x="110"><tspan id="SvgjsTspan1157" style="text-decoration:;">DoubleAveragingStrategy</tspan></tspan></text></g><g id="SvgjsG1158"><text id="SvgjsText1159" font-family="微软雅黑" text-anchor="start" font-size="13px" width="200px" fill="#323232" font-weight="400" align="middle" lineHeight="125%" anchor="start" family="微软雅黑" size="13px" weight="400" font-style="" opacity="1" y="28.875" transform="rotate(0)"></text></g><g id="SvgjsG1160"><text id="SvgjsText1161" font-family="微软雅黑" text-anchor="start" font-size="13px" width="200px" fill="#323232" font-weight="400" align="middle" lineHeight="125%" anchor="start" family="微软雅黑" size="13px" weight="400" font-style="" opacity="1" y="47.875" transform="rotate(0)"></text></g></g><g id="SvgjsG1162" transform="translate(515.3625106811523,283)"><path id="SvgjsPath1163" d="M 0 4Q 0 0 4 0L 112.09999084472656 0Q 116.09999084472656 0 116.09999084472656 4L 116.09999084472656 47Q 116.09999084472656 51 112.09999084472656 51L 4 51Q 0 51 0 47Z" stroke="rgba(50,50,50,1)" stroke-width="1" fill-opacity="1" fill="#ffffff"></path><path id="SvgjsPath1164" d="M 0 30L 116.09999084472656 30" stroke="rgba(50,50,50,1)" stroke-width="1" fill="none"></path><path id="SvgjsPath1165" d="M 0 0L 116.09999084472656 0L 116.09999084472656 51L 0 51Z" stroke="none" fill="none"></path><g id="SvgjsG1166"><text id="SvgjsText1167" font-family="微软雅黑" text-anchor="middle" font-size="13px" width="97px" fill="#323232" font-weight="700" align="middle" lineHeight="125%" anchor="middle" family="微软雅黑" size="13px" weight="700" font-style="" opacity="1" y="4.375" transform="rotate(0)"><tspan id="SvgjsTspan1168" dy="16" x="58.5"><tspan id="SvgjsTspan1169" style="text-decoration:;">Strategy</tspan></tspan></text></g><g id="SvgjsG1170"><text id="SvgjsText1171" font-family="微软雅黑" text-anchor="start" font-size="13px" width="97px" fill="#323232" font-weight="400" align="middle" lineHeight="125%" anchor="start" family="微软雅黑" size="13px" weight="400" font-style="" opacity="1" y="29.875" transform="rotate(0)"></text></g></g><g id="SvgjsG1172" transform="translate(422.4125061035156,451)"><path id="SvgjsPath1173" d="M 0 4Q 0 0 4 0L 181.59999084472656 0Q 185.59999084472656 0 185.59999084472656 4L 185.59999084472656 71Q 185.59999084472656 75 181.59999084472656 75L 4 75Q 0 75 0 71Z" stroke="rgba(50,50,50,1)" stroke-width="1" fill-opacity="1" fill="#ffffff"></path><path id="SvgjsPath1174" d="M 0 30L 185.59999084472656 30M 0 52.5L 185.59999084472656 52.5" stroke="rgba(50,50,50,1)" stroke-width="1" fill="none"></path><path id="SvgjsPath1175" d="M 0 0L 185.59999084472656 0L 185.59999084472656 75L 0 75Z" stroke="none" fill="none"></path><g id="SvgjsG1176"><text id="SvgjsText1177" font-family="微软雅黑" text-anchor="middle" font-size="13px" width="166px" fill="#323232" font-weight="700" align="middle" lineHeight="125%" anchor="middle" family="微软雅黑" size="13px" weight="700" font-style="" opacity="1" y="4.375" transform="rotate(0)"><tspan id="SvgjsTspan1178" dy="16" x="93"><tspan id="SvgjsTspan1179" style="text-decoration:;">KettlerTradingStrategy</tspan></tspan></text></g><g id="SvgjsG1180"><text id="SvgjsText1181" font-family="微软雅黑" text-anchor="start" font-size="13px" width="166px" fill="#323232" font-weight="400" align="middle" lineHeight="125%" anchor="start" family="微软雅黑" size="13px" weight="400" font-style="" opacity="1" y="30.625" transform="rotate(0)"></text></g><g id="SvgjsG1182"><text id="SvgjsText1183" font-family="微软雅黑" text-anchor="start" font-size="13px" width="166px" fill="#323232" font-weight="400" align="middle" lineHeight="125%" anchor="start" family="微软雅黑" size="13px" weight="400" font-style="" opacity="1" y="53.125" transform="rotate(0)"></text></g></g><g id="SvgjsG1184" transform="translate(618.4125061035156,454.5)"><path id="SvgjsPath1185" d="M 0 4Q 0 0 4 0L 194 0Q 198 0 198 4L 198 64Q 198 68 194 68L 4 68Q 0 68 0 64Z" stroke="rgba(50,50,50,1)" stroke-width="1" fill-opacity="1" fill="#ffffff"></path><path id="SvgjsPath1186" d="M 0 30L 198 30M 0 49L 198 49" stroke="rgba(50,50,50,1)" stroke-width="1" fill="none"></path><path id="SvgjsPath1187" d="M 0 0L 198 0L 198 68L 0 68Z" stroke="none" fill="none"></path><g id="SvgjsG1188"><text id="SvgjsText1189" font-family="微软雅黑" text-anchor="middle" font-size="13px" width="178px" fill="#323232" font-weight="700" align="middle" lineHeight="125%" anchor="middle" family="微软雅黑" size="13px" weight="700" font-style="" opacity="1" y="4.375" transform="rotate(0)"><tspan id="SvgjsTspan1190" dy="16" x="99"><tspan id="SvgjsTspan1191" style="text-decoration:;">SeaborneTradingStrategy</tspan></tspan></text></g><g id="SvgjsG1192"><text id="SvgjsText1193" font-family="微软雅黑" text-anchor="start" font-size="13px" width="178px" fill="#323232" font-weight="400" align="middle" lineHeight="125%" anchor="start" family="微软雅黑" size="13px" weight="400" font-style="" opacity="1" y="28.875" transform="rotate(0)"></text></g><g id="SvgjsG1194"><text id="SvgjsText1195" font-family="微软雅黑" text-anchor="start" font-size="13px" width="178px" fill="#323232" font-weight="400" align="middle" lineHeight="125%" anchor="start" family="微软雅黑" size="13px" weight="400" font-style="" opacity="1" y="47.875" transform="rotate(0)"></text></g></g><g id="SvgjsG1196" transform="translate(28.61248779296875,454.5)"><path id="SvgjsPath1197" d="M 0 4Q 0 0 4 0L 135 0Q 139 0 139 4L 139 64Q 139 68 135 68L 4 68Q 0 68 0 64Z" stroke="rgba(50,50,50,1)" stroke-width="1" fill-opacity="1" fill="#ffffff"></path><path id="SvgjsPath1198" d="M 0 30L 139 30M 0 49L 139 49" stroke="rgba(50,50,50,1)" stroke-width="1" fill="none"></path><path id="SvgjsPath1199" d="M 0 0L 139 0L 139 68L 0 68Z" stroke="none" fill="none"></path><g id="SvgjsG1200"><text id="SvgjsText1201" font-family="微软雅黑" text-anchor="middle" font-size="13px" width="119px" fill="#323232" font-weight="700" align="middle" lineHeight="125%" anchor="middle" family="微软雅黑" size="13px" weight="700" font-style="" opacity="1" y="4.375" transform="rotate(0)"><tspan id="SvgjsTspan1202" dy="16" x="69.5"><tspan id="SvgjsTspan1203" style="text-decoration:;">MFI Strategy</tspan></tspan></text></g><g id="SvgjsG1204"><text id="SvgjsText1205" font-family="微软雅黑" text-anchor="start" font-size="13px" width="119px" fill="#323232" font-weight="400" align="middle" lineHeight="125%" anchor="start" family="微软雅黑" size="13px" weight="400" font-style="" opacity="1" y="28.875" transform="rotate(0)"></text></g><g id="SvgjsG1206"><text id="SvgjsText1207" font-family="微软雅黑" text-anchor="start" font-size="13px" width="119px" fill="#323232" font-weight="400" align="middle" lineHeight="125%" anchor="start" family="微软雅黑" size="13px" weight="400" font-style="" opacity="1" y="47.875" transform="rotate(0)"></text></g></g><g id="SvgjsG1208" transform="translate(831.0124969482422,454.5)"><path id="SvgjsPath1209" d="M 0 4Q 0 0 4 0L 176 0Q 180 0 180 4L 180 64Q 180 68 176 68L 4 68Q 0 68 0 64Z" stroke="rgba(50,50,50,1)" stroke-width="1" fill-opacity="1" fill="#ffffff"></path><path id="SvgjsPath1210" d="M 0 30L 180 30M 0 49L 180 49" stroke="rgba(50,50,50,1)" stroke-width="1" fill="none"></path><path id="SvgjsPath1211" d="M 0 0L 180 0L 180 68L 0 68Z" stroke="none" fill="none"></path><g id="SvgjsG1212"><text id="SvgjsText1213" font-family="微软雅黑" text-anchor="middle" font-size="13px" width="160px" fill="#323232" font-weight="700" align="middle" lineHeight="125%" anchor="middle" family="微软雅黑" size="13px" weight="700" font-style="" opacity="1" y="4.375" transform="rotate(0)"><tspan id="SvgjsTspan1214" dy="16" x="90"><tspan id="SvgjsTspan1215" style="text-decoration:;">BollingerBandStrategy</tspan></tspan></text></g><g id="SvgjsG1216"><text id="SvgjsText1217" font-family="微软雅黑" text-anchor="start" font-size="13px" width="160px" fill="#323232" font-weight="400" align="middle" lineHeight="125%" anchor="start" family="微软雅黑" size="13px" weight="400" font-style="" opacity="1" y="28.875" transform="rotate(0)"></text></g><g id="SvgjsG1218"><text id="SvgjsText1219" font-family="微软雅黑" text-anchor="start" font-size="13px" width="160px" fill="#323232" font-weight="400" align="middle" lineHeight="125%" anchor="start" family="微软雅黑" size="13px" weight="400" font-style="" opacity="1" y="47.875" transform="rotate(0)"></text></g></g><g id="SvgjsG1220"><path id="SvgjsPath1221" d="M98.11248779296875 454L98.11248779296875 393.8000030517578L573.4125061035156 393.8000030517578L573.4125061035156 335.79999999999995" stroke="#323232" stroke-width="1" fill="none" marker-end="url(#SvgjsMarker1222)"></path></g><g id="SvgjsG1224"><path id="SvgjsPath1225" d="M295.0124969482422 454L295.0124969482422 393.8000030517578L573.4125061035156 393.8000030517578L573.4125061035156 335.79999999999995" stroke="#323232" stroke-width="1" fill="none" marker-end="url(#SvgjsMarker1226)"></path></g><g id="SvgjsG1228"><path id="SvgjsPath1229" d="M515.2125015258789 450.5L515.2125015258789 393.5500030517578L573.4125061035156 393.5500030517578L573.4125061035156 335.79999999999995" stroke="#323232" stroke-width="1" fill="none" marker-end="url(#SvgjsMarker1230)"></path></g><g id="SvgjsG1232"><path id="SvgjsPath1233" d="M717.4125061035156 454L717.4125061035156 393.8000030517578L573.4125061035156 393.8000030517578L573.4125061035156 335.79999999999995" stroke="#323232" stroke-width="1" fill="none" marker-end="url(#SvgjsMarker1234)"></path></g><g id="SvgjsG1236"><path id="SvgjsPath1237" d="M921.0124969482422 454L921.0124969482422 393.8000030517578L573.4125061035156 393.8000030517578L573.4125061035156 335.79999999999995" stroke="#323232" stroke-width="1" fill="none" marker-end="url(#SvgjsMarker1238)"></path></g><g id="SvgjsG1240" transform="translate(1049.9125061035156,486.3000030517578)"><path id="SvgjsPath1241" d="M 0 4Q 0 0 4 0L 161 0Q 165 0 165 4L 165 64Q 165 68 161 68L 4 68Q 0 68 0 64Z" stroke="rgba(50,50,50,1)" stroke-width="1" fill-opacity="1" fill="#ffffff"></path><path id="SvgjsPath1242" d="M 0 30L 165 30M 0 49L 165 49" stroke="rgba(50,50,50,1)" stroke-width="1" fill="none"></path><path id="SvgjsPath1243" d="M 0 0L 165 0L 165 68L 0 68Z" stroke="none" fill="none"></path><g id="SvgjsG1244"><text id="SvgjsText1245" font-family="微软雅黑" text-anchor="middle" font-size="13px" width="145px" fill="#323232" font-weight="700" align="middle" lineHeight="125%" anchor="middle" family="微软雅黑" size="13px" weight="700" font-style="" opacity="1" y="4.375" transform="rotate(0)"><tspan id="SvgjsTspan1246" dy="16" x="82.5"><tspan id="SvgjsTspan1247" style="text-decoration:;">CustomisedStrategy</tspan></tspan></text></g><g id="SvgjsG1248"><text id="SvgjsText1249" font-family="微软雅黑" text-anchor="start" font-size="13px" width="145px" fill="#323232" font-weight="400" align="middle" lineHeight="125%" anchor="start" family="微软雅黑" size="13px" weight="400" font-style="" opacity="1" y="28.875" transform="rotate(0)"></text></g><g id="SvgjsG1250"><text id="SvgjsText1251" font-family="微软雅黑" text-anchor="start" font-size="13px" width="145px" fill="#323232" font-weight="400" align="middle" lineHeight="125%" anchor="start" family="微软雅黑" size="13px" weight="400" font-style="" opacity="1" y="47.875" transform="rotate(0)"></text></g></g><g id="SvgjsG1252" transform="translate(1049.9125061035156,377.3000030517578)"><path id="SvgjsPath1253" d="M 0 4Q 0 0 4 0L 161 0Q 165 0 165 4L 165 71Q 165 75 161 75L 4 75Q 0 75 0 71Z" stroke="rgba(50,50,50,1)" stroke-width="1" fill-opacity="1" fill="#ffffff"></path><path id="SvgjsPath1254" d="M 0 30L 165 30M 0 52.5L 165 52.5" stroke="rgba(50,50,50,1)" stroke-width="1" fill="none"></path><path id="SvgjsPath1255" d="M 0 0L 165 0L 165 75L 0 75Z" stroke="none" fill="none"></path><g id="SvgjsG1256"><text id="SvgjsText1257" font-family="微软雅黑" text-anchor="middle" font-size="13px" width="145px" fill="#323232" font-weight="700" align="middle" lineHeight="125%" anchor="middle" family="微软雅黑" size="13px" weight="700" font-style="" opacity="1" y="4.375" transform="rotate(0)"><tspan id="SvgjsTspan1258" dy="16" x="82.5"><tspan id="SvgjsTspan1259" style="text-decoration:;">StrategyJudgement</tspan></tspan></text></g><g id="SvgjsG1260"><text id="SvgjsText1261" font-family="微软雅黑" text-anchor="start" font-size="13px" width="145px" fill="#323232" font-weight="400" align="middle" lineHeight="125%" anchor="start" family="微软雅黑" size="13px" weight="400" font-style="" opacity="1" y="30.625" transform="rotate(0)"></text></g><g id="SvgjsG1262"><text id="SvgjsText1263" font-family="微软雅黑" text-anchor="start" font-size="13px" width="145px" fill="#323232" font-weight="400" align="middle" lineHeight="125%" anchor="start" family="微软雅黑" size="13px" weight="400" font-style="" opacity="1" y="53.125" transform="rotate(0)"></text></g></g><g id="SvgjsG1264"><path id="SvgjsPath1265" d="M1132.4125061035156 485.8000030517578L1132.4125061035156 470.3000030517578L1132.4125061035156 470.3000030517578L1132.4125061035156 454.10000305175777" stroke="#323232" stroke-width="1" fill="none" marker-end="url(#SvgjsMarker1266)"></path></g><g id="SvgjsG1268"><path id="SvgjsPath1269" d="M1132.4125061035156 376.8000030517578L1132.4125061035156 355.3000030517578L621.0624923706055 355.3000030517578L621.0624923706055 335.79999999999995" stroke="#323232" stroke-width="1" fill="none" marker-end="url(#SvgjsMarker1270)"></path></g><g id="SvgjsG1272"><path id="SvgjsPath1273" d="M1015.5124969482422 217.5L1015.5124969482422 250.49923307784366L622.7524008092505 250.49923307784366L622.7524008092505 281.20000000000005" stroke="#323232" stroke-width="1" fill="none" marker-end="url(#SvgjsMarker1274)"></path></g></svg>