<svg id="SvgjsSvg1006" width="646.75" height="432.0546875" xmlns="http://www.w3.org/2000/svg" version="1.1" xmlns:xlink="http://www.w3.org/1999/xlink" xmlns:svgjs="http://svgjs.com/svgjs"><defs id="SvgjsDefs1007"><marker id="SvgjsMarker1078" markerWidth="14" markerHeight="10" refX="10" refY="5" viewBox="0 0 14 10" orient="auto" markerUnits="userSpaceOnUse" stroke-dasharray="0,0"><path id="SvgjsPath1079" d="M0,0 L14,5 L0,10 L0,0" fill="#323232" stroke="#323232" stroke-width="1"></path></marker><marker id="SvgjsMarker1087" markerWidth="14" markerHeight="10" refX="10" refY="5" viewBox="0 0 14 10" orient="auto" markerUnits="userSpaceOnUse" stroke-dasharray="0,0"><path id="SvgjsPath1088" d="M0,0 L14,5 L0,10 L0,0" fill="#323232" stroke="#323232" stroke-width="1"></path></marker><marker id="SvgjsMarker1125" markerWidth="14" markerHeight="10" refX="10" refY="5" viewBox="0 0 14 10" orient="auto" markerUnits="userSpaceOnUse" stroke-dasharray="0,0"><path id="SvgjsPath1126" d="M0,0 L14,5 L0,10 L0,0" fill="#323232" stroke="#323232" stroke-width="1"></path></marker><marker id="SvgjsMarker1129" markerWidth="14" markerHeight="10" refX="10" refY="5" viewBox="0 0 14 10" orient="auto" markerUnits="userSpaceOnUse" stroke-dasharray="0,0"><path id="SvgjsPath1130" d="M0,0 L14,5 L0,10 L0,0" fill="#323232" stroke="#323232" stroke-width="1"></path></marker></defs><g id="SvgjsG1008" transform="translate(252.25,122.26117214163807)"><path id="SvgjsPath1009" d="M 0 4Q 0 0 4 0L 147 0Q 151 0 151 4L 151 41Q 151 45 147 45L 4 45Q 0 45 0 41Z" stroke="rgba(255,255,255,1)" stroke-width="2" fill-opacity="1" fill="#ffffff"></path><g id="SvgjsG1010"><text id="SvgjsText1011" font-family="微软雅黑" text-anchor="middle" font-size="17px" width="131px" fill="#000000" font-weight="700" align="middle" lineHeight="125%" anchor="middle" family="微软雅黑" size="17px" weight="700" font-style="" opacity="1" y="7.875" transform="rotate(0)"><tspan id="SvgjsTspan1012" dy="21" x="75.5"><tspan id="SvgjsTspan1013" style="text-decoration:;">内部质量属性</tspan></tspan></text></g></g><g id="SvgjsG1014" transform="translate(258.75,170.06407316552878)"><path id="SvgjsPath1015" d="M 0 0L 138 0L 138 149.97283845278724L 0 149.97283845278724Z" stroke-dasharray="10,6,3,6" stroke="rgba(255,0,0,1)" stroke-width="2" fill-opacity="1" fill="#ffffff"></path><g id="SvgjsG1016"><text id="SvgjsText1017" font-family="微软雅黑" text-anchor="middle" font-size="21px" width="118px" fill="#000000" font-weight="700" align="middle" lineHeight="125%" anchor="middle" family="微软雅黑" size="21px" weight="700" font-style="" opacity="1" y="56.36141922639362" transform="rotate(0)"></text></g></g><g id="SvgjsG1018" transform="translate(267.75,183.7724064988621)"><path id="SvgjsPath1019" d="M 0 0L 120 0L 120 53L 0 53Z" stroke="rgba(255,255,255,1)" stroke-width="2" fill-opacity="1" fill="#004b96"></path><g id="SvgjsG1020"><text id="SvgjsText1021" font-family="微软雅黑" text-anchor="middle" font-size="21px" width="100px" fill="#ffffff" font-weight="700" align="middle" lineHeight="125%" anchor="middle" family="微软雅黑" size="21px" weight="700" font-style="" opacity="1" y="7.875" transform="rotate(0)"><tspan id="SvgjsTspan1022" dy="26" x="60"><tspan id="SvgjsTspan1023" style="text-decoration:;">可移植性</tspan></tspan></text></g></g><g id="SvgjsG1024" transform="translate(267.75,245.98688059132218)"><path id="SvgjsPath1025" d="M 0 0L 120 0L 120 53L 0 53Z" stroke="rgba(255,255,255,1)" stroke-width="2" fill-opacity="1" fill="#004b96"></path><g id="SvgjsG1026"><text id="SvgjsText1027" font-family="微软雅黑" text-anchor="middle" font-size="21px" width="100px" fill="#ffffff" font-weight="700" align="middle" lineHeight="125%" anchor="middle" family="微软雅黑" size="21px" weight="700" font-style="" opacity="1" y="7.875" transform="rotate(0)"><tspan id="SvgjsTspan1028" dy="26" x="60"><tspan id="SvgjsTspan1029" style="text-decoration:;">可修改性</tspan></tspan></text></g></g><g id="SvgjsG1030" transform="translate(25,25.00178647610926)"><path id="SvgjsPath1031" d="M 0 4Q 0 0 4 0L 134 0Q 138 0 138 4L 138 24Q 138 28 134 28L 4 28Q 0 28 0 24Z" stroke="rgba(255,255,255,1)" stroke-width="2" fill-opacity="1" fill="#ffffff"></path><g id="SvgjsG1032"><text id="SvgjsText1033" font-family="微软雅黑" text-anchor="middle" font-size="17px" width="118px" fill="#000000" font-weight="700" align="middle" lineHeight="125%" anchor="middle" family="微软雅黑" size="17px" weight="700" font-style="" opacity="1" y="-0.625" transform="rotate(0)"><tspan id="SvgjsTspan1034" dy="21" x="69"><tspan id="SvgjsTspan1035" style="text-decoration:;">功能需求</tspan></tspan></text></g></g><g id="SvgjsG1036" transform="translate(25.75,66.0546875)"><path id="SvgjsPath1037" d="M 0 0L 170 0L 170 341.1666666666667L 0 341.1666666666667Z" stroke-dasharray="10,6,3,6" stroke="rgba(255,0,0,1)" stroke-width="2" fill-opacity="1" fill="#ffffff"></path><g id="SvgjsG1038"><text id="SvgjsText1039" font-family="微软雅黑" text-anchor="middle" font-size="15px" width="150px" fill="#000000" font-weight="700" align="middle" lineHeight="125%" anchor="middle" family="微软雅黑" size="15px" weight="700" font-style="" opacity="1" y="158.20833333333334" transform="rotate(0)"></text></g></g><g id="SvgjsG1040" transform="translate(37.75,77.7082711177475)"><path id="SvgjsPath1041" d="M 0 0L 138 0L 138 45L 0 45Z" stroke="rgba(255,255,255,1)" stroke-width="2" fill-opacity="1" fill="#2aa12e"></path><g id="SvgjsG1042"><text id="SvgjsText1043" font-family="微软雅黑" text-anchor="middle" font-size="15px" width="118px" fill="#ffffff" font-weight="700" align="middle" lineHeight="125%" anchor="middle" family="微软雅黑" size="15px" weight="700" font-style="" opacity="1" y="10.125" transform="rotate(0)"><tspan id="SvgjsTspan1044" dy="18" x="69"><tspan id="SvgjsTspan1045" style="text-decoration:;">个人中心模块</tspan></tspan></text></g></g><g id="SvgjsG1046" transform="translate(37.75,129.21680354095568)"><path id="SvgjsPath1047" d="M 0 0L 138 0L 138 45L 0 45Z" stroke="rgba(255,255,255,1)" stroke-width="2" fill-opacity="1" fill="#2aa12e"></path><g id="SvgjsG1048"><text id="SvgjsText1049" font-family="微软雅黑" text-anchor="middle" font-size="15px" width="118px" fill="#ffffff" font-weight="700" align="middle" lineHeight="125%" anchor="middle" family="微软雅黑" size="15px" weight="700" font-style="" opacity="1" y="10.125" transform="rotate(0)"><tspan id="SvgjsTspan1050" dy="18" x="69"><tspan id="SvgjsTspan1051" style="text-decoration:;">股票数据模块</tspan></tspan></text></g></g><g id="SvgjsG1052" transform="translate(37.75,187.1639025170649)"><path id="SvgjsPath1053" d="M 0 0L 138 0L 138 45L 0 45Z" stroke="rgba(255,255,255,1)" stroke-width="2" fill-opacity="1" fill="#2aa12e"></path><g id="SvgjsG1054"><text id="SvgjsText1055" font-family="微软雅黑" text-anchor="middle" font-size="15px" width="118px" fill="#ffffff" font-weight="700" align="middle" lineHeight="125%" anchor="middle" family="微软雅黑" size="15px" weight="700" font-style="" opacity="1" y="10.125" transform="rotate(0)"><tspan id="SvgjsTspan1056" dy="18" x="69"><tspan id="SvgjsTspan1057" style="text-decoration:;">量化策略模块</tspan></tspan></text></g></g><g id="SvgjsG1058" transform="translate(37.75,239.0546875)"><path id="SvgjsPath1059" d="M 0 0L 138 0L 138 45L 0 45Z" stroke="rgba(255,255,255,1)" stroke-width="2" fill-opacity="1" fill="#2aa12e"></path><g id="SvgjsG1060"><text id="SvgjsText1061" font-family="微软雅黑" text-anchor="middle" font-size="15px" width="118px" fill="#ffffff" font-weight="700" align="middle" lineHeight="125%" anchor="middle" family="微软雅黑" size="15px" weight="700" font-style="" opacity="1" y="10.125" transform="rotate(0)"><tspan id="SvgjsTspan1062" dy="18" x="69"><tspan id="SvgjsTspan1063" style="text-decoration:;">回测模块</tspan></tspan></text></g></g><g id="SvgjsG1064" transform="translate(37.75,294.2782369880547)"><path id="SvgjsPath1065" d="M 0 0L 138 0L 138 45L 0 45Z" stroke="rgba(255,255,255,1)" stroke-width="2" fill-opacity="1" fill="#2aa12e"></path><g id="SvgjsG1066"><text id="SvgjsText1067" font-family="微软雅黑" text-anchor="middle" font-size="15px" width="118px" fill="#ffffff" font-weight="700" align="middle" lineHeight="125%" anchor="middle" family="微软雅黑" size="15px" weight="700" font-style="" opacity="1" y="10.125" transform="rotate(0)"><tspan id="SvgjsTspan1068" dy="18" x="69"><tspan id="SvgjsTspan1069" style="text-decoration:;">自动交易模块</tspan></tspan></text></g></g><g id="SvgjsG1070" transform="translate(37.75,347.5427421075086)"><path id="SvgjsPath1071" d="M 0 0L 138 0L 138 45L 0 45Z" stroke="rgba(255,255,255,1)" stroke-width="2" fill-opacity="1" fill="#2aa12e"></path><g id="SvgjsG1072"><text id="SvgjsText1073" font-family="微软雅黑" text-anchor="middle" font-size="15px" width="118px" fill="#ffffff" font-weight="700" align="middle" lineHeight="125%" anchor="middle" family="微软雅黑" size="15px" weight="700" font-style="" opacity="1" y="10.125" transform="rotate(0)"><tspan id="SvgjsTspan1074" dy="18" x="69"><tspan id="SvgjsTspan1075" style="text-decoration:;">管理员模块</tspan></tspan></text></g></g><g id="SvgjsG1076"><path id="SvgjsPath1077" d="M196.68902117942892 236.29416152404553L264.3695237540559 211.51030001229825" stroke="#323232" stroke-width="2" fill="none" marker-end="url(#SvgjsMarker1078)"></path></g><g id="SvgjsG1080" transform="translate(176.99999999999997,86.27195402187397)"><path id="SvgjsPath1081" d="M 0 306.27078808563465Q 9 306.27078808563465 9 297.27078808563465L 9 162.13539404281732Q 9 153.13539404281732 22 153.13539404281732Q 9 153.13539404281732 9 144.13539404281732L 9 9Q 9 0 0 0" stroke="rgba(50,50,50,1)" stroke-width="2" fill="none"></path><path id="SvgjsPath1082" d="M 0 0L 113.75 0L 113.75 306.27078808563465L 0 306.27078808563465Z" stroke="none" fill="none"></path><g id="SvgjsG1083"><text id="SvgjsText1084" font-family="微软雅黑" text-anchor="start" font-size="13px" width="87px" fill="#323232" font-weight="400" align="middle" lineHeight="125%" anchor="start" family="微软雅黑" size="13px" weight="400" font-style="" opacity="1" y="142.51039404281732" transform="rotate(0)"></text></g></g><g id="SvgjsG1085"><path id="SvgjsPath1086" d="M196.64517757964174 237.08373049320937L264.5273607132898 270.8823258157687" stroke="#323232" stroke-width="2" fill="none" marker-end="url(#SvgjsMarker1087)"></path></g><g id="SvgjsG1089" transform="translate(471.75000000000006,77.7082711177475)"><path id="SvgjsPath1090" d="M 0 4Q 0 0 4 0L 134 0Q 138 0 138 4L 138 24Q 138 28 134 28L 4 28Q 0 28 0 24Z" stroke="rgba(255,255,255,1)" stroke-width="2" fill-opacity="1" fill="#ffffff"></path><g id="SvgjsG1091"><text id="SvgjsText1092" font-family="微软雅黑" text-anchor="middle" font-size="17px" width="118px" fill="#000000" font-weight="700" align="middle" lineHeight="125%" anchor="middle" family="微软雅黑" size="17px" weight="700" font-style="" opacity="1" y="-0.625" transform="rotate(0)"><tspan id="SvgjsTspan1093" dy="21" x="69"><tspan id="SvgjsTspan1094" style="text-decoration:;">非功能需求</tspan></tspan></text></g></g><g id="SvgjsG1095" transform="translate(459.75000000000006,122.26117214163807)"><path id="SvgjsPath1096" d="M 0 0L 161.9999999999999 0L 161.9999999999999 225.28156996587055L 0 225.28156996587055Z" stroke-dasharray="10,6,3,6" stroke="rgba(255,0,0,1)" stroke-width="2" fill-opacity="1" fill="#ffffff"></path><g id="SvgjsG1097"><text id="SvgjsText1098" font-family="微软雅黑" text-anchor="middle" font-size="15px" width="142px" fill="#000000" font-weight="700" align="middle" lineHeight="125%" anchor="middle" family="微软雅黑" size="15px" weight="700" font-style="" opacity="1" y="100.26578498293527" transform="rotate(0)"></text></g></g><g id="SvgjsG1099" transform="translate(471.74999999999994,130.41475575938566)"><path id="SvgjsPath1100" d="M 0 0L 138 0L 138 45L 0 45Z" stroke="rgba(255,255,255,1)" stroke-width="2" fill-opacity="1" fill="#2aa12e"></path><g id="SvgjsG1101"><text id="SvgjsText1102" font-family="微软雅黑" text-anchor="middle" font-size="15px" width="118px" fill="#ffffff" font-weight="700" align="middle" lineHeight="125%" anchor="middle" family="微软雅黑" size="15px" weight="700" font-style="" opacity="1" y="10.125" transform="rotate(0)"><tspan id="SvgjsTspan1103" dy="18" x="69"><tspan id="SvgjsTspan1104" style="text-decoration:;">错误日志</tspan></tspan></text></g></g><g id="SvgjsG1105" transform="translate(471.74999999999994,182.53389941436535)"><path id="SvgjsPath1106" d="M 0 0L 138 0L 138 45L 0 45Z" stroke="rgba(255,255,255,1)" stroke-width="2" fill-opacity="1" fill="#2aa12e"></path><g id="SvgjsG1107"><text id="SvgjsText1108" font-family="微软雅黑" text-anchor="middle" font-size="15px" width="118px" fill="#ffffff" font-weight="700" align="middle" lineHeight="125%" anchor="middle" family="微软雅黑" size="15px" weight="700" font-style="" opacity="1" y="10.125" transform="rotate(0)"><tspan id="SvgjsTspan1109" dy="18" x="69"><tspan id="SvgjsTspan1110" style="text-decoration:;">资源利用率</tspan></tspan></text></g></g><g id="SvgjsG1111" transform="translate(471.74999999999994,240.7483735068255)"><path id="SvgjsPath1112" d="M 0 0L 138 0L 138 45L 0 45Z" stroke="rgba(255,255,255,1)" stroke-width="2" fill-opacity="1" fill="#2aa12e"></path><g id="SvgjsG1113"><text id="SvgjsText1114" font-family="微软雅黑" text-anchor="middle" font-size="15px" width="118px" fill="#ffffff" font-weight="700" align="middle" lineHeight="125%" anchor="middle" family="微软雅黑" size="15px" weight="700" font-style="" opacity="1" y="10.125" transform="rotate(0)"><tspan id="SvgjsTspan1115" dy="18" x="69"><tspan id="SvgjsTspan1116" style="text-decoration:;">易于修改</tspan></tspan></text></g></g><g id="SvgjsG1117" transform="translate(471.74999999999994,294.89086497440223)"><path id="SvgjsPath1118" d="M 0 0L 138 0L 138 45L 0 45Z" stroke="rgba(255,255,255,1)" stroke-width="2" fill-opacity="1" fill="#2aa12e"></path><g id="SvgjsG1119"><text id="SvgjsText1120" font-family="微软雅黑" text-anchor="middle" font-size="15px" width="118px" fill="#ffffff" font-weight="700" align="middle" lineHeight="125%" anchor="middle" family="微软雅黑" size="15px" weight="700" font-style="" opacity="1" y="10.125" transform="rotate(0)"><tspan id="SvgjsTspan1121" dy="18" x="69"><tspan id="SvgjsTspan1122" style="text-decoration:;">模块化</tspan></tspan></text></g></g><g id="SvgjsG1123"><path id="SvgjsPath1124" d="M471.1329259132741 316.603959915649L389.97146671221304 213.10526471037377" stroke="#323232" stroke-width="2" fill="none" marker-end="url(#SvgjsMarker1125)"></path></g><g id="SvgjsG1127"><path id="SvgjsPath1128" d="M470.75599372415985 263.35769653088954L391.3284225930243 272.09331770469146" stroke="#323232" stroke-width="2" fill="none" marker-end="url(#SvgjsMarker1129)"></path></g></svg>