<svg id="SvgjsSvg1151" width="646.75" height="417.5390625" xmlns="http://www.w3.org/2000/svg" version="1.1" xmlns:xlink="http://www.w3.org/1999/xlink" xmlns:svgjs="http://svgjs.com/svgjs"><defs id="SvgjsDefs1152"><marker id="SvgjsMarker1270" markerWidth="14" markerHeight="10" refX="10" refY="5" viewBox="0 0 14 10" orient="auto" markerUnits="userSpaceOnUse" stroke-dasharray="0,0"><path id="SvgjsPath1271" d="M0,0 L14,5 L0,10 L0,0" fill="#323232" stroke="#323232" stroke-width="1"></path></marker><marker id="SvgjsMarker1274" markerWidth="14" markerHeight="10" refX="10" refY="5" viewBox="0 0 14 10" orient="auto" markerUnits="userSpaceOnUse" stroke-dasharray="0,0"><path id="SvgjsPath1275" d="M0,0 L14,5 L0,10 L0,0" fill="#323232" stroke="#323232" stroke-width="1"></path></marker><marker id="SvgjsMarker1278" markerWidth="14" markerHeight="10" refX="10" refY="5" viewBox="0 0 14 10" orient="auto" markerUnits="userSpaceOnUse" stroke-dasharray="0,0"><path id="SvgjsPath1279" d="M0,0 L14,5 L0,10 L0,0" fill="#323232" stroke="#323232" stroke-width="1"></path></marker><marker id="SvgjsMarker1282" markerWidth="14" markerHeight="10" refX="10" refY="5" viewBox="0 0 14 10" orient="auto" markerUnits="userSpaceOnUse" stroke-dasharray="0,0"><path id="SvgjsPath1283" d="M0,0 L14,5 L0,10 L0,0" fill="#323232" stroke="#323232" stroke-width="1"></path></marker><marker id="SvgjsMarker1286" markerWidth="14" markerHeight="10" refX="10" refY="5" viewBox="0 0 14 10" orient="auto" markerUnits="userSpaceOnUse" stroke-dasharray="0,0"><path id="SvgjsPath1287" d="M0,0 L14,5 L0,10 L0,0" fill="#323232" stroke="#323232" stroke-width="1"></path></marker><marker id="SvgjsMarker1290" markerWidth="14" markerHeight="10" refX="10" refY="5" viewBox="0 0 14 10" orient="auto" markerUnits="userSpaceOnUse" stroke-dasharray="0,0"><path id="SvgjsPath1291" d="M0,0 L14,5 L0,10 L0,0" fill="#323232" stroke="#323232" stroke-width="1"></path></marker><marker id="SvgjsMarker1294" markerWidth="14" markerHeight="10" refX="10" refY="5" viewBox="0 0 14 10" orient="auto" markerUnits="userSpaceOnUse" stroke-dasharray="0,0"><path id="SvgjsPath1295" d="M0,0 L14,5 L0,10 L0,0" fill="#323232" stroke="#323232" stroke-width="1"></path></marker></defs><g id="SvgjsG1153" transform="translate(25,25.00178647610926)"><path id="SvgjsPath1154" d="M 0 4Q 0 0 4 0L 134 0Q 138 0 138 4L 138 24Q 138 28 134 28L 4 28Q 0 28 0 24Z" stroke="rgba(255,255,255,1)" stroke-width="2" fill-opacity="1" fill="#ffffff"></path><g id="SvgjsG1155"><text id="SvgjsText1156" font-family="微软雅黑" text-anchor="middle" font-size="17px" width="118px" fill="#000000" font-weight="700" align="middle" lineHeight="125%" anchor="middle" family="微软雅黑" size="17px" weight="700" font-style="" opacity="1" y="-0.625" transform="rotate(0)"><tspan id="SvgjsTspan1157" dy="21" x="69"><tspan id="SvgjsTspan1158" style="text-decoration:;">功能需求</tspan></tspan></text></g></g><g id="SvgjsG1159" transform="translate(37.75,77.7082711177475)"><path id="SvgjsPath1160" d="M 0 0L 138 0L 138 45L 0 45Z" stroke="rgba(255,255,255,1)" stroke-width="2" fill-opacity="1" fill="#2aa12e"></path><g id="SvgjsG1161"><text id="SvgjsText1162" font-family="微软雅黑" text-anchor="middle" font-size="15px" width="118px" fill="#ffffff" font-weight="700" align="middle" lineHeight="125%" anchor="middle" family="微软雅黑" size="15px" weight="700" font-style="" opacity="1" y="10.125" transform="rotate(0)"><tspan id="SvgjsTspan1163" dy="18" x="69"><tspan id="SvgjsTspan1164" style="text-decoration:;">个人中心模块</tspan></tspan></text></g></g><g id="SvgjsG1165" transform="translate(37.75,129.21680354095568)"><path id="SvgjsPath1166" d="M 0 0L 138 0L 138 45L 0 45Z" stroke="rgba(255,255,255,1)" stroke-width="2" fill-opacity="1" fill="#2aa12e"></path><g id="SvgjsG1167"><text id="SvgjsText1168" font-family="微软雅黑" text-anchor="middle" font-size="15px" width="118px" fill="#ffffff" font-weight="700" align="middle" lineHeight="125%" anchor="middle" family="微软雅黑" size="15px" weight="700" font-style="" opacity="1" y="10.125" transform="rotate(0)"><tspan id="SvgjsTspan1169" dy="18" x="69"><tspan id="SvgjsTspan1170" style="text-decoration:;">股票数据模块</tspan></tspan></text></g></g><g id="SvgjsG1171" transform="translate(37.75,187.1639025170649)"><path id="SvgjsPath1172" d="M 0 0L 138 0L 138 45L 0 45Z" stroke="rgba(255,255,255,1)" stroke-width="2" fill-opacity="1" fill="#2aa12e"></path><g id="SvgjsG1173"><text id="SvgjsText1174" font-family="微软雅黑" text-anchor="middle" font-size="15px" width="118px" fill="#ffffff" font-weight="700" align="middle" lineHeight="125%" anchor="middle" family="微软雅黑" size="15px" weight="700" font-style="" opacity="1" y="10.125" transform="rotate(0)"><tspan id="SvgjsTspan1175" dy="18" x="69"><tspan id="SvgjsTspan1176" style="text-decoration:;">量化策略模块</tspan></tspan></text></g></g><g id="SvgjsG1177" transform="translate(37.75,239.0546875)"><path id="SvgjsPath1178" d="M 0 0L 138 0L 138 45L 0 45Z" stroke="rgba(255,255,255,1)" stroke-width="2" fill-opacity="1" fill="#2aa12e"></path><g id="SvgjsG1179"><text id="SvgjsText1180" font-family="微软雅黑" text-anchor="middle" font-size="15px" width="118px" fill="#ffffff" font-weight="700" align="middle" lineHeight="125%" anchor="middle" family="微软雅黑" size="15px" weight="700" font-style="" opacity="1" y="10.125" transform="rotate(0)"><tspan id="SvgjsTspan1181" dy="18" x="69"><tspan id="SvgjsTspan1182" style="text-decoration:;">回测模块</tspan></tspan></text></g></g><g id="SvgjsG1183" transform="translate(37.75,294.2782369880547)"><path id="SvgjsPath1184" d="M 0 0L 138 0L 138 45L 0 45Z" stroke="rgba(255,255,255,1)" stroke-width="2" fill-opacity="1" fill="#2aa12e"></path><g id="SvgjsG1185"><text id="SvgjsText1186" font-family="微软雅黑" text-anchor="middle" font-size="15px" width="118px" fill="#ffffff" font-weight="700" align="middle" lineHeight="125%" anchor="middle" family="微软雅黑" size="15px" weight="700" font-style="" opacity="1" y="10.125" transform="rotate(0)"><tspan id="SvgjsTspan1187" dy="18" x="69"><tspan id="SvgjsTspan1188" style="text-decoration:;">自动交易模块</tspan></tspan></text></g></g><g id="SvgjsG1189" transform="translate(37.75,347.5427421075086)"><path id="SvgjsPath1190" d="M 0 0L 138 0L 138 45L 0 45Z" stroke="rgba(255,255,255,1)" stroke-width="2" fill-opacity="1" fill="#2aa12e"></path><g id="SvgjsG1191"><text id="SvgjsText1192" font-family="微软雅黑" text-anchor="middle" font-size="15px" width="118px" fill="#ffffff" font-weight="700" align="middle" lineHeight="125%" anchor="middle" family="微软雅黑" size="15px" weight="700" font-style="" opacity="1" y="10.125" transform="rotate(0)"><tspan id="SvgjsTspan1193" dy="18" x="69"><tspan id="SvgjsTspan1194" style="text-decoration:;">管理员模块</tspan></tspan></text></g></g><g id="SvgjsG1195" transform="translate(176.99999999999997,86.27195402187397)"><path id="SvgjsPath1196" d="M 0 306.27078808563465Q 9 306.27078808563465 9 297.27078808563465L 9 162.13539404281732Q 9 153.13539404281732 22 153.13539404281732Q 9 153.13539404281732 9 144.13539404281732L 9 9Q 9 0 0 0" stroke="rgba(50,50,50,1)" stroke-width="2" fill="none"></path><path id="SvgjsPath1197" d="M 0 0L 113.75 0L 113.75 306.27078808563465L 0 306.27078808563465Z" stroke="none" fill="none"></path><g id="SvgjsG1198"><text id="SvgjsText1199" font-family="微软雅黑" text-anchor="start" font-size="13px" width="87px" fill="#323232" font-weight="400" align="middle" lineHeight="125%" anchor="start" family="微软雅黑" size="13px" weight="400" font-style="" opacity="1" y="142.51039404281732" transform="rotate(0)"></text></g></g><g id="SvgjsG1200" transform="translate(471.75000000000006,77.7082711177475)"><path id="SvgjsPath1201" d="M 0 4Q 0 0 4 0L 134 0Q 138 0 138 4L 138 24Q 138 28 134 28L 4 28Q 0 28 0 24Z" stroke="rgba(255,255,255,1)" stroke-width="2" fill-opacity="1" fill="#ffffff"></path><g id="SvgjsG1202"><text id="SvgjsText1203" font-family="微软雅黑" text-anchor="middle" font-size="17px" width="118px" fill="#000000" font-weight="700" align="middle" lineHeight="125%" anchor="middle" family="微软雅黑" size="17px" weight="700" font-style="" opacity="1" y="-0.625" transform="rotate(0)"><tspan id="SvgjsTspan1204" dy="21" x="69"><tspan id="SvgjsTspan1205" style="text-decoration:;">非功能需求</tspan></tspan></text></g></g><g id="SvgjsG1206" transform="translate(459.75000000000006,122.26117214163807)"><path id="SvgjsPath1207" d="M 0 0L 161.9999999999999 0L 161.9999999999999 225.28156996587055L 0 225.28156996587055Z" stroke-dasharray="10,6,3,6" stroke="rgba(255,0,0,1)" stroke-width="2" fill-opacity="1" fill="#ffffff"></path><g id="SvgjsG1208"><text id="SvgjsText1209" font-family="微软雅黑" text-anchor="middle" font-size="15px" width="142px" fill="#000000" font-weight="700" align="middle" lineHeight="125%" anchor="middle" family="微软雅黑" size="15px" weight="700" font-style="" opacity="1" y="100.26578498293527" transform="rotate(0)"></text></g></g><g id="SvgjsG1210" transform="translate(471.74999999999994,130.41475575938566)"><path id="SvgjsPath1211" d="M 0 0L 138 0L 138 45L 0 45Z" stroke="rgba(255,255,255,1)" stroke-width="2" fill-opacity="1" fill="#2aa12e"></path><g id="SvgjsG1212"><text id="SvgjsText1213" font-family="微软雅黑" text-anchor="middle" font-size="15px" width="118px" fill="#ffffff" font-weight="700" align="middle" lineHeight="125%" anchor="middle" family="微软雅黑" size="15px" weight="700" font-style="" opacity="1" y="10.125" transform="rotate(0)"><tspan id="SvgjsTspan1214" dy="18" x="69"><tspan id="SvgjsTspan1215" style="text-decoration:;">错误日志</tspan></tspan></text></g></g><g id="SvgjsG1216" transform="translate(471.74999999999994,182.53389941436535)"><path id="SvgjsPath1217" d="M 0 0L 138 0L 138 45L 0 45Z" stroke="rgba(255,255,255,1)" stroke-width="2" fill-opacity="1" fill="#2aa12e"></path><g id="SvgjsG1218"><text id="SvgjsText1219" font-family="微软雅黑" text-anchor="middle" font-size="15px" width="118px" fill="#ffffff" font-weight="700" align="middle" lineHeight="125%" anchor="middle" family="微软雅黑" size="15px" weight="700" font-style="" opacity="1" y="10.125" transform="rotate(0)"><tspan id="SvgjsTspan1220" dy="18" x="69"><tspan id="SvgjsTspan1221" style="text-decoration:;">资源利用率</tspan></tspan></text></g></g><g id="SvgjsG1222" transform="translate(471.74999999999994,240.7483735068255)"><path id="SvgjsPath1223" d="M 0 0L 138 0L 138 45L 0 45Z" stroke="rgba(255,255,255,1)" stroke-width="2" fill-opacity="1" fill="#2aa12e"></path><g id="SvgjsG1224"><text id="SvgjsText1225" font-family="微软雅黑" text-anchor="middle" font-size="15px" width="118px" fill="#ffffff" font-weight="700" align="middle" lineHeight="125%" anchor="middle" family="微软雅黑" size="15px" weight="700" font-style="" opacity="1" y="10.125" transform="rotate(0)"><tspan id="SvgjsTspan1226" dy="18" x="69"><tspan id="SvgjsTspan1227" style="text-decoration:;">易于修改</tspan></tspan></text></g></g><g id="SvgjsG1228" transform="translate(471.74999999999994,294.89086497440223)"><path id="SvgjsPath1229" d="M 0 0L 138 0L 138 45L 0 45Z" stroke="rgba(255,255,255,1)" stroke-width="2" fill-opacity="1" fill="#2aa12e"></path><g id="SvgjsG1230"><text id="SvgjsText1231" font-family="微软雅黑" text-anchor="middle" font-size="15px" width="118px" fill="#ffffff" font-weight="700" align="middle" lineHeight="125%" anchor="middle" family="微软雅黑" size="15px" weight="700" font-style="" opacity="1" y="10.125" transform="rotate(0)"><tspan id="SvgjsTspan1232" dy="18" x="69"><tspan id="SvgjsTspan1233" style="text-decoration:;">模块化</tspan></tspan></text></g></g><g id="SvgjsG1234" transform="translate(247.25,68.05103751896095)"><path id="SvgjsPath1235" d="M 0 4Q 0 0 4 0L 147 0Q 151 0 151 4L 151 37Q 151 41 147 41L 4 41Q 0 41 0 37Z" stroke="rgba(255,255,255,1)" stroke-width="2" fill-opacity="1" fill="#ffffff"></path><g id="SvgjsG1236"><text id="SvgjsText1237" font-family="微软雅黑" text-anchor="middle" font-size="17px" width="131px" fill="#000000" font-weight="700" align="middle" lineHeight="125%" anchor="middle" family="微软雅黑" size="17px" weight="700" font-style="" opacity="1" y="5.875" transform="rotate(0)"><tspan id="SvgjsTspan1238" dy="21" x="75.5"><tspan id="SvgjsTspan1239" style="text-decoration:;">内部质量属性</tspan></tspan></text></g></g><g id="SvgjsG1240" transform="translate(252.75,115.55103751896095)"><path id="SvgjsPath1241" d="M 0 0L 140 0L 140 252.5072999620781L 0 252.5072999620781Z" stroke-dasharray="10,6,3,6" stroke="rgba(255,0,0,1)" stroke-width="2" fill-opacity="1" fill="#ffffff"></path><g id="SvgjsG1242"><text id="SvgjsText1243" font-family="微软雅黑" text-anchor="middle" font-size="21px" width="120px" fill="#ffffff" font-weight="700" align="middle" lineHeight="125%" anchor="middle" family="微软雅黑" size="21px" weight="700" font-style="" opacity="1" y="107.62864998103905" transform="rotate(0)"></text></g></g><g id="SvgjsG1244" transform="translate(262.75,127.26018191298385)"><path id="SvgjsPath1245" d="M 0 0L 120 0L 120 47.56247219614235L 0 47.56247219614235Z" stroke="rgba(255,255,255,1)" stroke-width="2" fill-opacity="1" fill="#004b96"></path><g id="SvgjsG1246"><text id="SvgjsText1247" font-family="微软雅黑" text-anchor="middle" font-size="21px" width="100px" fill="#ffffff" font-weight="700" align="middle" lineHeight="125%" anchor="middle" family="微软雅黑" size="21px" weight="700" font-style="" opacity="1" y="5.156236098071176" transform="rotate(0)"><tspan id="SvgjsTspan1248" dy="26" x="60"><tspan id="SvgjsTspan1249" style="text-decoration:;">可维护性</tspan></tspan></text></g></g><g id="SvgjsG1250" transform="translate(262.75,186.82587336632275)"><path id="SvgjsPath1251" d="M 0 0L 120 0L 120 47.56247219614235L 0 47.56247219614235Z" stroke="rgba(255,255,255,1)" stroke-width="2" fill-opacity="1" fill="#004b96"></path><g id="SvgjsG1252"><text id="SvgjsText1253" font-family="微软雅黑" text-anchor="middle" font-size="21px" width="100px" fill="#ffffff" font-weight="700" align="middle" lineHeight="125%" anchor="middle" family="微软雅黑" size="21px" weight="700" font-style="" opacity="1" y="5.156236098071176" transform="rotate(0)"><tspan id="SvgjsTspan1254" dy="26" x="60"><tspan id="SvgjsTspan1255" style="text-decoration:;">可修改性</tspan></tspan></text></g></g><g id="SvgjsG1256" transform="translate(262.75,246.19750966599713)"><path id="SvgjsPath1257" d="M 0 0L 120 0L 120 47.56247219614235L 0 47.56247219614235Z" stroke="rgba(255,255,255,1)" stroke-width="2" fill-opacity="1" fill="#004b96"></path><g id="SvgjsG1258"><text id="SvgjsText1259" font-family="微软雅黑" text-anchor="middle" font-size="21px" width="100px" fill="#ffffff" font-weight="700" align="middle" lineHeight="125%" anchor="middle" family="微软雅黑" size="21px" weight="700" font-style="" opacity="1" y="5.156236098071176" transform="rotate(0)"><tspan id="SvgjsTspan1260" dy="26" x="60"><tspan id="SvgjsTspan1261" style="text-decoration:;">可集成性 </tspan></tspan></text></g></g><g id="SvgjsG1262" transform="translate(262.75,305.5691459656715)"><path id="SvgjsPath1263" d="M 0 0L 120 0L 120 47.56247219614235L 0 47.56247219614235Z" stroke="rgba(255,255,255,1)" stroke-width="2" fill-opacity="1" fill="#004b96"></path><g id="SvgjsG1264"><text id="SvgjsText1265" font-family="微软雅黑" text-anchor="middle" font-size="21px" width="100px" fill="#ffffff" font-weight="700" align="middle" lineHeight="125%" anchor="middle" family="微软雅黑" size="21px" weight="700" font-style="" opacity="1" y="5.156236098071176" transform="rotate(0)"><tspan id="SvgjsTspan1266" dy="26" x="60"><tspan id="SvgjsTspan1267" style="text-decoration:;">可移植性</tspan></tspan></text></g></g><g id="SvgjsG1268"><path id="SvgjsPath1269" d="M197.75 239.0546875L260.61132617398937 153.93728994640318" stroke="#323232" stroke-width="2" fill="none" marker-end="url(#SvgjsMarker1270)"></path></g><g id="SvgjsG1272"><path id="SvgjsPath1273" d="M198.75 240.7483735068255L259.4931158526445 212.14096266816034" stroke="#323232" stroke-width="2" fill="none" marker-end="url(#SvgjsMarker1274)"></path></g><g id="SvgjsG1276"><path id="SvgjsPath1277" d="M198.75 240.7483735068255L259.47537415187276 268.4831436930691" stroke="#323232" stroke-width="2" fill="none" marker-end="url(#SvgjsMarker1278)"></path></g><g id="SvgjsG1280"><path id="SvgjsPath1281" d="M196.75 239.0546875L260.6256321701971 326.4439992046378" stroke="#323232" stroke-width="2" fill="none" marker-end="url(#SvgjsMarker1282)"></path></g><g id="SvgjsG1284"><path id="SvgjsPath1285" d="M470.8892868340018 262.73928329293665L385.84856739759346 212.4398342343938" stroke="#323232" stroke-width="2" fill="none" marker-end="url(#SvgjsMarker1286)"></path></g><g id="SvgjsG1288"><path id="SvgjsPath1289" d="M470.75890807446706 317.52404453418336L386.31793093191845 328.87093564853075" stroke="#323232" stroke-width="2" fill="none" marker-end="url(#SvgjsMarker1290)"></path></g><g id="SvgjsG1292"><path id="SvgjsPath1293" d="M470.8674225536498 316.9206979283494L385.9272788068605 271.67134712985865" stroke="#323232" stroke-width="2" fill="none" marker-end="url(#SvgjsMarker1294)"></path></g></svg>