<svg version="1.1" xmlns="http://www.w3.org/2000/svg" xmlns:xlink="http://www.w3.org/1999/xlink" width="700" height="259"><defs/><g><g transform="translate(-180,-790) scale(1,1)"><path fill="#ffffff" stroke="none" d="M 211.82072727272728 817.6800000000001 C 211.82072727272728 812.8861679360001 215.70656959767274 809 220.5 809 C 225.29343040232726 809 229.17927272727272 812.8861679360001 229.17927272727272 817.6800000000001 C 229.17927272727272 822.473832064 225.29343040232726 826.36 220.5 826.36 C 215.70656959767274 826.36 211.82072727272728 822.473832064 211.82072727272728 817.6800000000001 Z"/></g><g transform="translate(-180,-790) scale(1,1)"><path fill="none" stroke="#000000" d="M 211.82072727272728 817.6800000000001 C 211.82072727272728 812.8861679360001 215.70656959767274 809 220.5 809 C 225.29343040232726 809 229.17927272727272 812.8861679360001 229.17927272727272 817.6800000000001 C 229.17927272727272 822.473832064 225.29343040232726 826.36 220.5 826.36 C 215.70656959767274 826.36 211.82072727272728 822.473832064 211.82072727272728 817.6800000000001 Z" stroke-miterlimit="10"/></g><g transform="translate(-180,-790) scale(1,1)"><path fill="none" stroke="#000000" d="M 220.5 826.36 L 220.5 843.64" stroke-miterlimit="10"/></g><g transform="translate(-180,-790) scale(1,1)"><path fill="none" stroke="#000000" d="M 211.31018181818183 832.84 L 229.68981818181817 832.84" stroke-miterlimit="10"/></g><g transform="translate(-180,-790) scale(1,1)"><path fill="none" stroke="#000000" d="M 220.5 843.64 L 207.73636363636365 861" stroke-miterlimit="10"/></g><g transform="translate(-180,-790) scale(1,1)"><path fill="none" stroke="#000000" d="M 220.5 843.64 L 233.26363636363635 861" stroke-miterlimit="10"/></g><g transform="translate(-180,-790) scale(1,1)"><g><path fill="none" stroke="none"/><text fill="#000000" stroke="none" font-family="Arial" font-size="13px" font-style="normal" font-weight="bold" text-decoration="none" x="194.5" y="881.5">普通用户</text></g></g><g transform="translate(-180,-790) scale(1,1)"><path fill="#ffffff" stroke="none" d="M 211.82072727272728 969.6800000000001 C 211.82072727272728 964.8861679360001 215.70656959767274 961 220.5 961 C 225.29343040232726 961 229.17927272727272 964.8861679360001 229.17927272727272 969.6800000000001 C 229.17927272727272 974.473832064 225.29343040232726 978.36 220.5 978.36 C 215.70656959767274 978.36 211.82072727272728 974.473832064 211.82072727272728 969.6800000000001 Z"/></g><g transform="translate(-180,-790) scale(1,1)"><path fill="none" stroke="#000000" d="M 211.82072727272728 969.6800000000001 C 211.82072727272728 964.8861679360001 215.70656959767274 961 220.5 961 C 225.29343040232726 961 229.17927272727272 964.8861679360001 229.17927272727272 969.6800000000001 C 229.17927272727272 974.473832064 225.29343040232726 978.36 220.5 978.36 C 215.70656959767274 978.36 211.82072727272728 974.473832064 211.82072727272728 969.6800000000001 Z" stroke-miterlimit="10"/></g><g transform="translate(-180,-790) scale(1,1)"><path fill="none" stroke="#000000" d="M 220.5 978.36 L 220.5 995.64" stroke-miterlimit="10"/></g><g transform="translate(-180,-790) scale(1,1)"><path fill="none" stroke="#000000" d="M 211.31018181818183 984.84 L 229.68981818181817 984.84" stroke-miterlimit="10"/></g><g transform="translate(-180,-790) scale(1,1)"><path fill="none" stroke="#000000" d="M 220.5 995.64 L 207.73636363636365 1013" stroke-miterlimit="10"/></g><g transform="translate(-180,-790) scale(1,1)"><path fill="none" stroke="#000000" d="M 220.5 995.64 L 233.26363636363635 1013" stroke-miterlimit="10"/></g><g transform="translate(-180,-790) scale(1,1)"><g><path fill="none" stroke="none"/><text fill="#000000" stroke="none" font-family="Arial" font-size="13px" font-style="normal" font-weight="bold" text-decoration="none" x="194.5" y="1033.5">会员用户</text></g></g><g transform="translate(-180,-790) scale(1,1)"><path fill="#C0C0C0" stroke="none" d="M 437 824 C 437 814.6111584 464.5344848 807 498.5 807 C 532.4655152 807 560 814.6111584 560 824 C 560 833.3888416 532.4655152 841 498.5 841 C 464.5344848 841 437 833.3888416 437 824 Z" opacity="0.2"/></g><g transform="translate(-180,-790) scale(1,1)"><path fill="#ffffff" stroke="none" d="M 430 817 C 430 807.6111584 457.5344848 800 491.5 800 C 525.4655152 800 553 807.6111584 553 817 C 553 826.3888416 525.4655152 834 491.5 834 C 457.5344848 834 430 826.3888416 430 817 Z"/></g><g transform="translate(-180,-790) scale(1,1)"><path fill="none" stroke="#000000" d="M 430 817 C 430 807.6111584 457.5344848 800 491.5 800 C 525.4655152 800 553 807.6111584 553 817 C 553 826.3888416 525.4655152 834 491.5 834 C 457.5344848 834 430 826.3888416 430 817 Z" stroke-miterlimit="10"/></g><g transform="translate(-180,-790) scale(1,1)"><g><path fill="none" stroke="none"/><text fill="#000000" stroke="none" font-family="Arial" font-size="13px" font-style="normal" font-weight="bold" text-decoration="none" x="452.5" y="824">运行系统策略</text></g></g><g transform="translate(-180,-790) scale(1,1)"><path fill="#C0C0C0" stroke="none" d="M 423 1019 C 423 1009.6111584 454.5639216 1002 493.5 1002 C 532.4360784 1002 564 1009.6111584 564 1019 C 564 1028.3888416 532.4360784 1036 493.5 1036 C 454.5639216 1036 423 1028.3888416 423 1019 Z" opacity="0.2"/></g><g transform="translate(-180,-790) scale(1,1)"><path fill="#ffffff" stroke="none" d="M 416 1012 C 416 1002.6111584 447.5639216 995 486.5 995 C 525.4360784 995 557 1002.6111584 557 1012 C 557 1021.3888416 525.4360784 1029 486.5 1029 C 447.5639216 1029 416 1021.3888416 416 1012 Z"/></g><g transform="translate(-180,-790) scale(1,1)"><path fill="none" stroke="#000000" d="M 416 1012 C 416 1002.6111584 447.5639216 995 486.5 995 C 525.4360784 995 557 1002.6111584 557 1012 C 557 1021.3888416 525.4360784 1029 486.5 1029 C 447.5639216 1029 416 1021.3888416 416 1012 Z" stroke-miterlimit="10"/></g><g transform="translate(-180,-790) scale(1,1)"><g><path fill="none" stroke="none"/><text fill="#000000" stroke="none" font-family="Arial" font-size="13px" font-style="normal" font-weight="bold" text-decoration="none" x="441" y="1019">运行自定义策略</text></g></g><g transform="translate(-180,-790) scale(1,1)"><path fill="none" stroke="#000000" d="M 252 843 L 429 824" stroke-miterlimit="10"/></g><g transform="translate(-180,-790) scale(1,1)"><path fill="none" stroke="#000000" d="M 419.3446635407374 829.2701496998126 L 429 824 L 418.446087524412 820.8992047056234" stroke-miterlimit="10"/></g><g transform="translate(-180,-790) scale(1,1)"><path fill="#C0C0C0" stroke="none" d="M 421 920 C 421 910.6111584 456.81721600000003 903 501 903 C 545.182784 903 581 910.6111584 581 920 C 581 929.3888416 545.182784 937 501 937 C 456.81721600000003 937 421 929.3888416 421 920 Z" opacity="0.2"/></g><g transform="translate(-180,-790) scale(1,1)"><path fill="#ffffff" stroke="none" d="M 414 913 C 414 903.6111584 449.81721600000003 896 494 896 C 538.182784 896 574 903.6111584 574 913 C 574 922.3888416 538.182784 930 494 930 C 449.81721600000003 930 414 922.3888416 414 913 Z"/></g><g transform="translate(-180,-790) scale(1,1)"><path fill="none" stroke="#000000" d="M 414 913 C 414 903.6111584 449.81721600000003 896 494 896 C 538.182784 896 574 903.6111584 574 913 C 574 922.3888416 538.182784 930 494 930 C 449.81721600000003 930 414 922.3888416 414 913 Z" stroke-miterlimit="10"/></g><g transform="translate(-180,-790) scale(1,1)"><g><path fill="none" stroke="none"/><text fill="#000000" stroke="none" font-family="Arial" font-size="13px" font-style="normal" font-weight="bold" text-decoration="none" x="442" y="920">查询回测历史列表</text></g></g><g transform="translate(-180,-790) scale(1,1)"><path fill="#C0C0C0" stroke="none" d="M 709 1000 C 709 990.6111584 744.817216 983 789 983 C 833.182784 983 869 990.6111584 869 1000 C 869 1009.3888416 833.182784 1017 789 1017 C 744.817216 1017 709 1009.3888416 709 1000 Z" opacity="0.2"/></g><g transform="translate(-180,-790) scale(1,1)"><path fill="#ffffff" stroke="none" d="M 702 993 C 702 983.6111584 737.817216 976 782 976 C 826.182784 976 862 983.6111584 862 993 C 862 1002.3888416 826.182784 1010 782 1010 C 737.817216 1010 702 1002.3888416 702 993 Z"/></g><g transform="translate(-180,-790) scale(1,1)"><path fill="none" stroke="#000000" d="M 702 993 C 702 983.6111584 737.817216 976 782 976 C 826.182784 976 862 983.6111584 862 993 C 862 1002.3888416 826.182784 1010 782 1010 C 737.817216 1010 702 1002.3888416 702 993 Z" stroke-miterlimit="10"/></g><g transform="translate(-180,-790) scale(1,1)"><g><path fill="none" stroke="none"/><text fill="#000000" stroke="none" font-family="Arial" font-size="13px" font-style="normal" font-weight="bold" text-decoration="none" x="730" y="1000">查询每日交易详情</text></g></g><g transform="translate(-180,-790) scale(1,1)"><path fill="#C0C0C0" stroke="none" d="M 717 856 C 717 846.6111584 752.817216 839 797 839 C 841.182784 839 877 846.6111584 877 856 C 877 865.3888416 841.182784 873 797 873 C 752.817216 873 717 865.3888416 717 856 Z" opacity="0.2"/></g><g transform="translate(-180,-790) scale(1,1)"><path fill="#ffffff" stroke="none" d="M 710 849 C 710 839.6111584 745.817216 832 790 832 C 834.182784 832 870 839.6111584 870 849 C 870 858.3888416 834.182784 866 790 866 C 745.817216 866 710 858.3888416 710 849 Z"/></g><g transform="translate(-180,-790) scale(1,1)"><path fill="none" stroke="#000000" d="M 710 849 C 710 839.6111584 745.817216 832 790 832 C 834.182784 832 870 839.6111584 870 849 C 870 858.3888416 834.182784 866 790 866 C 745.817216 866 710 858.3888416 710 849 Z" stroke-miterlimit="10"/></g><g transform="translate(-180,-790) scale(1,1)"><g><path fill="none" stroke="none"/><text fill="#000000" stroke="none" font-family="Arial" font-size="13px" font-style="normal" font-weight="bold" text-decoration="none" x="738" y="856">查询每日收益详情</text></g></g><g transform="translate(-180,-790) scale(1,1)"><path fill="#C0C0C0" stroke="none" d="M 701 936 C 701 926.6111584 736.817216 919 781 919 C 825.182784 919 861 926.6111584 861 936 C 861 945.3888416 825.182784 953 781 953 C 736.817216 953 701 945.3888416 701 936 Z" opacity="0.2"/></g><g transform="translate(-180,-790) scale(1,1)"><path fill="#ffffff" stroke="none" d="M 694 929 C 694 919.6111584 729.817216 912 774 912 C 818.182784 912 854 919.6111584 854 929 C 854 938.3888416 818.182784 946 774 946 C 729.817216 946 694 938.3888416 694 929 Z"/></g><g transform="translate(-180,-790) scale(1,1)"><path fill="none" stroke="#000000" d="M 694 929 C 694 919.6111584 729.817216 912 774 912 C 818.182784 912 854 919.6111584 854 929 C 854 938.3888416 818.182784 946 774 946 C 729.817216 946 694 938.3888416 694 929 Z" stroke-miterlimit="10"/></g><g transform="translate(-180,-790) scale(1,1)"><g><path fill="none" stroke="none"/><text fill="#000000" stroke="none" font-family="Arial" font-size="13px" font-style="normal" font-weight="bold" text-decoration="none" x="722" y="936">查询每日持仓详情</text></g></g><g transform="translate(-180,-790) scale(1,1)"><path fill="none" stroke="#000000" d="M 252 855 L 419 895" stroke-miterlimit="10"/></g><g transform="translate(-180,-790) scale(1,1)"><path fill="none" stroke="#000000" d="M 408.13633742313084 896.726509604935 L 419 895 L 410.09740387394004 888.5390571728066" stroke-miterlimit="10"/></g><g transform="translate(-180,-790) scale(1,1)"><path fill="none" stroke="#000000" d="M 717 975 L 559 931" stroke-miterlimit="10" stroke-dasharray="3"/></g><g transform="translate(-180,-790) scale(1,1)"><path fill="none" stroke="#000000" d="M 569.9194405476275 929.6711591040198 L 559 931 L 567.6608428666564 937.781578049325" stroke-miterlimit="10"/></g><g transform="translate(-180,-790) scale(1,1)"><g><path fill="none" stroke="none"/><text fill="#000000" stroke="none" font-family="Arial" font-size="13px" font-style="normal" font-weight="normal" text-decoration="none" x="602.23291015625" y="987.5">«extend»</text></g></g><g transform="translate(-180,-790) scale(1,1)"><path fill="none" stroke="#000000" d="M 693 924 L 575 918" stroke-miterlimit="10" stroke-dasharray="3"/></g><g transform="translate(-180,-790) scale(1,1)"><path fill="none" stroke="#000000" d="M 585.3633297737965 914.3119929501771 L 575 918 L 584.9357955527175 922.7201659647304" stroke-miterlimit="10"/></g><g transform="translate(-180,-790) scale(1,1)"><g><path fill="none" stroke="none"/><text fill="#000000" stroke="none" font-family="Arial" font-size="13px" font-style="normal" font-weight="normal" text-decoration="none" x="605.23291015625" y="956.5">«extend»</text></g></g><g transform="translate(-180,-790) scale(1,1)"><path fill="none" stroke="#000000" d="M 709 867 L 575 895" stroke-miterlimit="10" stroke-dasharray="3"/></g><g transform="translate(-180,-790) scale(1,1)"><path fill="none" stroke="#000000" d="M 584.0868178761752 888.8008274031754 L 575 895 L 585.8088275206112 897.0418735586901" stroke-miterlimit="10"/></g><g transform="translate(-180,-790) scale(1,1)"><g><path fill="none" stroke="none"/><text fill="#000000" stroke="none" font-family="Arial" font-size="13px" font-style="normal" font-weight="normal" text-decoration="none" x="607.23291015625" y="905.5">«extend»</text></g></g><g transform="translate(-180,-790) scale(1,1)"><path fill="none" stroke="#000000" d="M 220 959 L 220 888" stroke-miterlimit="10"/></g><g transform="translate(-180,-790) scale(1,1)"><path fill="#FFFFFF" stroke="none" d="M 228.41903551203197 908.3253497152483 L 220 888 L 211.58096448796803 908.3253497152483"/></g><g transform="translate(-180,-790) scale(1,1)"><path fill="none" stroke="#000000" d="M 228.41903551203197 908.3253497152483 L 220 888 L 211.58096448796803 908.3253497152483 L 228.41903551203197 908.3253497152483" stroke-miterlimit="10"/></g><g transform="translate(-180,-790) scale(1,1)"><path fill="none" stroke="#000000" d="M 252 1001 L 415 1009" stroke-miterlimit="10"/></g><g transform="translate(-180,-790) scale(1,1)"><path fill="none" stroke="#000000" d="M 404.64318939935436 1012.7062749739265 L 415 1009 L 405.05589682581336 1004.2973611598242" stroke-miterlimit="10"/></g></g></svg>