<svg version="1.1" xmlns="http://www.w3.org/2000/svg" xmlns:xlink="http://www.w3.org/1999/xlink" width="1150.17724609375" height="910"><defs/><g><g transform="translate(-110,-190) scale(1,1)"><path fill="#ffffff" stroke="none" d="M 141.82072727272728 553.6800000000001 C 141.82072727272728 548.8861679360001 145.70656959767274 545 150.5 545 C 155.29343040232726 545 159.17927272727272 548.8861679360001 159.17927272727272 553.6800000000001 C 159.17927272727272 558.473832064 155.29343040232726 562.36 150.5 562.36 C 145.70656959767274 562.36 141.82072727272728 558.473832064 141.82072727272728 553.6800000000001 Z"/></g><g transform="translate(-110,-190) scale(1,1)"><path fill="none" stroke="#000000" d="M 141.82072727272728 553.6800000000001 C 141.82072727272728 548.8861679360001 145.70656959767274 545 150.5 545 C 155.29343040232726 545 159.17927272727272 548.8861679360001 159.17927272727272 553.6800000000001 C 159.17927272727272 558.473832064 155.29343040232726 562.36 150.5 562.36 C 145.70656959767274 562.36 141.82072727272728 558.473832064 141.82072727272728 553.6800000000001 Z" stroke-miterlimit="10"/></g><g transform="translate(-110,-190) scale(1,1)"><path fill="none" stroke="#000000" d="M 150.5 562.36 L 150.5 579.64" stroke-miterlimit="10"/></g><g transform="translate(-110,-190) scale(1,1)"><path fill="none" stroke="#000000" d="M 141.31018181818183 568.84 L 159.68981818181817 568.84" stroke-miterlimit="10"/></g><g transform="translate(-110,-190) scale(1,1)"><path fill="none" stroke="#000000" d="M 150.5 579.64 L 137.73636363636365 597" stroke-miterlimit="10"/></g><g transform="translate(-110,-190) scale(1,1)"><path fill="none" stroke="#000000" d="M 150.5 579.64 L 163.26363636363635 597" stroke-miterlimit="10"/></g><g transform="translate(-110,-190) scale(1,1)"><g><path fill="none" stroke="none"/><text fill="#000000" stroke="none" font-family="Arial" font-size="13px" font-style="normal" font-weight="bold" text-decoration="none" x="124.5" y="617.5">普通用户</text></g></g><g transform="translate(-110,-190) scale(1,1)"><path fill="#ffffff" stroke="none" d="M 141.82072727272728 737.6800000000001 C 141.82072727272728 732.8861679360001 145.70656959767274 729 150.5 729 C 155.29343040232726 729 159.17927272727272 732.8861679360001 159.17927272727272 737.6800000000001 C 159.17927272727272 742.473832064 155.29343040232726 746.36 150.5 746.36 C 145.70656959767274 746.36 141.82072727272728 742.473832064 141.82072727272728 737.6800000000001 Z"/></g><g transform="translate(-110,-190) scale(1,1)"><path fill="none" stroke="#000000" d="M 141.82072727272728 737.6800000000001 C 141.82072727272728 732.8861679360001 145.70656959767274 729 150.5 729 C 155.29343040232726 729 159.17927272727272 732.8861679360001 159.17927272727272 737.6800000000001 C 159.17927272727272 742.473832064 155.29343040232726 746.36 150.5 746.36 C 145.70656959767274 746.36 141.82072727272728 742.473832064 141.82072727272728 737.6800000000001 Z" stroke-miterlimit="10"/></g><g transform="translate(-110,-190) scale(1,1)"><path fill="none" stroke="#000000" d="M 150.5 746.36 L 150.5 763.64" stroke-miterlimit="10"/></g><g transform="translate(-110,-190) scale(1,1)"><path fill="none" stroke="#000000" d="M 141.31018181818183 752.84 L 159.68981818181817 752.84" stroke-miterlimit="10"/></g><g transform="translate(-110,-190) scale(1,1)"><path fill="none" stroke="#000000" d="M 150.5 763.64 L 137.73636363636365 781" stroke-miterlimit="10"/></g><g transform="translate(-110,-190) scale(1,1)"><path fill="none" stroke="#000000" d="M 150.5 763.64 L 163.26363636363635 781" stroke-miterlimit="10"/></g><g transform="translate(-110,-190) scale(1,1)"><g><path fill="none" stroke="none"/><text fill="#000000" stroke="none" font-family="Arial" font-size="13px" font-style="normal" font-weight="bold" text-decoration="none" x="124.5" y="801.5">会员用户</text></g></g><g transform="translate(-110,-190) scale(1,1)"><path fill="#C0C0C0" stroke="none" d="M 535 664 C 535 654.6111584 562.5344848 647 596.5 647 C 630.4655152 647 658 654.6111584 658 664 C 658 673.3888416 630.4655152 681 596.5 681 C 562.5344848 681 535 673.3888416 535 664 Z" opacity="0.2"/></g><g transform="translate(-110,-190) scale(1,1)"><path fill="#ffffff" stroke="none" d="M 528 657 C 528 647.6111584 555.5344848 640 589.5 640 C 623.4655152 640 651 647.6111584 651 657 C 651 666.3888416 623.4655152 674 589.5 674 C 555.5344848 674 528 666.3888416 528 657 Z"/></g><g transform="translate(-110,-190) scale(1,1)"><path fill="none" stroke="#000000" d="M 528 657 C 528 647.6111584 555.5344848 640 589.5 640 C 623.4655152 640 651 647.6111584 651 657 C 651 666.3888416 623.4655152 674 589.5 674 C 555.5344848 674 528 666.3888416 528 657 Z" stroke-miterlimit="10"/></g><g transform="translate(-110,-190) scale(1,1)"><g><path fill="none" stroke="none"/><text fill="#000000" stroke="none" font-family="Arial" font-size="13px" font-style="normal" font-weight="bold" text-decoration="none" x="550.5" y="664">查看量化策略</text></g></g><g transform="translate(-110,-190) scale(1,1)"><path fill="#C0C0C0" stroke="none" d="M 519 712 C 519 702.6111584 550.5639216 695 589.5 695 C 628.4360784 695 660 702.6111584 660 712 C 660 721.3888416 628.4360784 729 589.5 729 C 550.5639216 729 519 721.3888416 519 712 Z" opacity="0.2"/></g><g transform="translate(-110,-190) scale(1,1)"><path fill="#ffffff" stroke="none" d="M 512 705 C 512 695.6111584 543.5639216 688 582.5 688 C 621.4360784 688 653 695.6111584 653 705 C 653 714.3888416 621.4360784 722 582.5 722 C 543.5639216 722 512 714.3888416 512 705 Z"/></g><g transform="translate(-110,-190) scale(1,1)"><path fill="none" stroke="#000000" d="M 512 705 C 512 695.6111584 543.5639216 688 582.5 688 C 621.4360784 688 653 695.6111584 653 705 C 653 714.3888416 621.4360784 722 582.5 722 C 543.5639216 722 512 714.3888416 512 705 Z" stroke-miterlimit="10"/></g><g transform="translate(-110,-190) scale(1,1)"><g><path fill="none" stroke="none"/><text fill="#000000" stroke="none" font-family="Arial" font-size="13px" font-style="normal" font-weight="bold" text-decoration="none" x="537" y="712">编辑自定义策略</text></g></g><g transform="translate(-110,-190) scale(1,1)"><path fill="none" stroke="#000000" d="M 182 588 L 527 647" stroke-miterlimit="10"/></g><g transform="translate(-110,-190) scale(1,1)"><path fill="none" stroke="#000000" d="M 516.273164484838 649.4361855082609 L 527 647 L 517.6923385734366 641.137625159676" stroke-miterlimit="10"/></g><g transform="translate(-110,-190) scale(1,1)"><path fill="none" stroke="#000000" d="M 182 592 L 518 687" stroke-miterlimit="10"/></g><g transform="translate(-110,-190) scale(1,1)"><path fill="none" stroke="#000000" d="M 507.07540043925763 688.2857388682884 L 518 687 L 509.3659868962497 680.1842962414534" stroke-miterlimit="10"/></g><g transform="translate(-110,-190) scale(1,1)"><path fill="#C0C0C0" stroke="none" d="M 527 760 C 527 750.6111584 554.5344848 743 588.5 743 C 622.4655152 743 650 750.6111584 650 760 C 650 769.3888416 622.4655152 777 588.5 777 C 554.5344848 777 527 769.3888416 527 760 Z" opacity="0.2"/></g><g transform="translate(-110,-190) scale(1,1)"><path fill="#ffffff" stroke="none" d="M 520 753 C 520 743.6111584 547.5344848 736 581.5 736 C 615.4655152 736 643 743.6111584 643 753 C 643 762.3888416 615.4655152 770 581.5 770 C 547.5344848 770 520 762.3888416 520 753 Z"/></g><g transform="translate(-110,-190) scale(1,1)"><path fill="none" stroke="#000000" d="M 520 753 C 520 743.6111584 547.5344848 736 581.5 736 C 615.4655152 736 643 743.6111584 643 753 C 643 762.3888416 615.4655152 770 581.5 770 C 547.5344848 770 520 762.3888416 520 753 Z" stroke-miterlimit="10"/></g><g transform="translate(-110,-190) scale(1,1)"><g><path fill="none" stroke="none"/><text fill="#000000" stroke="none" font-family="Arial" font-size="13px" font-style="normal" font-weight="bold" text-decoration="none" x="542.5" y="760">运行系统策略</text></g></g><g transform="translate(-110,-190) scale(1,1)"><path fill="#C0C0C0" stroke="none" d="M 287 936 C 287 926.6111584 318.5639216 919 357.5 919 C 396.4360784 919 428 926.6111584 428 936 C 428 945.3888416 396.4360784 953 357.5 953 C 318.5639216 953 287 945.3888416 287 936 Z" opacity="0.2"/></g><g transform="translate(-110,-190) scale(1,1)"><path fill="#ffffff" stroke="none" d="M 280 929 C 280 919.6111584 311.5639216 912 350.5 912 C 389.4360784 912 421 919.6111584 421 929 C 421 938.3888416 389.4360784 946 350.5 946 C 311.5639216 946 280 938.3888416 280 929 Z"/></g><g transform="translate(-110,-190) scale(1,1)"><path fill="none" stroke="#000000" d="M 280 929 C 280 919.6111584 311.5639216 912 350.5 912 C 389.4360784 912 421 919.6111584 421 929 C 421 938.3888416 389.4360784 946 350.5 946 C 311.5639216 946 280 938.3888416 280 929 Z" stroke-miterlimit="10"/></g><g transform="translate(-110,-190) scale(1,1)"><g><path fill="none" stroke="none"/><text fill="#000000" stroke="none" font-family="Arial" font-size="13px" font-style="normal" font-weight="bold" text-decoration="none" x="305" y="936">运行自定义策略</text></g></g><g transform="translate(-110,-190) scale(1,1)"><path fill="none" stroke="#000000" d="M 182 596 L 535 735" stroke-miterlimit="10"/></g><g transform="translate(-110,-190) scale(1,1)"><path fill="none" stroke="#000000" d="M 524.0016991653696 735.1933358501904 L 535 735 L 527.0863178075871 727.3597359890192" stroke-miterlimit="10"/></g><g transform="translate(-110,-190) scale(1,1)"><path fill="#C0C0C0" stroke="none" d="M 511 856 C 511 846.6111584 546.817216 839 591 839 C 635.182784 839 671 846.6111584 671 856 C 671 865.3888416 635.182784 873 591 873 C 546.817216 873 511 865.3888416 511 856 Z" opacity="0.2"/></g><g transform="translate(-110,-190) scale(1,1)"><path fill="#ffffff" stroke="none" d="M 504 849 C 504 839.6111584 539.817216 832 584 832 C 628.182784 832 664 839.6111584 664 849 C 664 858.3888416 628.182784 866 584 866 C 539.817216 866 504 858.3888416 504 849 Z"/></g><g transform="translate(-110,-190) scale(1,1)"><path fill="none" stroke="#000000" d="M 504 849 C 504 839.6111584 539.817216 832 584 832 C 628.182784 832 664 839.6111584 664 849 C 664 858.3888416 628.182784 866 584 866 C 539.817216 866 504 858.3888416 504 849 Z" stroke-miterlimit="10"/></g><g transform="translate(-110,-190) scale(1,1)"><g><path fill="none" stroke="none"/><text fill="#000000" stroke="none" font-family="Arial" font-size="13px" font-style="normal" font-weight="bold" text-decoration="none" x="532" y="856">查询回测历史列表</text></g></g><g transform="translate(-110,-190) scale(1,1)"><path fill="#C0C0C0" stroke="none" d="M 799 936 C 799 926.6111584 834.817216 919 879 919 C 923.182784 919 959 926.6111584 959 936 C 959 945.3888416 923.182784 953 879 953 C 834.817216 953 799 945.3888416 799 936 Z" opacity="0.2"/></g><g transform="translate(-110,-190) scale(1,1)"><path fill="#ffffff" stroke="none" d="M 792 929 C 792 919.6111584 827.817216 912 872 912 C 916.182784 912 952 919.6111584 952 929 C 952 938.3888416 916.182784 946 872 946 C 827.817216 946 792 938.3888416 792 929 Z"/></g><g transform="translate(-110,-190) scale(1,1)"><path fill="none" stroke="#000000" d="M 792 929 C 792 919.6111584 827.817216 912 872 912 C 916.182784 912 952 919.6111584 952 929 C 952 938.3888416 916.182784 946 872 946 C 827.817216 946 792 938.3888416 792 929 Z" stroke-miterlimit="10"/></g><g transform="translate(-110,-190) scale(1,1)"><g><path fill="none" stroke="none"/><text fill="#000000" stroke="none" font-family="Arial" font-size="13px" font-style="normal" font-weight="bold" text-decoration="none" x="820" y="936">查询每日交易详情</text></g></g><g transform="translate(-110,-190) scale(1,1)"><path fill="#C0C0C0" stroke="none" d="M 807 792 C 807 782.6111584 842.817216 775 887 775 C 931.182784 775 967 782.6111584 967 792 C 967 801.3888416 931.182784 809 887 809 C 842.817216 809 807 801.3888416 807 792 Z" opacity="0.2"/></g><g transform="translate(-110,-190) scale(1,1)"><path fill="#ffffff" stroke="none" d="M 800 785 C 800 775.6111584 835.817216 768 880 768 C 924.182784 768 960 775.6111584 960 785 C 960 794.3888416 924.182784 802 880 802 C 835.817216 802 800 794.3888416 800 785 Z"/></g><g transform="translate(-110,-190) scale(1,1)"><path fill="none" stroke="#000000" d="M 800 785 C 800 775.6111584 835.817216 768 880 768 C 924.182784 768 960 775.6111584 960 785 C 960 794.3888416 924.182784 802 880 802 C 835.817216 802 800 794.3888416 800 785 Z" stroke-miterlimit="10"/></g><g transform="translate(-110,-190) scale(1,1)"><g><path fill="none" stroke="none"/><text fill="#000000" stroke="none" font-family="Arial" font-size="13px" font-style="normal" font-weight="bold" text-decoration="none" x="828" y="792">查询每日收益详情</text></g></g><g transform="translate(-110,-190) scale(1,1)"><path fill="#C0C0C0" stroke="none" d="M 791 872 C 791 862.6111584 826.817216 855 871 855 C 915.182784 855 951 862.6111584 951 872 C 951 881.3888416 915.182784 889 871 889 C 826.817216 889 791 881.3888416 791 872 Z" opacity="0.2"/></g><g transform="translate(-110,-190) scale(1,1)"><path fill="#ffffff" stroke="none" d="M 784 865 C 784 855.6111584 819.817216 848 864 848 C 908.182784 848 944 855.6111584 944 865 C 944 874.3888416 908.182784 882 864 882 C 819.817216 882 784 874.3888416 784 865 Z"/></g><g transform="translate(-110,-190) scale(1,1)"><path fill="none" stroke="#000000" d="M 784 865 C 784 855.6111584 819.817216 848 864 848 C 908.182784 848 944 855.6111584 944 865 C 944 874.3888416 908.182784 882 864 882 C 819.817216 882 784 874.3888416 784 865 Z" stroke-miterlimit="10"/></g><g transform="translate(-110,-190) scale(1,1)"><g><path fill="none" stroke="none"/><text fill="#000000" stroke="none" font-family="Arial" font-size="13px" font-style="normal" font-weight="bold" text-decoration="none" x="812" y="872">查询每日持仓详情</text></g></g><g transform="translate(-110,-190) scale(1,1)"><path fill="none" stroke="#000000" d="M 182 603 L 555 831" stroke-miterlimit="10"/></g><g transform="translate(-110,-190) scale(1,1)"><path fill="none" stroke="#000000" d="M 544.133506299485 829.2913997961288 L 555 831 L 548.5243914071391 822.1080658261509" stroke-miterlimit="10"/></g><g transform="translate(-110,-190) scale(1,1)"><path fill="none" stroke="#000000" d="M 807 911 L 649 867" stroke-miterlimit="10" stroke-dasharray="3"/></g><g transform="translate(-110,-190) scale(1,1)"><path fill="none" stroke="#000000" d="M 659.9194405476275 865.6711591040198 L 649 867 L 657.6608428666564 873.781578049325" stroke-miterlimit="10"/></g><g transform="translate(-110,-190) scale(1,1)"><g><path fill="none" stroke="none"/><text fill="#000000" stroke="none" font-family="Arial" font-size="13px" font-style="normal" font-weight="normal" text-decoration="none" x="692.23291015625" y="923.5">«extend»</text></g></g><g transform="translate(-110,-190) scale(1,1)"><path fill="none" stroke="#000000" d="M 783 860 L 665 854" stroke-miterlimit="10" stroke-dasharray="3"/></g><g transform="translate(-110,-190) scale(1,1)"><path fill="none" stroke="#000000" d="M 675.3633297737965 850.3119929501771 L 665 854 L 674.9357955527175 858.7201659647304" stroke-miterlimit="10"/></g><g transform="translate(-110,-190) scale(1,1)"><g><path fill="none" stroke="none"/><text fill="#000000" stroke="none" font-family="Arial" font-size="13px" font-style="normal" font-weight="normal" text-decoration="none" x="695.23291015625" y="892.5">«extend»</text></g></g><g transform="translate(-110,-190) scale(1,1)"><path fill="none" stroke="#000000" d="M 799 803 L 665 831" stroke-miterlimit="10" stroke-dasharray="3"/></g><g transform="translate(-110,-190) scale(1,1)"><path fill="none" stroke="#000000" d="M 674.0868178761752 824.8008274031754 L 665 831 L 675.8088275206112 833.0418735586901" stroke-miterlimit="10"/></g><g transform="translate(-110,-190) scale(1,1)"><g><path fill="none" stroke="none"/><text fill="#000000" stroke="none" font-family="Arial" font-size="13px" font-style="normal" font-weight="normal" text-decoration="none" x="697.23291015625" y="841.5">«extend»</text></g></g><g transform="translate(-110,-190) scale(1,1)"><path fill="#C0C0C0" stroke="none" d="M 615 288 C 615 278.6111584 637.6096176 271 665.5 271 C 693.3903824 271 716 278.6111584 716 288 C 716 297.3888416 693.3903824 305 665.5 305 C 637.6096176 305 615 297.3888416 615 288 Z" opacity="0.2"/></g><g transform="translate(-110,-190) scale(1,1)"><path fill="#ffffff" stroke="none" d="M 608 281 C 608 271.6111584 630.6096176 264 658.5 264 C 686.3903824 264 709 271.6111584 709 281 C 709 290.3888416 686.3903824 298 658.5 298 C 630.6096176 298 608 290.3888416 608 281 Z"/></g><g transform="translate(-110,-190) scale(1,1)"><path fill="none" stroke="#000000" d="M 608 281 C 608 271.6111584 630.6096176 264 658.5 264 C 686.3903824 264 709 271.6111584 709 281 C 709 290.3888416 686.3903824 298 658.5 298 C 630.6096176 298 608 290.3888416 608 281 Z" stroke-miterlimit="10"/></g><g transform="translate(-110,-190) scale(1,1)"><g><path fill="none" stroke="none"/><text fill="#000000" stroke="none" font-family="Arial" font-size="13px" font-style="normal" font-weight="bold" text-decoration="none" x="645.5" y="288">登录</text></g></g><g transform="translate(-110,-190) scale(1,1)"><path fill="#C0C0C0" stroke="none" d="M 623 224 C 623 214.6111584 645.6096176 207 673.5 207 C 701.3903824 207 724 214.6111584 724 224 C 724 233.3888416 701.3903824 241 673.5 241 C 645.6096176 241 623 233.3888416 623 224 Z" opacity="0.2"/></g><g transform="translate(-110,-190) scale(1,1)"><path fill="#ffffff" stroke="none" d="M 616 217 C 616 207.6111584 638.6096176 200 666.5 200 C 694.3903824 200 717 207.6111584 717 217 C 717 226.3888416 694.3903824 234 666.5 234 C 638.6096176 234 616 226.3888416 616 217 Z"/></g><g transform="translate(-110,-190) scale(1,1)"><path fill="none" stroke="#000000" d="M 616 217 C 616 207.6111584 638.6096176 200 666.5 200 C 694.3903824 200 717 207.6111584 717 217 C 717 226.3888416 694.3903824 234 666.5 234 C 638.6096176 234 616 226.3888416 616 217 Z" stroke-miterlimit="10"/></g><g transform="translate(-110,-190) scale(1,1)"><g><path fill="none" stroke="none"/><text fill="#000000" stroke="none" font-family="Arial" font-size="13px" font-style="normal" font-weight="bold" text-decoration="none" x="653.5" y="224">注册</text></g></g><g transform="translate(-110,-190) scale(1,1)"><path fill="none" stroke="#000000" d="M 664 235 L 660 263" stroke-miterlimit="10" stroke-dasharray="3"/></g><g transform="translate(-110,-190) scale(1,1)"><path fill="none" stroke="#000000" d="M 657.2700092902382 252.34414946029108 L 660 263 L 665.6044292324897 253.53478088061271" stroke-miterlimit="10"/></g><g transform="translate(-110,-190) scale(1,1)"><g><path fill="none" stroke="none"/><text fill="#000000" stroke="none" font-family="Arial" font-size="13px" font-style="normal" font-weight="normal" text-decoration="none" x="647.5" y="260.5">«extend»</text></g></g><g transform="translate(-110,-190) scale(1,1)"><path fill="#C0C0C0" stroke="none" d="M 503 392 C 503 382.6111584 530.5344848 375 564.5 375 C 598.4655152 375 626 382.6111584 626 392 C 626 401.3888416 598.4655152 409 564.5 409 C 530.5344848 409 503 401.3888416 503 392 Z" opacity="0.2"/></g><g transform="translate(-110,-190) scale(1,1)"><path fill="#ffffff" stroke="none" d="M 496 385 C 496 375.6111584 523.5344848 368 557.5 368 C 591.4655152 368 619 375.6111584 619 385 C 619 394.3888416 591.4655152 402 557.5 402 C 523.5344848 402 496 394.3888416 496 385 Z"/></g><g transform="translate(-110,-190) scale(1,1)"><path fill="none" stroke="#000000" d="M 496 385 C 496 375.6111584 523.5344848 368 557.5 368 C 591.4655152 368 619 375.6111584 619 385 C 619 394.3888416 591.4655152 402 557.5 402 C 523.5344848 402 496 394.3888416 496 385 Z" stroke-miterlimit="10"/></g><g transform="translate(-110,-190) scale(1,1)"><g><path fill="none" stroke="none"/><text fill="#000000" stroke="none" font-family="Arial" font-size="13px" font-style="normal" font-weight="bold" text-decoration="none" x="518.5" y="392">查看个人中心</text></g></g><g transform="translate(-110,-190) scale(1,1)"><path fill="#C0C0C0" stroke="none" d="M 735 384 C 735 374.6111584 762.5344848 367 796.5 367 C 830.4655152 367 858 374.6111584 858 384 C 858 393.3888416 830.4655152 401 796.5 401 C 762.5344848 401 735 393.3888416 735 384 Z" opacity="0.2"/></g><g transform="translate(-110,-190) scale(1,1)"><path fill="#ffffff" stroke="none" d="M 728 377 C 728 367.6111584 755.5344848 360 789.5 360 C 823.4655152 360 851 367.6111584 851 377 C 851 386.3888416 823.4655152 394 789.5 394 C 755.5344848 394 728 386.3888416 728 377 Z"/></g><g transform="translate(-110,-190) scale(1,1)"><path fill="none" stroke="#000000" d="M 728 377 C 728 367.6111584 755.5344848 360 789.5 360 C 823.4655152 360 851 367.6111584 851 377 C 851 386.3888416 823.4655152 394 789.5 394 C 755.5344848 394 728 386.3888416 728 377 Z" stroke-miterlimit="10"/></g><g transform="translate(-110,-190) scale(1,1)"><g><path fill="none" stroke="none"/><text fill="#000000" stroke="none" font-family="Arial" font-size="13px" font-style="normal" font-weight="bold" text-decoration="none" x="750.5" y="384">查看我的收藏</text></g></g><g transform="translate(-110,-190) scale(1,1)"><path fill="none" stroke="#000000" d="M 620 383 L 727 379" stroke-miterlimit="10" stroke-dasharray="3"/></g><g transform="translate(-110,-190) scale(1,1)"><path fill="none" stroke="#000000" d="M 717.0016741929637 383.5862273227952 L 727 379 L 716.6871635813208 375.1730684613437" stroke-miterlimit="10"/></g><g transform="translate(-110,-190) scale(1,1)"><g><path fill="none" stroke="none"/><text fill="#000000" stroke="none" font-family="Arial" font-size="13px" font-style="normal" font-weight="normal" text-decoration="none" x="633.5" y="371.5">«include»</text></g></g><g transform="translate(-110,-190) scale(1,1)"><path fill="#C0C0C0" stroke="none" d="M 727 432 C 727 422.6111584 749.6096176 415 777.5 415 C 805.3903824 415 828 422.6111584 828 432 C 828 441.3888416 805.3903824 449 777.5 449 C 749.6096176 449 727 441.3888416 727 432 Z" opacity="0.2"/></g><g transform="translate(-110,-190) scale(1,1)"><path fill="#ffffff" stroke="none" d="M 720 425 C 720 415.6111584 742.6096176 408 770.5 408 C 798.3903824 408 821 415.6111584 821 425 C 821 434.3888416 798.3903824 442 770.5 442 C 742.6096176 442 720 434.3888416 720 425 Z"/></g><g transform="translate(-110,-190) scale(1,1)"><path fill="none" stroke="#000000" d="M 720 425 C 720 415.6111584 742.6096176 408 770.5 408 C 798.3903824 408 821 415.6111584 821 425 C 821 434.3888416 798.3903824 442 770.5 442 C 742.6096176 442 720 434.3888416 720 425 Z" stroke-miterlimit="10"/></g><g transform="translate(-110,-190) scale(1,1)"><g><path fill="none" stroke="none"/><text fill="#000000" stroke="none" font-family="Arial" font-size="13px" font-style="normal" font-weight="bold" text-decoration="none" x="744.5" y="432">会员服务</text></g></g><g transform="translate(-110,-190) scale(1,1)"><path fill="none" stroke="#000000" d="M 620 397 L 719 415" stroke-miterlimit="10" stroke-dasharray="3"/></g><g transform="translate(-110,-190) scale(1,1)"><path fill="none" stroke="#000000" d="M 708.2482285730592 417.32366331098535 L 719 415 L 709.7542714298503 409.04042759863455" stroke-miterlimit="10"/></g><g transform="translate(-110,-190) scale(1,1)"><g><path fill="none" stroke="none"/><text fill="#000000" stroke="none" font-family="Arial" font-size="13px" font-style="normal" font-weight="normal" text-decoration="none" x="658.5" y="393.5">«include»</text></g></g><g transform="translate(-110,-190) scale(1,1)"><path fill="none" stroke="#000000" d="M 182 564 L 628 299" stroke-miterlimit="10"/></g><g transform="translate(-110,-190) scale(1,1)"><path fill="none" stroke="#000000" d="M 621.4134353320194 307.81006049210276 L 628 299 L 617.1129419419177 300.57224897517676" stroke-miterlimit="10"/></g><g transform="translate(-110,-190) scale(1,1)"><path fill="none" stroke="#000000" d="M 182 567 L 520 403" stroke-miterlimit="10"/></g><g transform="translate(-110,-190) scale(1,1)"><path fill="none" stroke="#000000" d="M 512.6943700217903 411.22361055871954 L 520 403 L 509.0191687096603 403.64911029347604" stroke-miterlimit="10"/></g><g transform="translate(-110,-190) scale(1,1)"><path fill="none" stroke="#000000" d="M 150 727 L 150 624" stroke-miterlimit="10"/></g><g transform="translate(-110,-190) scale(1,1)"><path fill="#FFFFFF" stroke="none" d="M 158.41903551203197 644.3253497152483 L 150 624 L 141.58096448796803 644.3253497152483"/></g><g transform="translate(-110,-190) scale(1,1)"><path fill="none" stroke="#000000" d="M 158.41903551203197 644.3253497152483 L 150 624 L 141.58096448796803 644.3253497152483 L 158.41903551203197 644.3253497152483" stroke-miterlimit="10"/></g><g transform="translate(-110,-190) scale(1,1)"><path fill="#C0C0C0" stroke="none" d="M 519 512 C 519 502.6111584 546.5344848 495 580.5 495 C 614.4655152 495 642 502.6111584 642 512 C 642 521.3888416 614.4655152 529 580.5 529 C 546.5344848 529 519 521.3888416 519 512 Z" opacity="0.2"/></g><g transform="translate(-110,-190) scale(1,1)"><path fill="#ffffff" stroke="none" d="M 512 505 C 512 495.6111584 539.5344848 488 573.5 488 C 607.4655152 488 635 495.6111584 635 505 C 635 514.3888416 607.4655152 522 573.5 522 C 539.5344848 522 512 514.3888416 512 505 Z"/></g><g transform="translate(-110,-190) scale(1,1)"><path fill="none" stroke="#000000" d="M 512 505 C 512 495.6111584 539.5344848 488 573.5 488 C 607.4655152 488 635 495.6111584 635 505 C 635 514.3888416 607.4655152 522 573.5 522 C 539.5344848 522 512 514.3888416 512 505 Z" stroke-miterlimit="10"/></g><g transform="translate(-110,-190) scale(1,1)"><g><path fill="none" stroke="none"/><text fill="#000000" stroke="none" font-family="Arial" font-size="13px" font-style="normal" font-weight="bold" text-decoration="none" x="534.5" y="512">查看股票列表</text></g></g><g transform="translate(-110,-190) scale(1,1)"><path fill="#C0C0C0" stroke="none" d="M 519 464 C 519 454.6111584 546.5344848 447 580.5 447 C 614.4655152 447 642 454.6111584 642 464 C 642 473.3888416 614.4655152 481 580.5 481 C 546.5344848 481 519 473.3888416 519 464 Z" opacity="0.2"/></g><g transform="translate(-110,-190) scale(1,1)"><path fill="#ffffff" stroke="none" d="M 512 457 C 512 447.6111584 539.5344848 440 573.5 440 C 607.4655152 440 635 447.6111584 635 457 C 635 466.3888416 607.4655152 474 573.5 474 C 539.5344848 474 512 466.3888416 512 457 Z"/></g><g transform="translate(-110,-190) scale(1,1)"><path fill="none" stroke="#000000" d="M 512 457 C 512 447.6111584 539.5344848 440 573.5 440 C 607.4655152 440 635 447.6111584 635 457 C 635 466.3888416 607.4655152 474 573.5 474 C 539.5344848 474 512 466.3888416 512 457 Z" stroke-miterlimit="10"/></g><g transform="translate(-110,-190) scale(1,1)"><g><path fill="none" stroke="none"/><text fill="#000000" stroke="none" font-family="Arial" font-size="13px" font-style="normal" font-weight="bold" text-decoration="none" x="534.5" y="464">查看大盘数据</text></g></g><g transform="translate(-110,-190) scale(1,1)"><path fill="none" stroke="#000000" d="M 182 577 L 511 516" stroke-miterlimit="10"/></g><g transform="translate(-110,-190) scale(1,1)"><path fill="none" stroke="#000000" d="M 501.775036682416 521.9916651933523 L 511 516 L 500.2402187931204 513.713712970758" stroke-miterlimit="10"/></g><g transform="translate(-110,-190) scale(1,1)"><path fill="none" stroke="#000000" d="M 182 573 L 513 475" stroke-miterlimit="10"/></g><g transform="translate(-110,-190) scale(1,1)"><path fill="none" stroke="#000000" d="M 504.4504972004343 481.92141617591506 L 513 475 L 502.0604082812499 473.84876890805754" stroke-miterlimit="10"/></g><g transform="translate(-110,-190) scale(1,1)"><path fill="#C0C0C0" stroke="none" d="M 527 600 C 527 590.6111584 554.5344848 583 588.5 583 C 622.4655152 583 650 590.6111584 650 600 C 650 609.3888416 622.4655152 617 588.5 617 C 554.5344848 617 527 609.3888416 527 600 Z" opacity="0.2"/></g><g transform="translate(-110,-190) scale(1,1)"><path fill="#ffffff" stroke="none" d="M 520 593 C 520 583.6111584 547.5344848 576 581.5 576 C 615.4655152 576 643 583.6111584 643 593 C 643 602.3888416 615.4655152 610 581.5 610 C 547.5344848 610 520 602.3888416 520 593 Z"/></g><g transform="translate(-110,-190) scale(1,1)"><path fill="none" stroke="#000000" d="M 520 593 C 520 583.6111584 547.5344848 576 581.5 576 C 615.4655152 576 643 583.6111584 643 593 C 643 602.3888416 615.4655152 610 581.5 610 C 547.5344848 610 520 602.3888416 520 593 Z" stroke-miterlimit="10"/></g><g transform="translate(-110,-190) scale(1,1)"><g><path fill="none" stroke="none"/><text fill="#000000" stroke="none" font-family="Arial" font-size="13px" font-style="normal" font-weight="bold" text-decoration="none" x="542.5" y="600">查询公司概况</text></g></g><g transform="translate(-110,-190) scale(1,1)"><path fill="#C0C0C0" stroke="none" d="M 519 560 C 519 550.6111584 554.817216 543 599 543 C 643.182784 543 679 550.6111584 679 560 C 679 569.3888416 643.182784 577 599 577 C 554.817216 577 519 569.3888416 519 560 Z" opacity="0.2"/></g><g transform="translate(-110,-190) scale(1,1)"><path fill="#ffffff" stroke="none" d="M 512 553 C 512 543.6111584 547.817216 536 592 536 C 636.182784 536 672 543.6111584 672 553 C 672 562.3888416 636.182784 570 592 570 C 547.817216 570 512 562.3888416 512 553 Z"/></g><g transform="translate(-110,-190) scale(1,1)"><path fill="none" stroke="#000000" d="M 512 553 C 512 543.6111584 547.817216 536 592 536 C 636.182784 536 672 543.6111584 672 553 C 672 562.3888416 636.182784 570 592 570 C 547.817216 570 512 562.3888416 512 553 Z" stroke-miterlimit="10"/></g><g transform="translate(-110,-190) scale(1,1)"><g><path fill="none" stroke="none"/><text fill="#000000" stroke="none" font-family="Arial" font-size="13px" font-style="normal" font-weight="bold" text-decoration="none" x="540" y="560">查询单支股票行情</text></g></g><g transform="translate(-110,-190) scale(1,1)"><path fill="none" stroke="#000000" d="M 182 581 L 511 558" stroke-miterlimit="10"/></g><g transform="translate(-110,-190) scale(1,1)"><path fill="none" stroke="#000000" d="M 501.15563411949836 562.9079996343536 L 511 558 L 500.5685023059033 554.5094619529283" stroke-miterlimit="10"/></g><g transform="translate(-110,-190) scale(1,1)"><path fill="none" stroke="#000000" d="M 182 584 L 519 592" stroke-miterlimit="10"/></g><g transform="translate(-110,-190) scale(1,1)"><path fill="none" stroke="#000000" d="M 508.7402863793779 595.9671496597458 L 519 592 L 508.940088499438 587.5504853522143" stroke-miterlimit="10"/></g><g transform="translate(-110,-190) scale(1,1)"><path fill="none" stroke="#000000" d="M 182 793 L 328 911" stroke-miterlimit="10"/></g><g transform="translate(-110,-190) scale(1,1)"><path fill="none" stroke="#000000" d="M 317.4500327113772 907.8858082575106 L 328 911 L 322.74211268794795 901.3379804898892" stroke-miterlimit="10"/></g><g transform="translate(-110,-190) scale(1,1)"><path fill="#C0C0C0" stroke="none" d="M 519 920 C 519 910.6111584 546.5344848 903 580.5 903 C 614.4655152 903 642 910.6111584 642 920 C 642 929.3888416 614.4655152 937 580.5 937 C 546.5344848 937 519 929.3888416 519 920 Z" opacity="0.2"/></g><g transform="translate(-110,-190) scale(1,1)"><path fill="#ffffff" stroke="none" d="M 512 913 C 512 903.6111584 539.5344848 896 573.5 896 C 607.4655152 896 635 903.6111584 635 913 C 635 922.3888416 607.4655152 930 573.5 930 C 539.5344848 930 512 922.3888416 512 913 Z"/></g><g transform="translate(-110,-190) scale(1,1)"><path fill="none" stroke="#000000" d="M 512 913 C 512 903.6111584 539.5344848 896 573.5 896 C 607.4655152 896 635 903.6111584 635 913 C 635 922.3888416 607.4655152 930 573.5 930 C 539.5344848 930 512 922.3888416 512 913 Z" stroke-miterlimit="10"/></g><g transform="translate(-110,-190) scale(1,1)"><g><path fill="none" stroke="none"/><text fill="#000000" stroke="none" font-family="Arial" font-size="13px" font-style="normal" font-weight="bold" text-decoration="none" x="534.5" y="920">实盘运行策略</text></g></g><g transform="translate(-110,-190) scale(1,1)"><path fill="#C0C0C0" stroke="none" d="M 511 984 C 511 974.6111584 546.817216 967 591 967 C 635.182784 967 671 974.6111584 671 984 C 671 993.3888416 635.182784 1001 591 1001 C 546.817216 1001 511 993.3888416 511 984 Z" opacity="0.2"/></g><g transform="translate(-110,-190) scale(1,1)"><path fill="#ffffff" stroke="none" d="M 504 977 C 504 967.6111584 539.817216 960 584 960 C 628.182784 960 664 967.6111584 664 977 C 664 986.3888416 628.182784 994 584 994 C 539.817216 994 504 986.3888416 504 977 Z"/></g><g transform="translate(-110,-190) scale(1,1)"><path fill="none" stroke="#000000" d="M 504 977 C 504 967.6111584 539.817216 960 584 960 C 628.182784 960 664 967.6111584 664 977 C 664 986.3888416 628.182784 994 584 994 C 539.817216 994 504 986.3888416 504 977 Z" stroke-miterlimit="10"/></g><g transform="translate(-110,-190) scale(1,1)"><g><path fill="none" stroke="none"/><text fill="#000000" stroke="none" font-family="Arial" font-size="13px" font-style="normal" font-weight="bold" text-decoration="none" x="532" y="984">查看实盘交易日志</text></g></g><g transform="translate(-110,-190) scale(1,1)"><path fill="#C0C0C0" stroke="none" d="M 495 1080 C 495 1070.6111584 530.817216 1063 575 1063 C 619.182784 1063 655 1070.6111584 655 1080 C 655 1089.3888416 619.182784 1097 575 1097 C 530.817216 1097 495 1089.3888416 495 1080 Z" opacity="0.2"/></g><g transform="translate(-110,-190) scale(1,1)"><path fill="#ffffff" stroke="none" d="M 488 1073 C 488 1063.6111584 523.817216 1056 568 1056 C 612.182784 1056 648 1063.6111584 648 1073 C 648 1082.3888416 612.182784 1090 568 1090 C 523.817216 1090 488 1082.3888416 488 1073 Z"/></g><g transform="translate(-110,-190) scale(1,1)"><path fill="none" stroke="#000000" d="M 488 1073 C 488 1063.6111584 523.817216 1056 568 1056 C 612.182784 1056 648 1063.6111584 648 1073 C 648 1082.3888416 612.182784 1090 568 1090 C 523.817216 1090 488 1082.3888416 488 1073 Z" stroke-miterlimit="10"/></g><g transform="translate(-110,-190) scale(1,1)"><g><path fill="none" stroke="none"/><text fill="#000000" stroke="none" font-family="Arial" font-size="13px" font-style="normal" font-weight="bold" text-decoration="none" x="516" y="1080">查看实盘策略详情</text></g></g><g transform="translate(-110,-190) scale(1,1)"><path fill="#C0C0C0" stroke="none" d="M 774 1066 C 774 1056.6111584 809.817216 1049 854 1049 C 898.182784 1049 934 1056.6111584 934 1066 C 934 1075.3888416 898.182784 1083 854 1083 C 809.817216 1083 774 1075.3888416 774 1066 Z" opacity="0.2"/></g><g transform="translate(-110,-190) scale(1,1)"><path fill="#ffffff" stroke="none" d="M 767 1059 C 767 1049.6111584 802.817216 1042 847 1042 C 891.182784 1042 927 1049.6111584 927 1059 C 927 1068.3888416 891.182784 1076 847 1076 C 802.817216 1076 767 1068.3888416 767 1059 Z"/></g><g transform="translate(-110,-190) scale(1,1)"><path fill="none" stroke="#000000" d="M 767 1059 C 767 1049.6111584 802.817216 1042 847 1042 C 891.182784 1042 927 1049.6111584 927 1059 C 927 1068.3888416 891.182784 1076 847 1076 C 802.817216 1076 767 1068.3888416 767 1059 Z" stroke-miterlimit="10"/></g><g transform="translate(-110,-190) scale(1,1)"><g><path fill="none" stroke="none"/><text fill="#000000" stroke="none" font-family="Arial" font-size="13px" font-style="normal" font-weight="bold" text-decoration="none" x="795" y="1066">查看实盘策略收益</text></g></g><g transform="translate(-110,-190) scale(1,1)"><path fill="#C0C0C0" stroke="none" d="M 231 1072 C 231 1062.6111584 274.8760896 1055 329 1055 C 383.1239104 1055 427 1062.6111584 427 1072 C 427 1081.3888416 383.1239104 1089 329 1089 C 274.8760896 1089 231 1081.3888416 231 1072 Z" opacity="0.2"/></g><g transform="translate(-110,-190) scale(1,1)"><path fill="#ffffff" stroke="none" d="M 224 1065 C 224 1055.6111584 267.8760896 1048 322 1048 C 376.1239104 1048 420 1055.6111584 420 1065 C 420 1074.3888416 376.1239104 1082 322 1082 C 267.8760896 1082 224 1074.3888416 224 1065 Z"/></g><g transform="translate(-110,-190) scale(1,1)"><path fill="none" stroke="#000000" d="M 224 1065 C 224 1055.6111584 267.8760896 1048 322 1048 C 376.1239104 1048 420 1055.6111584 420 1065 C 420 1074.3888416 376.1239104 1082 322 1082 C 267.8760896 1082 224 1074.3888416 224 1065 Z" stroke-miterlimit="10"/></g><g transform="translate(-110,-190) scale(1,1)"><g><path fill="none" stroke="none"/><text fill="#000000" stroke="none" font-family="Arial" font-size="13px" font-style="normal" font-weight="bold" text-decoration="none" x="257" y="1072">查看实盘策略风险分析</text></g></g><g transform="translate(-110,-190) scale(1,1)"><path fill="none" stroke="#000000" d="M 649 1069 L 766 1063" stroke-miterlimit="10" stroke-dasharray="3"/></g><g transform="translate(-110,-190) scale(1,1)"><path fill="none" stroke="#000000" d="M 756.066251399568 1067.724472324336 L 766 1063 L 755.6350725839661 1059.3164854200982" stroke-miterlimit="10"/></g><g transform="translate(-110,-190) scale(1,1)"><g><path fill="none" stroke="none"/><text fill="#000000" stroke="none" font-family="Arial" font-size="13px" font-style="normal" font-weight="normal" text-decoration="none" x="674.5" y="1052.5">«include»</text></g></g><g transform="translate(-110,-190) scale(1,1)"><path fill="none" stroke="#000000" d="M 421 1068 L 487 1070" stroke-miterlimit="10" stroke-dasharray="3"/></g><g transform="translate(-110,-190) scale(1,1)"><path fill="none" stroke="#000000" d="M 476.7144853731307 1073.8997677957102 L 487 1070 L 476.9694906059478 1065.4845951127468" stroke-miterlimit="10"/></g><g transform="translate(-110,-190) scale(1,1)"><g><path fill="none" stroke="none"/><text fill="#000000" stroke="none" font-family="Arial" font-size="13px" font-style="normal" font-weight="normal" text-decoration="none" x="424.5" y="1060.5">+验证会员</text></g></g><g transform="translate(-110,-190) scale(1,1)"><g><path fill="none" stroke="none"/><text fill="#000000" stroke="none" font-family="Arial" font-size="13px" font-style="normal" font-weight="normal" text-decoration="none" x="429.5" y="1089.5">«extend»</text></g></g><g transform="translate(-110,-190) scale(1,1)"><path fill="none" stroke="#000000" d="M 182 608 L 550 895" stroke-miterlimit="10"/></g><g transform="translate(-110,-190) scale(1,1)"><path fill="none" stroke="#000000" d="M 539.3975220887759 892.0695628070196 L 550 895 L 544.5750479825906 885.430783960595" stroke-miterlimit="10"/></g><g transform="translate(-110,-190) scale(1,1)"><path fill="none" stroke="#000000" d="M 182 612 L 564 959" stroke-miterlimit="10"/></g><g transform="translate(-110,-190) scale(1,1)"><path fill="none" stroke="#000000" d="M 553.6471471675185 955.2826840020009 L 564 959 L 559.3079669075244 949.0508882075276" stroke-miterlimit="10"/></g><g transform="translate(-110,-190) scale(1,1)"><path fill="none" stroke="#000000" d="M 182 621 L 553 1055" stroke-miterlimit="10"/></g><g transform="translate(-110,-190) scale(1,1)"><path fill="none" stroke="#000000" d="M 543.1967411562512 1050.010399210111 L 553 1055 L 549.5962297478025 1044.539868639914" stroke-miterlimit="10"/></g><g transform="translate(-110,-190) scale(1,1)"><path fill="#ffffff" stroke="none" d="M 1216.4093503196023 385.68 C 1216.4093503196023 380.886167936 1220.2951926445478 377 1225.088623046875 377 C 1229.8820534492022 377 1233.7678957741477 380.886167936 1233.7678957741477 385.68 C 1233.7678957741477 390.473832064 1229.8820534492022 394.36 1225.088623046875 394.36 C 1220.2951926445478 394.36 1216.4093503196023 390.473832064 1216.4093503196023 385.68 Z"/></g><g transform="translate(-110,-190) scale(1,1)"><path fill="none" stroke="#000000" d="M 1216.4093503196023 385.68 C 1216.4093503196023 380.886167936 1220.2951926445478 377 1225.088623046875 377 C 1229.8820534492022 377 1233.7678957741477 380.886167936 1233.7678957741477 385.68 C 1233.7678957741477 390.473832064 1229.8820534492022 394.36 1225.088623046875 394.36 C 1220.2951926445478 394.36 1216.4093503196023 390.473832064 1216.4093503196023 385.68 Z" stroke-miterlimit="10"/></g><g transform="translate(-110,-190) scale(1,1)"><path fill="none" stroke="#000000" d="M 1225.088623046875 394.36 L 1225.088623046875 411.64" stroke-miterlimit="10"/></g><g transform="translate(-110,-190) scale(1,1)"><path fill="none" stroke="#000000" d="M 1215.8988048650567 400.84 L 1234.2784412286933 400.84" stroke-miterlimit="10"/></g><g transform="translate(-110,-190) scale(1,1)"><path fill="none" stroke="#000000" d="M 1225.088623046875 411.64 L 1212.3249866832386 429" stroke-miterlimit="10"/></g><g transform="translate(-110,-190) scale(1,1)"><path fill="none" stroke="#000000" d="M 1225.088623046875 411.64 L 1237.8522594105114 429" stroke-miterlimit="10"/></g><g transform="translate(-110,-190) scale(1,1)"><g><path fill="none" stroke="none"/><text fill="#000000" stroke="none" font-family="Arial" font-size="13px" font-style="normal" font-weight="bold" text-decoration="none" x="1205.588623046875" y="449.5">管理员</text></g></g><g transform="translate(-110,-190) scale(1,1)"><path fill="#C0C0C0" stroke="none" d="M 943 544 C 943 534.6111584 965.6096176 527 993.5 527 C 1021.3903824 527 1044 534.6111584 1044 544 C 1044 553.3888416 1021.3903824 561 993.5 561 C 965.6096176 561 943 553.3888416 943 544 Z" opacity="0.2"/></g><g transform="translate(-110,-190) scale(1,1)"><path fill="#ffffff" stroke="none" d="M 936 537 C 936 527.6111584 958.6096176 520 986.5 520 C 1014.3903824 520 1037 527.6111584 1037 537 C 1037 546.3888416 1014.3903824 554 986.5 554 C 958.6096176 554 936 546.3888416 936 537 Z"/></g><g transform="translate(-110,-190) scale(1,1)"><path fill="none" stroke="#000000" d="M 936 537 C 936 527.6111584 958.6096176 520 986.5 520 C 1014.3903824 520 1037 527.6111584 1037 537 C 1037 546.3888416 1014.3903824 554 986.5 554 C 958.6096176 554 936 546.3888416 936 537 Z" stroke-miterlimit="10"/></g><g transform="translate(-110,-190) scale(1,1)"><g><path fill="none" stroke="none"/><text fill="#000000" stroke="none" font-family="Arial" font-size="13px" font-style="normal" font-weight="bold" text-decoration="none" x="960.5" y="544">管理策略</text></g></g><g transform="translate(-110,-190) scale(1,1)"><path fill="#C0C0C0" stroke="none" d="M 787 528 C 787 518.6111584 809.6096176 511 837.5 511 C 865.3903824 511 888 518.6111584 888 528 C 888 537.3888416 865.3903824 545 837.5 545 C 809.6096176 545 787 537.3888416 787 528 Z" opacity="0.2"/></g><g transform="translate(-110,-190) scale(1,1)"><path fill="#ffffff" stroke="none" d="M 780 521 C 780 511.6111584 802.6096176 504 830.5 504 C 858.3903824 504 881 511.6111584 881 521 C 881 530.3888416 858.3903824 538 830.5 538 C 802.6096176 538 780 530.3888416 780 521 Z"/></g><g transform="translate(-110,-190) scale(1,1)"><path fill="none" stroke="#000000" d="M 780 521 C 780 511.6111584 802.6096176 504 830.5 504 C 858.3903824 504 881 511.6111584 881 521 C 881 530.3888416 858.3903824 538 830.5 538 C 802.6096176 538 780 530.3888416 780 521 Z" stroke-miterlimit="10"/></g><g transform="translate(-110,-190) scale(1,1)"><g><path fill="none" stroke="none"/><text fill="#000000" stroke="none" font-family="Arial" font-size="13px" font-style="normal" font-weight="bold" text-decoration="none" x="804.5" y="528">修改策略</text></g></g><g transform="translate(-110,-190) scale(1,1)"><path fill="#C0C0C0" stroke="none" d="M 787 488 C 787 478.6111584 809.6096176 471 837.5 471 C 865.3903824 471 888 478.6111584 888 488 C 888 497.3888416 865.3903824 505 837.5 505 C 809.6096176 505 787 497.3888416 787 488 Z" opacity="0.2"/></g><g transform="translate(-110,-190) scale(1,1)"><path fill="#ffffff" stroke="none" d="M 780 481 C 780 471.6111584 802.6096176 464 830.5 464 C 858.3903824 464 881 471.6111584 881 481 C 881 490.3888416 858.3903824 498 830.5 498 C 802.6096176 498 780 490.3888416 780 481 Z"/></g><g transform="translate(-110,-190) scale(1,1)"><path fill="none" stroke="#000000" d="M 780 481 C 780 471.6111584 802.6096176 464 830.5 464 C 858.3903824 464 881 471.6111584 881 481 C 881 490.3888416 858.3903824 498 830.5 498 C 802.6096176 498 780 490.3888416 780 481 Z" stroke-miterlimit="10"/></g><g transform="translate(-110,-190) scale(1,1)"><g><path fill="none" stroke="none"/><text fill="#000000" stroke="none" font-family="Arial" font-size="13px" font-style="normal" font-weight="bold" text-decoration="none" x="804.5" y="488">添加策略</text></g></g><g transform="translate(-110,-190) scale(1,1)"><path fill="#C0C0C0" stroke="none" d="M 787 576 C 787 566.6111584 809.6096176 559 837.5 559 C 865.3903824 559 888 566.6111584 888 576 C 888 585.3888416 865.3903824 593 837.5 593 C 809.6096176 593 787 585.3888416 787 576 Z" opacity="0.2"/></g><g transform="translate(-110,-190) scale(1,1)"><path fill="#ffffff" stroke="none" d="M 780 569 C 780 559.6111584 802.6096176 552 830.5 552 C 858.3903824 552 881 559.6111584 881 569 C 881 578.3888416 858.3903824 586 830.5 586 C 802.6096176 586 780 578.3888416 780 569 Z"/></g><g transform="translate(-110,-190) scale(1,1)"><path fill="none" stroke="#000000" d="M 780 569 C 780 559.6111584 802.6096176 552 830.5 552 C 858.3903824 552 881 559.6111584 881 569 C 881 578.3888416 858.3903824 586 830.5 586 C 802.6096176 586 780 578.3888416 780 569 Z" stroke-miterlimit="10"/></g><g transform="translate(-110,-190) scale(1,1)"><g><path fill="none" stroke="none"/><text fill="#000000" stroke="none" font-family="Arial" font-size="13px" font-style="normal" font-weight="bold" text-decoration="none" x="804.5" y="576">删除策略</text></g></g><g transform="translate(-110,-190) scale(1,1)"><path fill="#C0C0C0" stroke="none" d="M 895 608 C 895 598.6111584 926.5639216 591 965.5 591 C 1004.4360784 591 1036 598.6111584 1036 608 C 1036 617.3888416 1004.4360784 625 965.5 625 C 926.5639216 625 895 617.3888416 895 608 Z" opacity="0.2"/></g><g transform="translate(-110,-190) scale(1,1)"><path fill="#ffffff" stroke="none" d="M 888 601 C 888 591.6111584 919.5639216 584 958.5 584 C 997.4360784 584 1029 591.6111584 1029 601 C 1029 610.3888416 997.4360784 618 958.5 618 C 919.5639216 618 888 610.3888416 888 601 Z"/></g><g transform="translate(-110,-190) scale(1,1)"><path fill="none" stroke="#000000" d="M 888 601 C 888 591.6111584 919.5639216 584 958.5 584 C 997.4360784 584 1029 591.6111584 1029 601 C 1029 610.3888416 997.4360784 618 958.5 618 C 919.5639216 618 888 610.3888416 888 601 Z" stroke-miterlimit="10"/></g><g transform="translate(-110,-190) scale(1,1)"><g><path fill="none" stroke="none"/><text fill="#000000" stroke="none" font-family="Arial" font-size="13px" font-style="normal" font-weight="bold" text-decoration="none" x="913" y="608">管理股票数据源</text></g></g><g transform="translate(-110,-190) scale(1,1)"><path fill="#C0C0C0" stroke="none" d="M 943 496 C 943 486.6111584 965.6096176 479 993.5 479 C 1021.3903824 479 1044 486.6111584 1044 496 C 1044 505.3888416 1021.3903824 513 993.5 513 C 965.6096176 513 943 505.3888416 943 496 Z" opacity="0.2"/></g><g transform="translate(-110,-190) scale(1,1)"><path fill="#ffffff" stroke="none" d="M 936 489 C 936 479.6111584 958.6096176 472 986.5 472 C 1014.3903824 472 1037 479.6111584 1037 489 C 1037 498.3888416 1014.3903824 506 986.5 506 C 958.6096176 506 936 498.3888416 936 489 Z"/></g><g transform="translate(-110,-190) scale(1,1)"><path fill="none" stroke="#000000" d="M 936 489 C 936 479.6111584 958.6096176 472 986.5 472 C 1014.3903824 472 1037 479.6111584 1037 489 C 1037 498.3888416 1014.3903824 506 986.5 506 C 958.6096176 506 936 498.3888416 936 489 Z" stroke-miterlimit="10"/></g><g transform="translate(-110,-190) scale(1,1)"><g><path fill="none" stroke="none"/><text fill="#000000" stroke="none" font-family="Arial" font-size="13px" font-style="normal" font-weight="bold" text-decoration="none" x="960.5" y="496">管理用户</text></g></g><g transform="translate(-110,-190) scale(1,1)"><path fill="none" stroke="#000000" d="M 1199 428 L 1021 519" stroke-miterlimit="10"/></g><g transform="translate(-110,-190) scale(1,1)"><path fill="none" stroke="#000000" d="M 1028.1325712271182 510.6258476434874 L 1021 519 L 1031.9649093999708 518.122069564012" stroke-miterlimit="10"/></g><g transform="translate(-110,-190) scale(1,1)"><path fill="none" stroke="#000000" d="M 1199 433 L 984 583" stroke-miterlimit="10"/></g><g transform="translate(-110,-190) scale(1,1)"><path fill="none" stroke="#000000" d="M 989.9260749904075 573.7327655037726 L 984 583 L 994.7432921666655 580.637443456409" stroke-miterlimit="10"/></g><g transform="translate(-110,-190) scale(1,1)"><path fill="none" stroke="#000000" d="M 1199 423 L 1038 473" stroke-miterlimit="10"/></g><g transform="translate(-110,-190) scale(1,1)"><path fill="none" stroke="#000000" d="M 1046.4569345545312 465.96577950726754 L 1038 473 L 1048.9539007823323 474.0060107607873" stroke-miterlimit="10"/></g><g transform="translate(-110,-190) scale(1,1)"><path fill="none" stroke="#000000" d="M 936 519 L 880 499" stroke-miterlimit="10"/></g><g transform="translate(-110,-190) scale(1,1)"><path fill="none" stroke="#000000" d="M 890.9864308824939 498.45379814703415 L 880 499 L 888.1548028121775 506.38235674391996" stroke-miterlimit="10"/></g><g transform="translate(-110,-190) scale(1,1)"><path fill="none" stroke="#000000" d="M 935 532 L 882 526" stroke-miterlimit="10"/></g><g transform="translate(-110,-190) scale(1,1)"><path fill="none" stroke="#000000" d="M 892.5716965454799 522.9603894739147 L 882 526 L 891.6246475311161 531.3259891007943" stroke-miterlimit="10"/></g><g transform="translate(-110,-190) scale(1,1)"><path fill="none" stroke="#000000" d="M 935 547 L 882 558" stroke-miterlimit="10"/></g><g transform="translate(-110,-190) scale(1,1)"><path fill="none" stroke="#000000" d="M 891.0951755489203 551.8130959491583 L 882 558 L 892.8060621156244 560.056458497823" stroke-miterlimit="10"/></g><g transform="translate(-110,-190) scale(1,1)"><path fill="none" stroke="#000000" d="M 1199 409 L 710 293" stroke-miterlimit="10"/></g><g transform="translate(-110,-190) scale(1,1)"><path fill="none" stroke="#000000" d="M 720.8598758307945 291.2498294541031 L 710 293 L 718.9166493040353 299.44153438156206" stroke-miterlimit="10"/></g></g></svg>