<svg version="1.1" xmlns="http://www.w3.org/2000/svg" xmlns:xlink="http://www.w3.org/1999/xlink" width="497" height="274"><defs/><g><g transform="translate(-350,-210) scale(1,1)"><path fill="#C0C0C0" stroke="none" d="M 564 244 C 564 234.6111584 586.6096176 227 614.5 227 C 642.3903824 227 665 234.6111584 665 244 C 665 253.3888416 642.3903824 261 614.5 261 C 586.6096176 261 564 253.3888416 564 244 Z" opacity="0.2"/></g><g transform="translate(-350,-210) scale(1,1)"><path fill="#ffffff" stroke="none" d="M 557 237 C 557 227.6111584 579.6096176 220 607.5 220 C 635.3903824 220 658 227.6111584 658 237 C 658 246.3888416 635.3903824 254 607.5 254 C 579.6096176 254 557 246.3888416 557 237 Z"/></g><g transform="translate(-350,-210) scale(1,1)"><path fill="none" stroke="#000000" d="M 557 237 C 557 227.6111584 579.6096176 220 607.5 220 C 635.3903824 220 658 227.6111584 658 237 C 658 246.3888416 635.3903824 254 607.5 254 C 579.6096176 254 557 246.3888416 557 237 Z" stroke-miterlimit="10"/></g><g transform="translate(-350,-210) scale(1,1)"><g><path fill="none" stroke="none"/><text fill="#000000" stroke="none" font-family="Arial" font-size="13px" font-style="normal" font-weight="bold" text-decoration="none" x="594.5" y="244">登录</text></g></g><g transform="translate(-350,-210) scale(1,1)"><path fill="#C0C0C0" stroke="none" d="M 732 244 C 732 234.6111584 754.6096176 227 782.5 227 C 810.3903824 227 833 234.6111584 833 244 C 833 253.3888416 810.3903824 261 782.5 261 C 754.6096176 261 732 253.3888416 732 244 Z" opacity="0.2"/></g><g transform="translate(-350,-210) scale(1,1)"><path fill="#ffffff" stroke="none" d="M 725 237 C 725 227.6111584 747.6096176 220 775.5 220 C 803.3903824 220 826 227.6111584 826 237 C 826 246.3888416 803.3903824 254 775.5 254 C 747.6096176 254 725 246.3888416 725 237 Z"/></g><g transform="translate(-350,-210) scale(1,1)"><path fill="none" stroke="#000000" d="M 725 237 C 725 227.6111584 747.6096176 220 775.5 220 C 803.3903824 220 826 227.6111584 826 237 C 826 246.3888416 803.3903824 254 775.5 254 C 747.6096176 254 725 246.3888416 725 237 Z" stroke-miterlimit="10"/></g><g transform="translate(-350,-210) scale(1,1)"><g><path fill="none" stroke="none"/><text fill="#000000" stroke="none" font-family="Arial" font-size="13px" font-style="normal" font-weight="bold" text-decoration="none" x="762.5" y="244">注册</text></g></g><g transform="translate(-350,-210) scale(1,1)"><path fill="none" stroke="#000000" d="M 724 237 L 659 237" stroke-miterlimit="10" stroke-dasharray="3"/></g><g transform="translate(-350,-210) scale(1,1)"><path fill="none" stroke="#000000" d="M 669.1626748576241 232.790482243984 L 659 237 L 669.1626748576241 241.209517756016" stroke-miterlimit="10"/></g><g transform="translate(-350,-210) scale(1,1)"><g><path fill="none" stroke="none"/><text fill="#000000" stroke="none" font-family="Arial" font-size="13px" font-style="normal" font-weight="normal" text-decoration="none" x="670.5" y="262.5">«extend»</text></g></g><g transform="translate(-350,-210) scale(1,1)"><path fill="none" stroke="#000000" d="M 411 331 L 569 255" stroke-miterlimit="10"/></g><g transform="translate(-350,-210) scale(1,1)"><path fill="none" stroke="#000000" d="M 561.6664460595117 263.1987185951189 L 569 255 L 558.0170247628346 255.61176379413223" stroke-miterlimit="10"/></g><g transform="translate(-350,-210) scale(1,1)"><path fill="#ffffff" stroke="none" d="M 376.40935031960225 313.68 C 376.40935031960225 308.886167936 380.29519264454774 305 385.088623046875 305 C 389.88205344920226 305 393.76789577414775 308.886167936 393.76789577414775 313.68 C 393.76789577414775 318.473832064 389.88205344920226 322.36 385.088623046875 322.36 C 380.29519264454774 322.36 376.40935031960225 318.473832064 376.40935031960225 313.68 Z"/></g><g transform="translate(-350,-210) scale(1,1)"><path fill="none" stroke="#000000" d="M 376.40935031960225 313.68 C 376.40935031960225 308.886167936 380.29519264454774 305 385.088623046875 305 C 389.88205344920226 305 393.76789577414775 308.886167936 393.76789577414775 313.68 C 393.76789577414775 318.473832064 389.88205344920226 322.36 385.088623046875 322.36 C 380.29519264454774 322.36 376.40935031960225 318.473832064 376.40935031960225 313.68 Z" stroke-miterlimit="10"/></g><g transform="translate(-350,-210) scale(1,1)"><path fill="none" stroke="#000000" d="M 385.088623046875 322.36 L 385.088623046875 339.64" stroke-miterlimit="10"/></g><g transform="translate(-350,-210) scale(1,1)"><path fill="none" stroke="#000000" d="M 375.89880486505683 328.84 L 394.27844122869317 328.84" stroke-miterlimit="10"/></g><g transform="translate(-350,-210) scale(1,1)"><path fill="none" stroke="#000000" d="M 385.088623046875 339.64 L 372.32498668323865 357" stroke-miterlimit="10"/></g><g transform="translate(-350,-210) scale(1,1)"><path fill="none" stroke="#000000" d="M 385.088623046875 339.64 L 397.85225941051135 357" stroke-miterlimit="10"/></g><g transform="translate(-350,-210) scale(1,1)"><g><path fill="none" stroke="none"/><text fill="#000000" stroke="none" font-family="Arial" font-size="13px" font-style="normal" font-weight="bold" text-decoration="none" x="365.588623046875" y="377.5">管理员</text></g></g><g transform="translate(-350,-210) scale(1,1)"><path fill="#C0C0C0" stroke="none" d="M 575 344 C 575 334.6111584 597.6096176 327 625.5 327 C 653.3903824 327 676 334.6111584 676 344 C 676 353.3888416 653.3903824 361 625.5 361 C 597.6096176 361 575 353.3888416 575 344 Z" opacity="0.2"/></g><g transform="translate(-350,-210) scale(1,1)"><path fill="#ffffff" stroke="none" d="M 568 337 C 568 327.6111584 590.6096176 320 618.5 320 C 646.3903824 320 669 327.6111584 669 337 C 669 346.3888416 646.3903824 354 618.5 354 C 590.6096176 354 568 346.3888416 568 337 Z"/></g><g transform="translate(-350,-210) scale(1,1)"><path fill="none" stroke="#000000" d="M 568 337 C 568 327.6111584 590.6096176 320 618.5 320 C 646.3903824 320 669 327.6111584 669 337 C 669 346.3888416 646.3903824 354 618.5 354 C 590.6096176 354 568 346.3888416 568 337 Z" stroke-miterlimit="10"/></g><g transform="translate(-350,-210) scale(1,1)"><g><path fill="none" stroke="none"/><text fill="#000000" stroke="none" font-family="Arial" font-size="13px" font-style="normal" font-weight="bold" text-decoration="none" x="592.5" y="344">管理策略</text></g></g><g transform="translate(-350,-210) scale(1,1)"><path fill="#C0C0C0" stroke="none" d="M 743 344 C 743 334.6111584 765.6096176 327 793.5 327 C 821.3903824 327 844 334.6111584 844 344 C 844 353.3888416 821.3903824 361 793.5 361 C 765.6096176 361 743 353.3888416 743 344 Z" opacity="0.2"/></g><g transform="translate(-350,-210) scale(1,1)"><path fill="#ffffff" stroke="none" d="M 736 337 C 736 327.6111584 758.6096176 320 786.5 320 C 814.3903824 320 837 327.6111584 837 337 C 837 346.3888416 814.3903824 354 786.5 354 C 758.6096176 354 736 346.3888416 736 337 Z"/></g><g transform="translate(-350,-210) scale(1,1)"><path fill="none" stroke="#000000" d="M 736 337 C 736 327.6111584 758.6096176 320 786.5 320 C 814.3903824 320 837 327.6111584 837 337 C 837 346.3888416 814.3903824 354 786.5 354 C 758.6096176 354 736 346.3888416 736 337 Z" stroke-miterlimit="10"/></g><g transform="translate(-350,-210) scale(1,1)"><g><path fill="none" stroke="none"/><text fill="#000000" stroke="none" font-family="Arial" font-size="13px" font-style="normal" font-weight="bold" text-decoration="none" x="760.5" y="344">修改策略</text></g></g><g transform="translate(-350,-210) scale(1,1)"><path fill="#C0C0C0" stroke="none" d="M 743 304 C 743 294.6111584 765.6096176 287 793.5 287 C 821.3903824 287 844 294.6111584 844 304 C 844 313.3888416 821.3903824 321 793.5 321 C 765.6096176 321 743 313.3888416 743 304 Z" opacity="0.2"/></g><g transform="translate(-350,-210) scale(1,1)"><path fill="#ffffff" stroke="none" d="M 736 297 C 736 287.6111584 758.6096176 280 786.5 280 C 814.3903824 280 837 287.6111584 837 297 C 837 306.3888416 814.3903824 314 786.5 314 C 758.6096176 314 736 306.3888416 736 297 Z"/></g><g transform="translate(-350,-210) scale(1,1)"><path fill="none" stroke="#000000" d="M 736 297 C 736 287.6111584 758.6096176 280 786.5 280 C 814.3903824 280 837 287.6111584 837 297 C 837 306.3888416 814.3903824 314 786.5 314 C 758.6096176 314 736 306.3888416 736 297 Z" stroke-miterlimit="10"/></g><g transform="translate(-350,-210) scale(1,1)"><g><path fill="none" stroke="none"/><text fill="#000000" stroke="none" font-family="Arial" font-size="13px" font-style="normal" font-weight="bold" text-decoration="none" x="760.5" y="304">添加策略</text></g></g><g transform="translate(-350,-210) scale(1,1)"><path fill="#C0C0C0" stroke="none" d="M 743 392 C 743 382.6111584 765.6096176 375 793.5 375 C 821.3903824 375 844 382.6111584 844 392 C 844 401.3888416 821.3903824 409 793.5 409 C 765.6096176 409 743 401.3888416 743 392 Z" opacity="0.2"/></g><g transform="translate(-350,-210) scale(1,1)"><path fill="#ffffff" stroke="none" d="M 736 385 C 736 375.6111584 758.6096176 368 786.5 368 C 814.3903824 368 837 375.6111584 837 385 C 837 394.3888416 814.3903824 402 786.5 402 C 758.6096176 402 736 394.3888416 736 385 Z"/></g><g transform="translate(-350,-210) scale(1,1)"><path fill="none" stroke="#000000" d="M 736 385 C 736 375.6111584 758.6096176 368 786.5 368 C 814.3903824 368 837 375.6111584 837 385 C 837 394.3888416 814.3903824 402 786.5 402 C 758.6096176 402 736 394.3888416 736 385 Z" stroke-miterlimit="10"/></g><g transform="translate(-350,-210) scale(1,1)"><g><path fill="none" stroke="none"/><text fill="#000000" stroke="none" font-family="Arial" font-size="13px" font-style="normal" font-weight="bold" text-decoration="none" x="760.5" y="392">删除策略</text></g></g><g transform="translate(-350,-210) scale(1,1)"><path fill="#C0C0C0" stroke="none" d="M 559 408 C 559 398.6111584 590.5639216 391 629.5 391 C 668.4360784 391 700 398.6111584 700 408 C 700 417.3888416 668.4360784 425 629.5 425 C 590.5639216 425 559 417.3888416 559 408 Z" opacity="0.2"/></g><g transform="translate(-350,-210) scale(1,1)"><path fill="#ffffff" stroke="none" d="M 552 401 C 552 391.6111584 583.5639216 384 622.5 384 C 661.4360784 384 693 391.6111584 693 401 C 693 410.3888416 661.4360784 418 622.5 418 C 583.5639216 418 552 410.3888416 552 401 Z"/></g><g transform="translate(-350,-210) scale(1,1)"><path fill="none" stroke="#000000" d="M 552 401 C 552 391.6111584 583.5639216 384 622.5 384 C 661.4360784 384 693 391.6111584 693 401 C 693 410.3888416 661.4360784 418 622.5 418 C 583.5639216 418 552 410.3888416 552 401 Z" stroke-miterlimit="10"/></g><g transform="translate(-350,-210) scale(1,1)"><g><path fill="none" stroke="none"/><text fill="#000000" stroke="none" font-family="Arial" font-size="13px" font-style="normal" font-weight="bold" text-decoration="none" x="577" y="408">管理股票数据源</text></g></g><g transform="translate(-350,-210) scale(1,1)"><path fill="#C0C0C0" stroke="none" d="M 575 464 C 575 454.6111584 597.6096176 447 625.5 447 C 653.3903824 447 676 454.6111584 676 464 C 676 473.3888416 653.3903824 481 625.5 481 C 597.6096176 481 575 473.3888416 575 464 Z" opacity="0.2"/></g><g transform="translate(-350,-210) scale(1,1)"><path fill="#ffffff" stroke="none" d="M 568 457 C 568 447.6111584 590.6096176 440 618.5 440 C 646.3903824 440 669 447.6111584 669 457 C 669 466.3888416 646.3903824 474 618.5 474 C 590.6096176 474 568 466.3888416 568 457 Z"/></g><g transform="translate(-350,-210) scale(1,1)"><path fill="none" stroke="#000000" d="M 568 457 C 568 447.6111584 590.6096176 440 618.5 440 C 646.3903824 440 669 447.6111584 669 457 C 669 466.3888416 646.3903824 474 618.5 474 C 590.6096176 474 568 466.3888416 568 457 Z" stroke-miterlimit="10"/></g><g transform="translate(-350,-210) scale(1,1)"><g><path fill="none" stroke="none"/><text fill="#000000" stroke="none" font-family="Arial" font-size="13px" font-style="normal" font-weight="bold" text-decoration="none" x="592.5" y="464">管理用户</text></g></g><g transform="translate(-350,-210) scale(1,1)"><path fill="none" stroke="#000000" d="M 411 342 L 567 338" stroke-miterlimit="10"/></g><g transform="translate(-350,-210) scale(1,1)"><path fill="none" stroke="#000000" d="M 556.9485651713802 342.4686304262053 L 567 338 L 556.732763395042 334.0523611490146" stroke-miterlimit="10"/></g><g transform="translate(-350,-210) scale(1,1)"><path fill="none" stroke="#000000" d="M 411 349 L 551 384" stroke-miterlimit="10"/></g><g transform="translate(-350,-210) scale(1,1)"><path fill="none" stroke="#000000" d="M 540.1197991854035 385.61902138159263 L 551 384 L 542.1617152255172 377.4513572211376" stroke-miterlimit="10"/></g><g transform="translate(-350,-210) scale(1,1)"><path fill="none" stroke="#000000" d="M 411 356 L 581 439" stroke-miterlimit="10"/></g><g transform="translate(-350,-210) scale(1,1)"><path fill="none" stroke="#000000" d="M 570.0207907789312 438.32400822490416 L 581 439 L 573.714525075913 430.7585283395197" stroke-miterlimit="10"/></g><g transform="translate(-350,-210) scale(1,1)"><path fill="none" stroke="#000000" d="M 670 325 L 735 309" stroke-miterlimit="10"/></g><g transform="translate(-350,-210) scale(1,1)"><path fill="none" stroke="#000000" d="M 726.1380464263585 315.51657723491576 L 735 309 L 724.125736580583 307.3415684864525" stroke-miterlimit="10"/></g><g transform="translate(-350,-210) scale(1,1)"><path fill="none" stroke="#000000" d="M 670 337 L 735 337" stroke-miterlimit="10"/></g><g transform="translate(-350,-210) scale(1,1)"><path fill="none" stroke="#000000" d="M 724.8373251423759 341.209517756016 L 735 337 L 724.8373251423758 332.790482243984" stroke-miterlimit="10"/></g><g transform="translate(-350,-210) scale(1,1)"><path fill="none" stroke="#000000" d="M 670 352 L 735 370" stroke-miterlimit="10"/></g><g transform="translate(-350,-210) scale(1,1)"><path fill="none" stroke="#000000" d="M 724.0824928986139 371.3446332924568 L 735 370 L 726.3293573756522 363.230956014263" stroke-miterlimit="10"/></g></g></svg>