<svg id="SvgjsSvg1006" width="372" height="440.5" xmlns="http://www.w3.org/2000/svg" version="1.1" xmlns:xlink="http://www.w3.org/1999/xlink" xmlns:svgjs="http://svgjs.com/svgjs"><defs id="SvgjsDefs1007"></defs><g id="SvgjsG1008" transform="translate(25,31.5)"><path id="SvgjsPath1009" d="M 0 4Q 0 0 4 0L 139 0Q 143 0 143 4L 143 24Q 143 28 139 28L 4 28Q 0 28 0 24Z" stroke="rgba(255,255,255,1)" stroke-width="2" fill-opacity="1" fill="#ffffff"></path><g id="SvgjsG1010"><text id="SvgjsText1011" font-family="微软雅黑" text-anchor="middle" font-size="17px" width="123px" fill="#000000" font-weight="700" align="middle" lineHeight="125%" anchor="middle" family="微软雅黑" size="17px" weight="700" font-style="" opacity="1" y="-0.625" transform="rotate(0)"><tspan id="SvgjsTspan1012" dy="21" x="71.5"><tspan id="SvgjsTspan1013" style="text-decoration:;">外部质量属性</tspan></tspan></text></g></g><g id="SvgjsG1014" transform="translate(196,25)"><path id="SvgjsPath1015" d="M 0 4Q 0 0 4 0L 147 0Q 151 0 151 4L 151 37Q 151 41 147 41L 4 41Q 0 41 0 37Z" stroke="rgba(255,255,255,1)" stroke-width="2" fill-opacity="1" fill="#ffffff"></path><g id="SvgjsG1016"><text id="SvgjsText1017" font-family="微软雅黑" text-anchor="middle" font-size="17px" width="131px" fill="#000000" font-weight="700" align="middle" lineHeight="125%" anchor="middle" family="微软雅黑" size="17px" weight="700" font-style="" opacity="1" y="5.875" transform="rotate(0)"><tspan id="SvgjsTspan1018" dy="21" x="75.5"><tspan id="SvgjsTspan1019" style="text-decoration:;">内部质量属性</tspan></tspan></text></g></g><g id="SvgjsG1020" transform="translate(201.5,72.5)"><path id="SvgjsPath1021" d="M 0 0L 140 0L 140 211L 0 211Z" stroke-dasharray="10,6,3,6" stroke="rgba(255,0,0,1)" stroke-width="2" fill-opacity="1" fill="#ffffff"></path><g id="SvgjsG1022"><text id="SvgjsText1023" font-family="微软雅黑" text-anchor="middle" font-size="21px" width="120px" fill="#ffffff" font-weight="700" align="middle" lineHeight="125%" anchor="middle" family="微软雅黑" size="21px" weight="700" font-style="" opacity="1" y="86.875" transform="rotate(0)"></text></g></g><g id="SvgjsG1024" transform="translate(25.5,72.5)"><path id="SvgjsPath1025" d="M 0 0L 142 0L 142 343L 0 343Z" stroke-dasharray="10,6,3,6" stroke="rgba(255,0,0,1)" stroke-width="2" fill-opacity="1" fill="#ffffff"></path><g id="SvgjsG1026"><text id="SvgjsText1027" font-family="微软雅黑" text-anchor="middle" font-size="21px" width="122px" fill="#ffffff" font-weight="700" align="middle" lineHeight="125%" anchor="middle" family="微软雅黑" size="21px" weight="700" font-style="" opacity="1" y="152.875" transform="rotate(0)"></text></g></g><g id="SvgjsG1028" transform="translate(36.5,82.5)"><path id="SvgjsPath1029" d="M 0 0L 120 0L 120 53L 0 53Z" stroke="rgba(255,255,255,1)" stroke-width="2" fill-opacity="1" fill="#004b96"></path><g id="SvgjsG1030"><text id="SvgjsText1031" font-family="微软雅黑" text-anchor="middle" font-size="21px" width="100px" fill="#ffffff" font-weight="700" align="middle" lineHeight="125%" anchor="middle" family="微软雅黑" size="21px" weight="700" font-style="" opacity="1" y="7.875" transform="rotate(0)"><tspan id="SvgjsTspan1032" dy="26" x="60"><tspan id="SvgjsTspan1033" style="text-decoration:;">性能</tspan></tspan></text></g></g><g id="SvgjsG1034" transform="translate(36.5,148.5)"><path id="SvgjsPath1035" d="M 0 0L 120 0L 120 53L 0 53Z" stroke="rgba(255,255,255,1)" stroke-width="2" fill-opacity="1" fill="#004b96"></path><g id="SvgjsG1036"><text id="SvgjsText1037" font-family="微软雅黑" text-anchor="middle" font-size="21px" width="100px" fill="#ffffff" font-weight="700" align="middle" lineHeight="125%" anchor="middle" family="微软雅黑" size="21px" weight="700" font-style="" opacity="1" y="7.875" transform="rotate(0)"><tspan id="SvgjsTspan1038" dy="26" x="60"><tspan id="SvgjsTspan1039" style="text-decoration:;">安全性</tspan></tspan></text></g></g><g id="SvgjsG1040" transform="translate(36.5,214.5)"><path id="SvgjsPath1041" d="M 0 0L 120 0L 120 53L 0 53Z" stroke="rgba(255,255,255,1)" stroke-width="2" fill-opacity="1" fill="#004b96"></path><g id="SvgjsG1042"><text id="SvgjsText1043" font-family="微软雅黑" text-anchor="middle" font-size="21px" width="100px" fill="#ffffff" font-weight="700" align="middle" lineHeight="125%" anchor="middle" family="微软雅黑" size="21px" weight="700" font-style="" opacity="1" y="7.875" transform="rotate(0)"><tspan id="SvgjsTspan1044" dy="26" x="60"><tspan id="SvgjsTspan1045" style="text-decoration:;">易用性</tspan></tspan></text></g></g><g id="SvgjsG1046" transform="translate(36.5,280.5)"><path id="SvgjsPath1047" d="M 0 0L 120 0L 120 53L 0 53Z" stroke="rgba(255,255,255,1)" stroke-width="2" fill-opacity="1" fill="#004b96"></path><g id="SvgjsG1048"><text id="SvgjsText1049" font-family="微软雅黑" text-anchor="middle" font-size="21px" width="100px" fill="#ffffff" font-weight="700" align="middle" lineHeight="125%" anchor="middle" family="微软雅黑" size="21px" weight="700" font-style="" opacity="1" y="7.875" transform="rotate(0)"><tspan id="SvgjsTspan1050" dy="26" x="60"><tspan id="SvgjsTspan1051" style="text-decoration:;">互操作性</tspan></tspan></text></g></g><g id="SvgjsG1052" transform="translate(211.5,217.5)"><path id="SvgjsPath1053" d="M 0 0L 120 0L 120 53L 0 53Z" stroke="rgba(255,255,255,1)" stroke-width="2" fill-opacity="1" fill="#004b96"></path><g id="SvgjsG1054"><text id="SvgjsText1055" font-family="微软雅黑" text-anchor="middle" font-size="21px" width="100px" fill="#ffffff" font-weight="700" align="middle" lineHeight="125%" anchor="middle" family="微软雅黑" size="21px" weight="700" font-style="" opacity="1" y="7.875" transform="rotate(0)"><tspan id="SvgjsTspan1056" dy="26" x="60"><tspan id="SvgjsTspan1057" style="text-decoration:;">可集成性</tspan></tspan></text></g></g><g id="SvgjsG1058" transform="translate(211.5,85.5)"><path id="SvgjsPath1059" d="M 0 0L 120 0L 120 53L 0 53Z" stroke="rgba(255,255,255,1)" stroke-width="2" fill-opacity="1" fill="#004b96"></path><g id="SvgjsG1060"><text id="SvgjsText1061" font-family="微软雅黑" text-anchor="middle" font-size="21px" width="100px" fill="#ffffff" font-weight="700" align="middle" lineHeight="125%" anchor="middle" family="微软雅黑" size="21px" weight="700" font-style="" opacity="1" y="7.875" transform="rotate(0)"><tspan id="SvgjsTspan1062" dy="26" x="60"><tspan id="SvgjsTspan1063" style="text-decoration:;">可维护性</tspan></tspan></text></g></g><g id="SvgjsG1064" transform="translate(211.5,151.5)"><path id="SvgjsPath1065" d="M 0 0L 120 0L 120 53L 0 53Z" stroke="rgba(255,255,255,1)" stroke-width="2" fill-opacity="1" fill="#004b96"></path><g id="SvgjsG1066"><text id="SvgjsText1067" font-family="微软雅黑" text-anchor="middle" font-size="21px" width="100px" fill="#ffffff" font-weight="700" align="middle" lineHeight="125%" anchor="middle" family="微软雅黑" size="21px" weight="700" font-style="" opacity="1" y="7.875" transform="rotate(0)"><tspan id="SvgjsTspan1068" dy="26" x="60"><tspan id="SvgjsTspan1069" style="text-decoration:;">可修改性</tspan></tspan></text></g></g><g id="SvgjsG1070" transform="translate(36.5,346.5)"><path id="SvgjsPath1071" d="M 0 0L 120 0L 120 53L 0 53Z" stroke="rgba(255,255,255,1)" stroke-width="2" fill-opacity="1" fill="#004b96"></path><g id="SvgjsG1072"><text id="SvgjsText1073" font-family="微软雅黑" text-anchor="middle" font-size="21px" width="100px" fill="#ffffff" font-weight="700" align="middle" lineHeight="125%" anchor="middle" family="微软雅黑" size="21px" weight="700" font-style="" opacity="1" y="7.875" transform="rotate(0)"><tspan id="SvgjsTspan1074" dy="26" x="60"><tspan id="SvgjsTspan1075" style="text-decoration:;">可靠性</tspan></tspan></text></g></g></svg>