<svg id="SvgjsSvg1006" width="392" height="352" xmlns="http://www.w3.org/2000/svg" version="1.1" xmlns:xlink="http://www.w3.org/1999/xlink" xmlns:svgjs="http://svgjs.com/svgjs"><defs id="SvgjsDefs1007"></defs><g id="SvgjsG1008" transform="translate(25,25)"><path id="SvgjsPath1009" d="M 0 4Q 0 0 4 0L 96 0Q 100 0 100 4L 100 30Q 100 34 96 34L 4 34Q 0 34 0 30Z" stroke="rgba(255,255,255,1)" stroke-width="2" fill-opacity="1" fill="#ffffff"></path><g id="SvgjsG1010"><text id="SvgjsText1011" font-family="微软雅黑" text-anchor="middle" font-size="12px" width="80px" fill="#000000" font-weight="700" align="middle" lineHeight="125%" anchor="middle" family="微软雅黑" size="12px" weight="700" font-style="" opacity="1" y="7" transform="rotate(0)"><tspan id="SvgjsTspan1012" dy="15" x="50"><tspan id="SvgjsTspan1013" style="text-decoration:;">功能属性</tspan></tspan></text></g></g><g id="SvgjsG1014" transform="translate(199,25)"><path id="SvgjsPath1015" d="M 0 4Q 0 0 4 0L 96 0Q 100 0 100 4L 100 30Q 100 34 96 34L 4 34Q 0 34 0 30Z" stroke="rgba(255,255,255,1)" stroke-width="2" fill-opacity="1" fill="#ffffff"></path><g id="SvgjsG1016"><text id="SvgjsText1017" font-family="微软雅黑" text-anchor="middle" font-size="12px" width="80px" fill="#000000" font-weight="700" align="middle" lineHeight="125%" anchor="middle" family="微软雅黑" size="12px" weight="700" font-style="" opacity="1" y="7" transform="rotate(0)"><tspan id="SvgjsTspan1018" dy="15" x="50"><tspan id="SvgjsTspan1019" style="text-decoration:;">结构属性</tspan></tspan></text></g></g><g id="SvgjsG1020" transform="translate(225,53)"><path id="SvgjsPath1021" d="M 0 0L 142 0L 142 274L 0 274Z" stroke-dasharray="10,6,3,6" stroke="rgba(255,0,0,1)" stroke-width="2" fill-opacity="1" fill="#ffffff"></path><g id="SvgjsG1022"><text id="SvgjsText1023" font-family="微软雅黑" text-anchor="middle" font-size="21px" width="122px" fill="#ffffff" font-weight="700" align="middle" lineHeight="125%" anchor="middle" family="微软雅黑" size="21px" weight="700" font-style="" opacity="1" y="118.375" transform="rotate(0)"></text></g></g><g id="SvgjsG1024" transform="translate(49,53)"><path id="SvgjsPath1025" d="M 0 0L 142 0L 142 274L 0 274Z" stroke-dasharray="10,6,3,6" stroke="rgba(255,0,0,1)" stroke-width="2" fill-opacity="1" fill="#ffffff"></path><g id="SvgjsG1026"><text id="SvgjsText1027" font-family="微软雅黑" text-anchor="middle" font-size="21px" width="122px" fill="#ffffff" font-weight="700" align="middle" lineHeight="125%" anchor="middle" family="微软雅黑" size="21px" weight="700" font-style="" opacity="1" y="118.375" transform="rotate(0)"></text></g></g><g id="SvgjsG1028" transform="translate(60,63)"><path id="SvgjsPath1029" d="M 0 0L 120 0L 120 53L 0 53Z" stroke="rgba(255,255,255,1)" stroke-width="2" fill-opacity="1" fill="#004b96"></path><g id="SvgjsG1030"><text id="SvgjsText1031" font-family="微软雅黑" text-anchor="middle" font-size="21px" width="100px" fill="#ffffff" font-weight="700" align="middle" lineHeight="125%" anchor="middle" family="微软雅黑" size="21px" weight="700" font-style="" opacity="1" y="7.875" transform="rotate(0)"><tspan id="SvgjsTspan1032" dy="26" x="60"><tspan id="SvgjsTspan1033" style="text-decoration:;">性能</tspan></tspan></text></g></g><g id="SvgjsG1034" transform="translate(60,129)"><path id="SvgjsPath1035" d="M 0 0L 120 0L 120 53L 0 53Z" stroke="rgba(255,255,255,1)" stroke-width="2" fill-opacity="1" fill="#004b96"></path><g id="SvgjsG1036"><text id="SvgjsText1037" font-family="微软雅黑" text-anchor="middle" font-size="21px" width="100px" fill="#ffffff" font-weight="700" align="middle" lineHeight="125%" anchor="middle" family="微软雅黑" size="21px" weight="700" font-style="" opacity="1" y="7.875" transform="rotate(0)"><tspan id="SvgjsTspan1038" dy="26" x="60"><tspan id="SvgjsTspan1039" style="text-decoration:;">安全性</tspan></tspan></text></g></g><g id="SvgjsG1040" transform="translate(60,195)"><path id="SvgjsPath1041" d="M 0 0L 120 0L 120 53L 0 53Z" stroke="rgba(255,255,255,1)" stroke-width="2" fill-opacity="1" fill="#004b96"></path><g id="SvgjsG1042"><text id="SvgjsText1043" font-family="微软雅黑" text-anchor="middle" font-size="21px" width="100px" fill="#ffffff" font-weight="700" align="middle" lineHeight="125%" anchor="middle" family="微软雅黑" size="21px" weight="700" font-style="" opacity="1" y="7.875" transform="rotate(0)"><tspan id="SvgjsTspan1044" dy="26" x="60"><tspan id="SvgjsTspan1045" style="text-decoration:;">易用性</tspan></tspan></text></g></g><g id="SvgjsG1046" transform="translate(60,261)"><path id="SvgjsPath1047" d="M 0 0L 120 0L 120 53L 0 53Z" stroke="rgba(255,255,255,1)" stroke-width="2" fill-opacity="1" fill="#004b96"></path><g id="SvgjsG1048"><text id="SvgjsText1049" font-family="微软雅黑" text-anchor="middle" font-size="21px" width="100px" fill="#ffffff" font-weight="700" align="middle" lineHeight="125%" anchor="middle" family="微软雅黑" size="21px" weight="700" font-style="" opacity="1" y="7.875" transform="rotate(0)"><tspan id="SvgjsTspan1050" dy="26" x="60"><tspan id="SvgjsTspan1051" style="text-decoration:;">互操作性</tspan></tspan></text></g></g><g id="SvgjsG1052" transform="translate(235,261)"><path id="SvgjsPath1053" d="M 0 0L 120 0L 120 53L 0 53Z" stroke="rgba(255,255,255,1)" stroke-width="2" fill-opacity="1" fill="#004b96"></path><g id="SvgjsG1054"><text id="SvgjsText1055" font-family="微软雅黑" text-anchor="middle" font-size="21px" width="100px" fill="#ffffff" font-weight="700" align="middle" lineHeight="125%" anchor="middle" family="微软雅黑" size="21px" weight="700" font-style="" opacity="1" y="7.875" transform="rotate(0)"><tspan id="SvgjsTspan1056" dy="26" x="60"><tspan id="SvgjsTspan1057" style="text-decoration:;">可扩展性</tspan></tspan></text></g></g><g id="SvgjsG1058" transform="translate(235,129)"><path id="SvgjsPath1059" d="M 0 0L 120 0L 120 53L 0 53Z" stroke="rgba(255,255,255,1)" stroke-width="2" fill-opacity="1" fill="#004b96"></path><g id="SvgjsG1060"><text id="SvgjsText1061" font-family="微软雅黑" text-anchor="middle" font-size="21px" width="100px" fill="#ffffff" font-weight="700" align="middle" lineHeight="125%" anchor="middle" family="微软雅黑" size="21px" weight="700" font-style="" opacity="1" y="7.875" transform="rotate(0)"><tspan id="SvgjsTspan1062" dy="26" x="60"><tspan id="SvgjsTspan1063" style="text-decoration:;">可维护性</tspan></tspan></text></g></g><g id="SvgjsG1064" transform="translate(235,63)"><path id="SvgjsPath1065" d="M 0 0L 120 0L 120 53L 0 53Z" stroke="rgba(255,255,255,1)" stroke-width="2" fill-opacity="1" fill="#004b96"></path><g id="SvgjsG1066"><text id="SvgjsText1067" font-family="微软雅黑" text-anchor="middle" font-size="21px" width="100px" fill="#ffffff" font-weight="700" align="middle" lineHeight="125%" anchor="middle" family="微软雅黑" size="21px" weight="700" font-style="" opacity="1" y="7.875" transform="rotate(0)"><tspan id="SvgjsTspan1068" dy="26" x="60"><tspan id="SvgjsTspan1069" style="text-decoration:;">可用性</tspan></tspan></text></g></g><g id="SvgjsG1070" transform="translate(235,195)"><path id="SvgjsPath1071" d="M 0 0L 120 0L 120 53L 0 53Z" stroke="rgba(255,255,255,1)" stroke-width="2" fill-opacity="1" fill="#004b96"></path><g id="SvgjsG1072"><text id="SvgjsText1073" font-family="微软雅黑" text-anchor="middle" font-size="21px" width="100px" fill="#ffffff" font-weight="700" align="middle" lineHeight="125%" anchor="middle" family="微软雅黑" size="21px" weight="700" font-style="" opacity="1" y="7.875" transform="rotate(0)"><tspan id="SvgjsTspan1074" dy="26" x="60"><tspan id="SvgjsTspan1075" style="text-decoration:;">可修改性</tspan></tspan></text></g></g></svg>