<svg version="1.1" xmlns="http://www.w3.org/2000/svg" xmlns:xlink="http://www.w3.org/1999/xlink" width="377" height="314"><defs/><g><g transform="translate(-408,-540) scale(1,1)"><path fill="none" stroke="#000000" d="M 480 652 L 622 688" stroke-miterlimit="10"/></g><g transform="translate(-408,-540) scale(1,1)"><path fill="none" stroke="#000000" d="M 611.1144978639583 689.582985548333 L 622 688 L 613.1834478072377 681.4221274387307" stroke-miterlimit="10"/></g><g transform="translate(-408,-540) scale(1,1)"><path fill="#C0C0C0" stroke="none" d="M 622 622 C 622 612.6111584 649.5344848 605 683.5 605 C 717.4655152 605 745 612.6111584 745 622 C 745 631.3888416 717.4655152 639 683.5 639 C 649.5344848 639 622 631.3888416 622 622 Z" opacity="0.2"/></g><g transform="translate(-408,-540) scale(1,1)"><path fill="#ffffff" stroke="none" d="M 615 615 C 615 605.6111584 642.5344848 598 676.5 598 C 710.4655152 598 738 605.6111584 738 615 C 738 624.3888416 710.4655152 632 676.5 632 C 642.5344848 632 615 624.3888416 615 615 Z"/></g><g transform="translate(-408,-540) scale(1,1)"><path fill="none" stroke="#000000" d="M 615 615 C 615 605.6111584 642.5344848 598 676.5 598 C 710.4655152 598 738 605.6111584 738 615 C 738 624.3888416 710.4655152 632 676.5 632 C 642.5344848 632 615 624.3888416 615 615 Z" stroke-miterlimit="10"/></g><g transform="translate(-408,-540) scale(1,1)"><g><path fill="none" stroke="none"/><text fill="#000000" stroke="none" font-family="Arial" font-size="13px" font-style="normal" font-weight="bold" text-decoration="none" x="637.5" y="622">查看股票列表</text></g></g><g transform="translate(-408,-540) scale(1,1)"><path fill="#C0C0C0" stroke="none" d="M 622 574 C 622 564.6111584 649.5344848 557 683.5 557 C 717.4655152 557 745 564.6111584 745 574 C 745 583.3888416 717.4655152 591 683.5 591 C 649.5344848 591 622 583.3888416 622 574 Z" opacity="0.2"/></g><g transform="translate(-408,-540) scale(1,1)"><path fill="#ffffff" stroke="none" d="M 615 567 C 615 557.6111584 642.5344848 550 676.5 550 C 710.4655152 550 738 557.6111584 738 567 C 738 576.3888416 710.4655152 584 676.5 584 C 642.5344848 584 615 576.3888416 615 567 Z"/></g><g transform="translate(-408,-540) scale(1,1)"><path fill="none" stroke="#000000" d="M 615 567 C 615 557.6111584 642.5344848 550 676.5 550 C 710.4655152 550 738 557.6111584 738 567 C 738 576.3888416 710.4655152 584 676.5 584 C 642.5344848 584 615 576.3888416 615 567 Z" stroke-miterlimit="10"/></g><g transform="translate(-408,-540) scale(1,1)"><g><path fill="none" stroke="none"/><text fill="#000000" stroke="none" font-family="Arial" font-size="13px" font-style="normal" font-weight="bold" text-decoration="none" x="637.5" y="574">查看大盘数据</text></g></g><g transform="translate(-408,-540) scale(1,1)"><path fill="none" stroke="#000000" d="M 480 640 L 614 623" stroke-miterlimit="10"/></g><g transform="translate(-408,-540) scale(1,1)"><path fill="none" stroke="#000000" d="M 604.4479313893094 628.4550880154823 L 614 623 L 603.3883377833045 620.1029972387385" stroke-miterlimit="10"/></g><g transform="translate(-408,-540) scale(1,1)"><path fill="none" stroke="#000000" d="M 480 633 L 623 585" stroke-miterlimit="10"/></g><g transform="translate(-408,-540) scale(1,1)"><path fill="none" stroke="#000000" d="M 614.7051341972973 592.2246246487381 L 623 585 L 612.0260630612264 584.2432252225267" stroke-miterlimit="10"/></g><g transform="translate(-408,-540) scale(1,1)"><path fill="#C0C0C0" stroke="none" d="M 630 710 C 630 700.6111584 657.5344848 693 691.5 693 C 725.4655152 693 753 700.6111584 753 710 C 753 719.3888416 725.4655152 727 691.5 727 C 657.5344848 727 630 719.3888416 630 710 Z" opacity="0.2"/></g><g transform="translate(-408,-540) scale(1,1)"><path fill="#ffffff" stroke="none" d="M 623 703 C 623 693.6111584 650.5344848 686 684.5 686 C 718.4655152 686 746 693.6111584 746 703 C 746 712.3888416 718.4655152 720 684.5 720 C 650.5344848 720 623 712.3888416 623 703 Z"/></g><g transform="translate(-408,-540) scale(1,1)"><path fill="none" stroke="#000000" d="M 623 703 C 623 693.6111584 650.5344848 686 684.5 686 C 718.4655152 686 746 693.6111584 746 703 C 746 712.3888416 718.4655152 720 684.5 720 C 650.5344848 720 623 712.3888416 623 703 Z" stroke-miterlimit="10"/></g><g transform="translate(-408,-540) scale(1,1)"><g><path fill="none" stroke="none"/><text fill="#000000" stroke="none" font-family="Arial" font-size="13px" font-style="normal" font-weight="bold" text-decoration="none" x="645.5" y="710">查询公司概况</text></g></g><g transform="translate(-408,-540) scale(1,1)"><path fill="#C0C0C0" stroke="none" d="M 622 670 C 622 660.6111584 657.817216 653 702 653 C 746.182784 653 782 660.6111584 782 670 C 782 679.3888416 746.182784 687 702 687 C 657.817216 687 622 679.3888416 622 670 Z" opacity="0.2"/></g><g transform="translate(-408,-540) scale(1,1)"><path fill="#ffffff" stroke="none" d="M 615 663 C 615 653.6111584 650.817216 646 695 646 C 739.182784 646 775 653.6111584 775 663 C 775 672.3888416 739.182784 680 695 680 C 650.817216 680 615 672.3888416 615 663 Z"/></g><g transform="translate(-408,-540) scale(1,1)"><path fill="none" stroke="#000000" d="M 615 663 C 615 653.6111584 650.817216 646 695 646 C 739.182784 646 775 653.6111584 775 663 C 775 672.3888416 739.182784 680 695 680 C 650.817216 680 615 672.3888416 615 663 Z" stroke-miterlimit="10"/></g><g transform="translate(-408,-540) scale(1,1)"><g><path fill="none" stroke="none"/><text fill="#000000" stroke="none" font-family="Arial" font-size="13px" font-style="normal" font-weight="bold" text-decoration="none" x="643" y="670">查询单支股票行情</text></g></g><g transform="translate(-408,-540) scale(1,1)"><path fill="none" stroke="#000000" d="M 480 646 L 614 657" stroke-miterlimit="10"/></g><g transform="translate(-408,-540) scale(1,1)"><path fill="none" stroke="#000000" d="M 603.5269956555469 660.3639530319355 L 614 657 L 604.2157936081665 651.9731416091157" stroke-miterlimit="10"/></g><g transform="translate(-408,-540) scale(1,1)"><path fill="#ffffff" stroke="none" d="M 439.82072727272725 614.6800000000001 C 439.82072727272725 609.8861679360001 443.70656959767274 606 448.5 606 C 453.29343040232726 606 457.17927272727275 609.8861679360001 457.17927272727275 614.6800000000001 C 457.17927272727275 619.473832064 453.29343040232726 623.36 448.5 623.36 C 443.70656959767274 623.36 439.82072727272725 619.473832064 439.82072727272725 614.6800000000001 Z"/></g><g transform="translate(-408,-540) scale(1,1)"><path fill="none" stroke="#000000" d="M 439.82072727272725 614.6800000000001 C 439.82072727272725 609.8861679360001 443.70656959767274 606 448.5 606 C 453.29343040232726 606 457.17927272727275 609.8861679360001 457.17927272727275 614.6800000000001 C 457.17927272727275 619.473832064 453.29343040232726 623.36 448.5 623.36 C 443.70656959767274 623.36 439.82072727272725 619.473832064 439.82072727272725 614.6800000000001 Z" stroke-miterlimit="10"/></g><g transform="translate(-408,-540) scale(1,1)"><path fill="none" stroke="#000000" d="M 448.5 623.36 L 448.5 640.64" stroke-miterlimit="10"/></g><g transform="translate(-408,-540) scale(1,1)"><path fill="none" stroke="#000000" d="M 439.31018181818183 629.84 L 457.68981818181817 629.84" stroke-miterlimit="10"/></g><g transform="translate(-408,-540) scale(1,1)"><path fill="none" stroke="#000000" d="M 448.5 640.64 L 435.73636363636365 658" stroke-miterlimit="10"/></g><g transform="translate(-408,-540) scale(1,1)"><path fill="none" stroke="#000000" d="M 448.5 640.64 L 461.26363636363635 658" stroke-miterlimit="10"/></g><g transform="translate(-408,-540) scale(1,1)"><g><path fill="none" stroke="none"/><text fill="#000000" stroke="none" font-family="Arial" font-size="13px" font-style="normal" font-weight="bold" text-decoration="none" x="422.5" y="678.5">普通用户</text></g></g><g transform="translate(-408,-540) scale(1,1)"><path fill="#ffffff" stroke="none" d="M 439.82072727272725 774.6800000000001 C 439.82072727272725 769.8861679360001 443.70656959767274 766 448.5 766 C 453.29343040232726 766 457.17927272727275 769.8861679360001 457.17927272727275 774.6800000000001 C 457.17927272727275 779.473832064 453.29343040232726 783.36 448.5 783.36 C 443.70656959767274 783.36 439.82072727272725 779.473832064 439.82072727272725 774.6800000000001 Z"/></g><g transform="translate(-408,-540) scale(1,1)"><path fill="none" stroke="#000000" d="M 439.82072727272725 774.6800000000001 C 439.82072727272725 769.8861679360001 443.70656959767274 766 448.5 766 C 453.29343040232726 766 457.17927272727275 769.8861679360001 457.17927272727275 774.6800000000001 C 457.17927272727275 779.473832064 453.29343040232726 783.36 448.5 783.36 C 443.70656959767274 783.36 439.82072727272725 779.473832064 439.82072727272725 774.6800000000001 Z" stroke-miterlimit="10"/></g><g transform="translate(-408,-540) scale(1,1)"><path fill="none" stroke="#000000" d="M 448.5 783.36 L 448.5 800.64" stroke-miterlimit="10"/></g><g transform="translate(-408,-540) scale(1,1)"><path fill="none" stroke="#000000" d="M 439.31018181818183 789.84 L 457.68981818181817 789.84" stroke-miterlimit="10"/></g><g transform="translate(-408,-540) scale(1,1)"><path fill="none" stroke="#000000" d="M 448.5 800.64 L 435.73636363636365 818" stroke-miterlimit="10"/></g><g transform="translate(-408,-540) scale(1,1)"><path fill="none" stroke="#000000" d="M 448.5 800.64 L 461.26363636363635 818" stroke-miterlimit="10"/></g><g transform="translate(-408,-540) scale(1,1)"><g><path fill="none" stroke="none"/><text fill="#000000" stroke="none" font-family="Arial" font-size="13px" font-style="normal" font-weight="bold" text-decoration="none" x="422.5" y="838.5">会员用户</text></g></g><g transform="translate(-408,-540) scale(1,1)"><path fill="none" stroke="#000000" d="M 448 764 L 448 685" stroke-miterlimit="10"/></g><g transform="translate(-408,-540) scale(1,1)"><path fill="#FFFFFF" stroke="none" d="M 456.419035512032 705.3253497152483 L 448 685 L 439.580964487968 705.3253497152483"/></g><g transform="translate(-408,-540) scale(1,1)"><path fill="none" stroke="#000000" d="M 456.419035512032 705.3253497152483 L 448 685 L 439.580964487968 705.3253497152483 L 456.419035512032 705.3253497152483" stroke-miterlimit="10"/></g></g></svg>