<svg version="1.1" xmlns="http://www.w3.org/2000/svg" xmlns:xlink="http://www.w3.org/1999/xlink" width="644" height="339"><defs/><g><g transform="translate(-266,-462) scale(1,1)"><path fill="#ffffff" stroke="none" d="M 297.82072727272725 537.6800000000001 C 297.82072727272725 532.8861679360001 301.70656959767274 529 306.5 529 C 311.29343040232726 529 315.17927272727275 532.8861679360001 315.17927272727275 537.6800000000001 C 315.17927272727275 542.473832064 311.29343040232726 546.36 306.5 546.36 C 301.70656959767274 546.36 297.82072727272725 542.473832064 297.82072727272725 537.6800000000001 Z"/></g><g transform="translate(-266,-462) scale(1,1)"><path fill="none" stroke="#000000" d="M 297.82072727272725 537.6800000000001 C 297.82072727272725 532.8861679360001 301.70656959767274 529 306.5 529 C 311.29343040232726 529 315.17927272727275 532.8861679360001 315.17927272727275 537.6800000000001 C 315.17927272727275 542.473832064 311.29343040232726 546.36 306.5 546.36 C 301.70656959767274 546.36 297.82072727272725 542.473832064 297.82072727272725 537.6800000000001 Z" stroke-miterlimit="10"/></g><g transform="translate(-266,-462) scale(1,1)"><path fill="none" stroke="#000000" d="M 306.5 546.36 L 306.5 563.64" stroke-miterlimit="10"/></g><g transform="translate(-266,-462) scale(1,1)"><path fill="none" stroke="#000000" d="M 297.31018181818183 552.84 L 315.68981818181817 552.84" stroke-miterlimit="10"/></g><g transform="translate(-266,-462) scale(1,1)"><path fill="none" stroke="#000000" d="M 306.5 563.64 L 293.73636363636365 581" stroke-miterlimit="10"/></g><g transform="translate(-266,-462) scale(1,1)"><path fill="none" stroke="#000000" d="M 306.5 563.64 L 319.26363636363635 581" stroke-miterlimit="10"/></g><g transform="translate(-266,-462) scale(1,1)"><g><path fill="none" stroke="none"/><text fill="#000000" stroke="none" font-family="Arial" font-size="13px" font-style="normal" font-weight="bold" text-decoration="none" x="280.5" y="601.5">普通用户</text></g></g><g transform="translate(-266,-462) scale(1,1)"><path fill="#ffffff" stroke="none" d="M 297.82072727272725 721.6800000000001 C 297.82072727272725 716.8861679360001 301.70656959767274 713 306.5 713 C 311.29343040232726 713 315.17927272727275 716.8861679360001 315.17927272727275 721.6800000000001 C 315.17927272727275 726.473832064 311.29343040232726 730.36 306.5 730.36 C 301.70656959767274 730.36 297.82072727272725 726.473832064 297.82072727272725 721.6800000000001 Z"/></g><g transform="translate(-266,-462) scale(1,1)"><path fill="none" stroke="#000000" d="M 297.82072727272725 721.6800000000001 C 297.82072727272725 716.8861679360001 301.70656959767274 713 306.5 713 C 311.29343040232726 713 315.17927272727275 716.8861679360001 315.17927272727275 721.6800000000001 C 315.17927272727275 726.473832064 311.29343040232726 730.36 306.5 730.36 C 301.70656959767274 730.36 297.82072727272725 726.473832064 297.82072727272725 721.6800000000001 Z" stroke-miterlimit="10"/></g><g transform="translate(-266,-462) scale(1,1)"><path fill="none" stroke="#000000" d="M 306.5 730.36 L 306.5 747.64" stroke-miterlimit="10"/></g><g transform="translate(-266,-462) scale(1,1)"><path fill="none" stroke="#000000" d="M 297.31018181818183 736.84 L 315.68981818181817 736.84" stroke-miterlimit="10"/></g><g transform="translate(-266,-462) scale(1,1)"><path fill="none" stroke="#000000" d="M 306.5 747.64 L 293.73636363636365 765" stroke-miterlimit="10"/></g><g transform="translate(-266,-462) scale(1,1)"><path fill="none" stroke="#000000" d="M 306.5 747.64 L 319.26363636363635 765" stroke-miterlimit="10"/></g><g transform="translate(-266,-462) scale(1,1)"><g><path fill="none" stroke="none"/><text fill="#000000" stroke="none" font-family="Arial" font-size="13px" font-style="normal" font-weight="bold" text-decoration="none" x="280.5" y="785.5">会员用户</text></g></g><g transform="translate(-266,-462) scale(1,1)"><path fill="none" stroke="#000000" d="M 306 711 L 306 608" stroke-miterlimit="10"/></g><g transform="translate(-266,-462) scale(1,1)"><path fill="#FFFFFF" stroke="none" d="M 314.419035512032 628.3253497152483 L 306 608 L 297.580964487968 628.3253497152483"/></g><g transform="translate(-266,-462) scale(1,1)"><path fill="none" stroke="#000000" d="M 314.419035512032 628.3253497152483 L 306 608 L 297.580964487968 628.3253497152483 L 314.419035512032 628.3253497152483" stroke-miterlimit="10"/></g><g transform="translate(-266,-462) scale(1,1)"><path fill="#C0C0C0" stroke="none" d="M 471 496 C 471 486.6111584 498.5344848 479 532.5 479 C 566.4655152 479 594 486.6111584 594 496 C 594 505.3888416 566.4655152 513 532.5 513 C 498.5344848 513 471 505.3888416 471 496 Z" opacity="0.2"/></g><g transform="translate(-266,-462) scale(1,1)"><path fill="#ffffff" stroke="none" d="M 464 489 C 464 479.6111584 491.5344848 472 525.5 472 C 559.4655152 472 587 479.6111584 587 489 C 587 498.3888416 559.4655152 506 525.5 506 C 491.5344848 506 464 498.3888416 464 489 Z"/></g><g transform="translate(-266,-462) scale(1,1)"><path fill="none" stroke="#000000" d="M 464 489 C 464 479.6111584 491.5344848 472 525.5 472 C 559.4655152 472 587 479.6111584 587 489 C 587 498.3888416 559.4655152 506 525.5 506 C 491.5344848 506 464 498.3888416 464 489 Z" stroke-miterlimit="10"/></g><g transform="translate(-266,-462) scale(1,1)"><g><path fill="none" stroke="none"/><text fill="#000000" stroke="none" font-family="Arial" font-size="13px" font-style="normal" font-weight="bold" text-decoration="none" x="486.5" y="496">实盘运行策略</text></g></g><g transform="translate(-266,-462) scale(1,1)"><path fill="#C0C0C0" stroke="none" d="M 455 592 C 455 582.6111584 490.81721600000003 575 535 575 C 579.182784 575 615 582.6111584 615 592 C 615 601.3888416 579.182784 609 535 609 C 490.81721600000003 609 455 601.3888416 455 592 Z" opacity="0.2"/></g><g transform="translate(-266,-462) scale(1,1)"><path fill="#ffffff" stroke="none" d="M 448 585 C 448 575.6111584 483.81721600000003 568 528 568 C 572.182784 568 608 575.6111584 608 585 C 608 594.3888416 572.182784 602 528 602 C 483.81721600000003 602 448 594.3888416 448 585 Z"/></g><g transform="translate(-266,-462) scale(1,1)"><path fill="none" stroke="#000000" d="M 448 585 C 448 575.6111584 483.81721600000003 568 528 568 C 572.182784 568 608 575.6111584 608 585 C 608 594.3888416 572.182784 602 528 602 C 483.81721600000003 602 448 594.3888416 448 585 Z" stroke-miterlimit="10"/></g><g transform="translate(-266,-462) scale(1,1)"><g><path fill="none" stroke="none"/><text fill="#000000" stroke="none" font-family="Arial" font-size="13px" font-style="normal" font-weight="bold" text-decoration="none" x="476" y="592">查看实盘交易日志</text></g></g><g transform="translate(-266,-462) scale(1,1)"><path fill="#C0C0C0" stroke="none" d="M 455 696 C 455 686.6111584 490.81721600000003 679 535 679 C 579.182784 679 615 686.6111584 615 696 C 615 705.3888416 579.182784 713 535 713 C 490.81721600000003 713 455 705.3888416 455 696 Z" opacity="0.2"/></g><g transform="translate(-266,-462) scale(1,1)"><path fill="#ffffff" stroke="none" d="M 448 689 C 448 679.6111584 483.81721600000003 672 528 672 C 572.182784 672 608 679.6111584 608 689 C 608 698.3888416 572.182784 706 528 706 C 483.81721600000003 706 448 698.3888416 448 689 Z"/></g><g transform="translate(-266,-462) scale(1,1)"><path fill="none" stroke="#000000" d="M 448 689 C 448 679.6111584 483.81721600000003 672 528 672 C 572.182784 672 608 679.6111584 608 689 C 608 698.3888416 572.182784 706 528 706 C 483.81721600000003 706 448 698.3888416 448 689 Z" stroke-miterlimit="10"/></g><g transform="translate(-266,-462) scale(1,1)"><g><path fill="none" stroke="none"/><text fill="#000000" stroke="none" font-family="Arial" font-size="13px" font-style="normal" font-weight="bold" text-decoration="none" x="476" y="696">查看实盘策略详情</text></g></g><g transform="translate(-266,-462) scale(1,1)"><path fill="#C0C0C0" stroke="none" d="M 727 680 C 727 670.6111584 762.817216 663 807 663 C 851.182784 663 887 670.6111584 887 680 C 887 689.3888416 851.182784 697 807 697 C 762.817216 697 727 689.3888416 727 680 Z" opacity="0.2"/></g><g transform="translate(-266,-462) scale(1,1)"><path fill="#ffffff" stroke="none" d="M 720 673 C 720 663.6111584 755.817216 656 800 656 C 844.182784 656 880 663.6111584 880 673 C 880 682.3888416 844.182784 690 800 690 C 755.817216 690 720 682.3888416 720 673 Z"/></g><g transform="translate(-266,-462) scale(1,1)"><path fill="none" stroke="#000000" d="M 720 673 C 720 663.6111584 755.817216 656 800 656 C 844.182784 656 880 663.6111584 880 673 C 880 682.3888416 844.182784 690 800 690 C 755.817216 690 720 682.3888416 720 673 Z" stroke-miterlimit="10"/></g><g transform="translate(-266,-462) scale(1,1)"><g><path fill="none" stroke="none"/><text fill="#000000" stroke="none" font-family="Arial" font-size="13px" font-style="normal" font-weight="bold" text-decoration="none" x="748" y="680">查看实盘策略收益</text></g></g><g transform="translate(-266,-462) scale(1,1)"><path fill="#C0C0C0" stroke="none" d="M 711 768 C 711 758.6111584 754.8760896 751 809 751 C 863.1239104 751 907 758.6111584 907 768 C 907 777.3888416 863.1239104 785 809 785 C 754.8760896 785 711 777.3888416 711 768 Z" opacity="0.2"/></g><g transform="translate(-266,-462) scale(1,1)"><path fill="#ffffff" stroke="none" d="M 704 761 C 704 751.6111584 747.8760896 744 802 744 C 856.1239104 744 900 751.6111584 900 761 C 900 770.3888416 856.1239104 778 802 778 C 747.8760896 778 704 770.3888416 704 761 Z"/></g><g transform="translate(-266,-462) scale(1,1)"><path fill="none" stroke="#000000" d="M 704 761 C 704 751.6111584 747.8760896 744 802 744 C 856.1239104 744 900 751.6111584 900 761 C 900 770.3888416 856.1239104 778 802 778 C 747.8760896 778 704 770.3888416 704 761 Z" stroke-miterlimit="10"/></g><g transform="translate(-266,-462) scale(1,1)"><g><path fill="none" stroke="none"/><text fill="#000000" stroke="none" font-family="Arial" font-size="13px" font-style="normal" font-weight="bold" text-decoration="none" x="737" y="768">查看实盘策略风险分析</text></g></g><g transform="translate(-266,-462) scale(1,1)"><path fill="none" stroke="#000000" d="M 338 556 L 474 507" stroke-miterlimit="10"/></g><g transform="translate(-266,-462) scale(1,1)"><path fill="none" stroke="#000000" d="M 465.8658404041838 514.4050960608079 L 474 507 L 463.0120869506097 506.48447423047975" stroke-miterlimit="10"/></g><g transform="translate(-266,-462) scale(1,1)"><path fill="none" stroke="#000000" d="M 338 570 L 447 578" stroke-miterlimit="10"/></g><g transform="translate(-266,-462) scale(1,1)"><path fill="none" stroke="#000000" d="M 436.5564603112027 581.4543420167256 L 447 578 L 437.1727136018963 573.0578909310249" stroke-miterlimit="10"/></g><g transform="translate(-266,-462) scale(1,1)"><path fill="none" stroke="#000000" d="M 338 585 L 495 671" stroke-miterlimit="10"/></g><g transform="translate(-266,-462) scale(1,1)"><path fill="none" stroke="#000000" d="M 484.06460167454776 669.8095952521534 L 495 671 L 488.1092489586557 662.4257624195377" stroke-miterlimit="10"/></g><g transform="translate(-266,-462) scale(1,1)"><path fill="none" stroke="#000000" d="M 609 684 L 719 678" stroke-miterlimit="10" stroke-dasharray="3"/></g><g transform="translate(-266,-462) scale(1,1)"><path fill="none" stroke="#000000" d="M 709.0816787710962 682.7567745374653 L 719 678 L 708.6231402690385 674.3502353330729" stroke-miterlimit="10"/></g><g transform="translate(-266,-462) scale(1,1)"><g><path fill="none" stroke="none"/><text fill="#000000" stroke="none" font-family="Arial" font-size="13px" font-style="normal" font-weight="normal" text-decoration="none" x="631.5" y="667.5">«include»</text></g></g><g transform="translate(-266,-462) scale(1,1)"><path fill="none" stroke="#000000" d="M 734 743 L 597 707" stroke-miterlimit="10" stroke-dasharray="3"/></g><g transform="translate(-266,-462) scale(1,1)"><path fill="none" stroke="#000000" d="M 607.8988239961567 705.5114989080286 L 597 707 L 605.7591615705776 713.6541031387045" stroke-miterlimit="10"/></g><g transform="translate(-266,-462) scale(1,1)"><g><path fill="none" stroke="none"/><text fill="#000000" stroke="none" font-family="Arial" font-size="13px" font-style="normal" font-weight="normal" text-decoration="none" x="631.5" y="745.5">+验证会员</text></g></g><g transform="translate(-266,-462) scale(1,1)"><g><path fill="none" stroke="none"/><text fill="#000000" stroke="none" font-family="Arial" font-size="13px" font-style="normal" font-weight="normal" text-decoration="none" x="639.5" y="716.5">«extend»</text></g></g></g></svg>