<svg version="1.1" xmlns="http://www.w3.org/2000/svg" xmlns:xlink="http://www.w3.org/1999/xlink" width="307" height="222"><defs/><g><g transform="translate(-260,-763) scale(1,1)"><path fill="#ffffff" stroke="none" d="M 291.82072727272725 782.6800000000001 C 291.82072727272725 777.8861679360001 295.70656959767274 774 300.5 774 C 305.29343040232726 774 309.17927272727275 777.8861679360001 309.17927272727275 782.6800000000001 C 309.17927272727275 787.473832064 305.29343040232726 791.36 300.5 791.36 C 295.70656959767274 791.36 291.82072727272725 787.473832064 291.82072727272725 782.6800000000001 Z"/></g><g transform="translate(-260,-763) scale(1,1)"><path fill="none" stroke="#000000" d="M 291.82072727272725 782.6800000000001 C 291.82072727272725 777.8861679360001 295.70656959767274 774 300.5 774 C 305.29343040232726 774 309.17927272727275 777.8861679360001 309.17927272727275 782.6800000000001 C 309.17927272727275 787.473832064 305.29343040232726 791.36 300.5 791.36 C 295.70656959767274 791.36 291.82072727272725 787.473832064 291.82072727272725 782.6800000000001 Z" stroke-miterlimit="10"/></g><g transform="translate(-260,-763) scale(1,1)"><path fill="none" stroke="#000000" d="M 300.5 791.36 L 300.5 808.64" stroke-miterlimit="10"/></g><g transform="translate(-260,-763) scale(1,1)"><path fill="none" stroke="#000000" d="M 291.31018181818183 797.84 L 309.68981818181817 797.84" stroke-miterlimit="10"/></g><g transform="translate(-260,-763) scale(1,1)"><path fill="none" stroke="#000000" d="M 300.5 808.64 L 287.73636363636365 826" stroke-miterlimit="10"/></g><g transform="translate(-260,-763) scale(1,1)"><path fill="none" stroke="#000000" d="M 300.5 808.64 L 313.26363636363635 826" stroke-miterlimit="10"/></g><g transform="translate(-260,-763) scale(1,1)"><g><path fill="none" stroke="none"/><text fill="#000000" stroke="none" font-family="Arial" font-size="13px" font-style="normal" font-weight="bold" text-decoration="none" x="274.5" y="846.5">普通用户</text></g></g><g transform="translate(-260,-763) scale(1,1)"><path fill="#ffffff" stroke="none" d="M 293.82072727272725 905.6800000000001 C 293.82072727272725 900.8861679360001 297.70656959767274 897 302.5 897 C 307.29343040232726 897 311.17927272727275 900.8861679360001 311.17927272727275 905.6800000000001 C 311.17927272727275 910.473832064 307.29343040232726 914.36 302.5 914.36 C 297.70656959767274 914.36 293.82072727272725 910.473832064 293.82072727272725 905.6800000000001 Z"/></g><g transform="translate(-260,-763) scale(1,1)"><path fill="none" stroke="#000000" d="M 293.82072727272725 905.6800000000001 C 293.82072727272725 900.8861679360001 297.70656959767274 897 302.5 897 C 307.29343040232726 897 311.17927272727275 900.8861679360001 311.17927272727275 905.6800000000001 C 311.17927272727275 910.473832064 307.29343040232726 914.36 302.5 914.36 C 297.70656959767274 914.36 293.82072727272725 910.473832064 293.82072727272725 905.6800000000001 Z" stroke-miterlimit="10"/></g><g transform="translate(-260,-763) scale(1,1)"><path fill="none" stroke="#000000" d="M 302.5 914.36 L 302.5 931.64" stroke-miterlimit="10"/></g><g transform="translate(-260,-763) scale(1,1)"><path fill="none" stroke="#000000" d="M 293.31018181818183 920.84 L 311.68981818181817 920.84" stroke-miterlimit="10"/></g><g transform="translate(-260,-763) scale(1,1)"><path fill="none" stroke="#000000" d="M 302.5 931.64 L 289.73636363636365 949" stroke-miterlimit="10"/></g><g transform="translate(-260,-763) scale(1,1)"><path fill="none" stroke="#000000" d="M 302.5 931.64 L 315.26363636363635 949" stroke-miterlimit="10"/></g><g transform="translate(-260,-763) scale(1,1)"><g><path fill="none" stroke="none"/><text fill="#000000" stroke="none" font-family="Arial" font-size="13px" font-style="normal" font-weight="bold" text-decoration="none" x="276.5" y="969.5">会员用户</text></g></g><g transform="translate(-260,-763) scale(1,1)"><path fill="#C0C0C0" stroke="none" d="M 439 816 C 439 806.6111584 466.5344848 799 500.5 799 C 534.4655152 799 562 806.6111584 562 816 C 562 825.3888416 534.4655152 833 500.5 833 C 466.5344848 833 439 825.3888416 439 816 Z" opacity="0.2"/></g><g transform="translate(-260,-763) scale(1,1)"><path fill="#ffffff" stroke="none" d="M 432 809 C 432 799.6111584 459.5344848 792 493.5 792 C 527.4655152 792 555 799.6111584 555 809 C 555 818.3888416 527.4655152 826 493.5 826 C 459.5344848 826 432 818.3888416 432 809 Z"/></g><g transform="translate(-260,-763) scale(1,1)"><path fill="none" stroke="#000000" d="M 432 809 C 432 799.6111584 459.5344848 792 493.5 792 C 527.4655152 792 555 799.6111584 555 809 C 555 818.3888416 527.4655152 826 493.5 826 C 459.5344848 826 432 818.3888416 432 809 Z" stroke-miterlimit="10"/></g><g transform="translate(-260,-763) scale(1,1)"><g><path fill="none" stroke="none"/><text fill="#000000" stroke="none" font-family="Arial" font-size="13px" font-style="normal" font-weight="bold" text-decoration="none" x="454.5" y="816">查看量化策略</text></g></g><g transform="translate(-260,-763) scale(1,1)"><path fill="#C0C0C0" stroke="none" d="M 423 920 C 423 910.6111584 454.5639216 903 493.5 903 C 532.4360784 903 564 910.6111584 564 920 C 564 929.3888416 532.4360784 937 493.5 937 C 454.5639216 937 423 929.3888416 423 920 Z" opacity="0.2"/></g><g transform="translate(-260,-763) scale(1,1)"><path fill="#ffffff" stroke="none" d="M 416 913 C 416 903.6111584 447.5639216 896 486.5 896 C 525.4360784 896 557 903.6111584 557 913 C 557 922.3888416 525.4360784 930 486.5 930 C 447.5639216 930 416 922.3888416 416 913 Z"/></g><g transform="translate(-260,-763) scale(1,1)"><path fill="none" stroke="#000000" d="M 416 913 C 416 903.6111584 447.5639216 896 486.5 896 C 525.4360784 896 557 903.6111584 557 913 C 557 922.3888416 525.4360784 930 486.5 930 C 447.5639216 930 416 922.3888416 416 913 Z" stroke-miterlimit="10"/></g><g transform="translate(-260,-763) scale(1,1)"><g><path fill="none" stroke="none"/><text fill="#000000" stroke="none" font-family="Arial" font-size="13px" font-style="normal" font-weight="bold" text-decoration="none" x="441" y="920">编辑自定义策略</text></g></g><g transform="translate(-260,-763) scale(1,1)"><path fill="none" stroke="#000000" d="M 301 895 L 301 853" stroke-miterlimit="10"/></g><g transform="translate(-260,-763) scale(1,1)"><path fill="#FFFFFF" stroke="none" d="M 309.419035512032 873.3253497152483 L 301 853 L 292.580964487968 873.3253497152483"/></g><g transform="translate(-260,-763) scale(1,1)"><path fill="none" stroke="#000000" d="M 309.419035512032 873.3253497152483 L 301 853 L 292.580964487968 873.3253497152483 L 309.419035512032 873.3253497152483" stroke-miterlimit="10"/></g><g transform="translate(-260,-763) scale(1,1)"><path fill="none" stroke="#000000" d="M 332 812 L 431 810" stroke-miterlimit="10"/></g><g transform="translate(-260,-763) scale(1,1)"><path fill="none" stroke="#000000" d="M 420.9244217260538 814.4139237018308 L 431 810 L 420.7543748969122 805.9966056593214" stroke-miterlimit="10"/></g><g transform="translate(-260,-763) scale(1,1)"><path fill="none" stroke="#000000" d="M 332 829 L 453 895" stroke-miterlimit="10"/></g><g transform="translate(-260,-763) scale(1,1)"><path fill="none" stroke="#000000" d="M 442.0624961869175 893.8290984931238 L 453 895 L 446.0939692801294 886.4380644889019" stroke-miterlimit="10"/></g></g></svg>